<?xml version="1.0" encoding="UTF-8"?>
<svg id="Layer_1" data-name="Layer 1" xmlns="http://www.w3.org/2000/svg" xmlns:xlink="http://www.w3.org/1999/xlink" viewBox="0 0 1296 1728">
  <defs>
    <style>
      .cls-1 {
        fill: #fb8046;
      }

      .cls-2 {
        fill: #d85359;
      }

      .cls-3 {
        fill: url(#linear-gradient-2);
      }

      .cls-4 {
        fill: #374c68;
      }

      .cls-5 {
        fill: #c24851;
      }

      .cls-6 {
        fill: #c73737;
      }

      .cls-7 {
        fill: #e34c42;
      }

      .cls-8 {
        fill: #ffd2c3;
      }

      .cls-9 {
        fill: #ffaf89;
      }

      .cls-10 {
        fill: url(#linear-gradient-3);
      }

      .cls-11 {
        fill: #c4b0b3;
      }

      .cls-12 {
        fill: #a2303e;
      }

      .cls-13 {
        fill: #ed7373;
      }

      .cls-14 {
        fill: #fdab90;
      }

      .cls-15 {
        fill: #d24951;
      }

      .cls-16 {
        fill: #ee7b7c;
      }

      .cls-17 {
        fill: #2d344a;
      }

      .cls-18 {
        fill: #fdd5ab;
      }

      .cls-19 {
        fill: #e65142;
      }

      .cls-20 {
        fill: #21283a;
      }

      .cls-21 {
        fill: #d95451;
      }

      .cls-22 {
        fill: #be373d;
      }

      .cls-23 {
        fill: #641c24;
      }

      .cls-24 {
        fill: #516783;
      }

      .cls-25 {
        fill: #f9907f;
      }

      .cls-26 {
        fill: #768398;
      }

      .cls-27 {
        fill: #f27163;
      }

      .cls-28 {
        fill: #bb434e;
      }

      .cls-29 {
        fill: url(#linear-gradient);
      }

      .cls-30 {
        fill: #e5848e;
      }

      .cls-31 {
        fill: #23334e;
      }

      .cls-32 {
        fill: #253750;
      }

      .cls-33 {
        fill: #9f262b;
      }
    </style>
    <linearGradient id="linear-gradient" x1="0" y1="1356.97" x2="1296" y2="1356.97" gradientUnits="userSpaceOnUse">
      <stop offset="0" stop-color="#fb9f97"/>
      <stop offset=".32" stop-color="#f89a94"/>
      <stop offset=".68" stop-color="#f08c8e"/>
      <stop offset="1" stop-color="#e57a86"/>
    </linearGradient>
    <linearGradient id="linear-gradient-2" x1="648" y1="997.69" x2="648" y2="0" gradientUnits="userSpaceOnUse">
      <stop offset="0" stop-color="#ffbd8b"/>
      <stop offset=".52" stop-color="#f6a795"/>
      <stop offset="1" stop-color="#f1989d"/>
    </linearGradient>
    <linearGradient id="linear-gradient-3" x1="404.2" y1="1318.22" x2="1296" y2="1318.22" gradientUnits="userSpaceOnUse">
      <stop offset="0" stop-color="#ed716f"/>
      <stop offset=".3" stop-color="#ea6c6b"/>
      <stop offset=".65" stop-color="#e45e60"/>
      <stop offset="1" stop-color="#da4950"/>
    </linearGradient>
  </defs>
  <rect id="water" class="cls-29" y="1083.11" width="1296" height="547.71"/>
  <rect id="sky" class="cls-3" width="1296" height="997.69"/>
  <path id="reflection" class="cls-9" d="M876.32,1142.41l1.16-59.3H209.09L0,1243c241.57-5.54,597.97-16.59,596.34-26.44-1.63-9.85-191.68-9.47-192.14-17.03-.46-7.56,333.17-14.93,333.17-23.07s-230.43-12.5-229.74-17.52c.68-5.02,244.8,0,245.31-5.02.52-5.02-55.03-8.56-54-13.51,1.03-4.95,177.38,2,177.38,2ZM324.8,1160.26c-51.55,0-93.34-2.19-93.34-4.89s41.79-4.88,93.34-4.88,93.34,2.18,93.34,4.88-41.79,4.89-93.34,4.89Z"/>
  <g id="mountain">
    <path id="snow_l" class="cls-18" d="M688.91,786.11c-16.98-15.15-34.14-27.93-51.68-35.19-11.73,8.37-21.72,18.38-27,32.88-6.26-6.46-10.04-14.36-11.57-23.53-19.83,6.51-38.63,17.33-56.32,32.79,9.73-24.33,26.66-49.43,46.29-74.83-37.56,25.58-73.18,50.71-94.89,72.51,8.78-19.42,20.39-36.88,34.72-52.45-33.49,16.11-73.78,30.59-117.86,44.17,62.42-43.19,125.32-91.19,188.06-137.52h53.98c-7.78,20.11-17.2,50.41-14.38,73.55,2.27,18.55,23.94,31.32,47.19,48.42,1.46,6.3,2.6,12.7,3.46,19.2Z"/>
    <path id="mount_l" class="cls-26" d="M900.2,970.57l-4.07,69.83H112.5v-113.11c87.18-15.35,177.71-64.06,269.5-125.37,9.52-6.35,19.05-12.85,28.6-19.46,44.08-13.58,84.37-28.06,117.86-44.17-14.33,15.57-25.94,33.03-34.72,52.45,21.71-21.8,57.33-46.93,94.89-72.51-19.63,25.4-36.56,50.5-46.29,74.83,17.69-15.46,36.49-26.28,56.32-32.79,1.53,9.17,5.31,17.07,11.57,23.53,5.28-14.5,15.27-24.51,27-32.88,17.54,7.26,34.7,20.04,51.68,35.19-.86-6.5-2-12.9-3.46-19.2,12.14,8.91,24.71,19,35.17,31.7,10.48,12.71,18.84,28.04,22.55,47.42,4.01,20.94,18.17,34.57,36.5,45.11,43.56,25.07,110.63,32.67,120.53,79.43Z"/>
    <path id="mount_d" class="cls-24" d="M1181.24,927.29v113.11h-285.11l4.07-69.83c-9.9-46.76-76.97-54.36-120.53-79.43-18.33-10.54-32.49-24.17-36.5-45.11-3.71-19.38-12.07-34.71-22.55-47.42-10.46-12.7-23.03-22.79-35.17-31.7-2.8-12.27-6.75-24.14-11.96-35.57,18.93,14.17,39.37,33.82,60.47,55.88,2.97,3.11,5.96,6.27,8.95,9.46-1.38-14.28-6.32-26.47-15.13-36.41,14.91,8.15,35.74,14.89,58.33,21.22-20.41-16.83-42.02-42.47-64.02-70.98,35.57,28.04,69.55,52.27,101.53,71.75-15.6-16.59-25.46-30.8-29.02-42.43,18.89,17.95,62.29,34.59,107.37,51.14,3.25,1.92,6.53,3.84,9.84,5.77,76.85,44.67,166.08,88.23,269.43,130.55Z"/>
    <path id="snow_d" class="cls-11" d="M823.62,782.26c-31.98-19.48-65.96-43.71-101.53-71.75,22,28.51,43.61,54.15,64.02,70.98-22.59-6.33-43.42-13.07-58.33-21.22,8.81,9.94,13.75,22.13,15.13,36.41-2.99-3.19-5.98-6.35-8.95-9.46-21.1-22.06-41.54-41.71-60.47-55.88,5.21,11.43,9.16,23.3,11.96,35.57-23.25-17.1-44.92-29.87-47.19-48.42-2.82-23.14,6.6-53.44,14.38-73.55h47.61c54.74,49.78,121.29,98.52,201.72,146.03-45.08-16.55-88.48-33.19-107.37-51.14,3.56,11.63,13.42,25.84,29.02,42.43Z"/>
  </g>
  <path id="land11" class="cls-16" d="M1296,927.23c-73.26-52.46-127.07-29.57-179.11-1.73s-129.02,49.5-178.54,40.24-157.6-18.28-210.57,66.46l184.55,44.56,383.67-47.65v-101.89Z"/>
  <path id="land10" class="cls-27" d="M0,886.14c89.97-20.98,189.03,8.23,251.25,39.09s106.61,10.85,147.95,13,99.4,10.71,145.57,35.09,174.53,44.94,229.68,39.31,183.91,70.48,183.91,70.48H0s0-196.97,0-196.97Z"/>
  <path id="land9" class="cls-15" d="M1296,1009.66v73.46h-404.2c189-57.86,299.31-109.54,404.2-73.46Z"/>
  <g id="land8">
    <path id="land" class="cls-21" d="M0,977.69c60.24-27.26,177.71,20.57,219.63,26.74s100.54-4.63,124.46,0,66.05,30.68,90.51,33.74,95.63,2.37,115.43,7.43,55.25,19.49,76.91,37.51H0s0-105.42,0-105.42Z"/>
    <path id="shadow" class="cls-25" d="M0,1188.54c60.24,27.26,177.71-20.57,219.63-26.74s100.54,4.63,124.46,0,66.05-23.68,90.51-26.74,96.63-15.37,116.43-20.43,54.25-13.49,75.91-31.51H0s0,105.42,0,105.42Z"/>
  </g>
  <g id="land7">
    <path id="shadow-2" data-name="shadow" class="cls-30" d="M1296,1641.66c-109.51,67.79-177.4-45.44-256.09-47.84s-189.77,39.71-253.03,14.17-73.29-69.55-109.54-83.56c-36.26-14.01-78.63-4.19-113.4-15.18s-162.77-67.7-159.69-77.91,891.74-3,891.74-3v213.32Z"/>
    <path id="land-2" data-name="land" class="cls-10" d="M1296,1221.13c-109.51-67.79-177.4,45.44-256.09,47.84s-189.77-39.71-253.03-14.17-73.29,69.55-109.54,83.56c-36.26,14.01-78.63,4.19-113.4,15.18s-162.77,67.7-159.69,77.91,891.74,3,891.74,3v-213.32Z"/>
  </g>
  <g id="land6">
    <path id="shadow-3" data-name="shadow" class="cls-30" d="M0,1438.94c91.06,79.55,191.61-24.22,219.63-34.91s134.24-30.77,189.26-79.99c0,0,94.89-21.29,93.6-27.72s-502.49,0-502.49,0v142.62Z"/>
    <path id="land-3" data-name="land" class="cls-2" d="M0,1153.92c91.06-79.55,191.61,24.22,219.63,34.91s134.24,30.77,189.26,79.99c0,0,94.89,21.29,93.6,27.72s-502.49,0-502.49,0v-142.62Z"/>
  </g>
  <g id="trees">
    <path id="ltree" class="cls-31" d="M0,1516.42v-121.74l21.03-44.27c-29.88,3.87,21.77-160.39,35.41-161.58,13.65-1.19,66.96,170.43,37.63,163.79,10.96,21.37,18.9,43.56,24.35,66.4,1.86-42.02,28.22-130.59,39.84-131.7s58.66,152.17,30.14,141.66c0,0,27.96,82.45,35.15,106.24,7.19,23.79-13.7,41.03-35.15,44.27L0,1516.42Z"/>
    <path id="rtree" class="cls-20" d="M1296,1246.42s-37.53-133.59-42.76-133.59-40.21,136.33-39.95,146.36,3.59,9.34,8.49,11.57l-20.06,46.62s-21.05-83.25-28.02-83.25-60.95,161.09-59.92,170.86,0,56.55,0,56.55l182.23-4.87v-210.25"/>
  </g>
  <path id="land1" class="cls-28" d="M1094.86,1452.42c0,28-17.97,50.69-40.13,50.69-5.24,0-10.24-1.27-14.83-3.57-8.84,32.81-40.11,57.06-77.33,57.06-25.19,0-47.65-11.11-62.28-28.46-15.67,27.63-47.1,46.49-83.31,46.49-12.38,0-24.19-2.2-35.01-6.22-10.72,42.03-48.83,73.11-94.19,73.11-53.68,0-97.2-43.52-97.2-97.2s42.33-96,94.99-97.17c8.06-28.78,28.2-49.18,51.77-49.18,12.38,0,23.82,5.63,33.05,15.14,13.73-7.24,29.63-11.37,46.59-11.37,32.53,0,61.19,15.21,78.05,38.33,14.13-21.32,39.1-35.48,67.54-35.48,22.42,0,42.68,8.8,57.18,22.97,6.89-15.41,19.97-25.82,34.98-25.82,22.16,0,40.13,22.69,40.13,50.68Z"/>
  <path id="land3" class="cls-5" d="M577.83,1728c-31.03-93.12-85.31-153.75-185.91-149.63-38.98-109.92-210.34-89.49-244.54-37.8l77.63,187.43h352.83Z"/>
  <path id="land2" class="cls-12" d="M0,1728v-217.51c133.49-51.69,225.09,67.86,259.03,84.06,33.94,16.2,205.38-5.72,236.26,133.46H0Z"/>
  <g id="tree">
    <path class="cls-17" d="M1296,750.92c-40.26-79.41-83.66-75.1-114.85-80.77s-109.63-11.15-168.5-27.27v-10.8c55.22,11.39,108.67,17.01,159.94,15.43-26.31-73.26-146.57-149.14-171.77-154.29-25.2-5.14-65.19-29.76-76.63-29.83s-32.14-1.29-48.34,14.4l-2.57-6.17c7.16-7.43,14.93-12.81,23.66-14.91-30.69-6.68-59.56-18.45-86.91-34.46l7.2-7.2c42.17,26.74,162.09,56.51,169.11,47.94s-81.4-80.11-127.46-123.03l5.14-3.6c113.56,102.27,251.9,212.62,402.17,312.17-39.09-69.32-92.74-174.51-100.8-217.03-8.06-42.51-120.08-143.62-164.57-153.26-37.46-8.12-86.82-12.12-141.94-33.94v-8.23c43.18,14.58,84.96,22.99,124.97,23.66-31.85-49.47-80.58-91.92-138.34-130.63l5.14-6.69c63.11,36.6,115.4,82.49,154.29,139.89,48.95,22.5,109.68,80.43,168.17,131.66,1.49-69.28-9.66-150.61-26.74-237.6l6.69-3.09c10.28,29,17.08,66.68,22.63,107.49,3.26-9.07,8.08-12.99,14.91-10.29l3.6,9.77c-7.03.72-11.41,5.68-14.4,12.86,0,0,10.46,103.2,23.14,156.86,12.69,53.66,45.34,133.18,93.06,186.69v134.27Z"/>
    <g id="flower">
      <path id="petal" class="cls-13" d="M967.91,191.09s4.04,7.48,9.69,6.69c7.22-1.02,10.97-24,3.43-42.94,13.71,9.94,35.74-.34,37.03-5.91s-1.94-7.3-4.89-10.29c4.25-.1,8.74-1.54,8.74-5.4s-16.97-25.2-41.66-14.4c14.83-15.77,10.57-35.48,4.37-38.31-3.53-1.61-9,2.31-9,2.31-.25-4.98-.03-9.09-6.37-11.57s-25.86,12.34-25.26,32.4c-14.57-19.46-27.14-16.77-35.09-14.6s-6.42,9.48-1.94,12.03c-4.84-.5-9.77-1.46-12.09,1.54s2.49,27.51,24.17,33.69c-20.57,8.23-26.23,31.11-22.37,33.94s7.66,1.08,13.6-2.18c-3.91,4.67-6.94,13.9-2.86,15.24s30.91-2.09,36.83-21.54c-4.03,19.11,9.51,35.14,13.97,36s9.15-3.4,9.69-6.69Z"/>
      <g id="dots">
        <circle id="dot" class="cls-8" cx="950.07" cy="143.24" r="3.69"/>
        <circle id="dot-2" data-name="dot" class="cls-8" cx="961.9" cy="137.24" r="3.69"/>
        <circle id="dot-3" data-name="dot" class="cls-8" cx="962.25" cy="124.99" r="3.69"/>
        <circle id="dot-4" data-name="dot" class="cls-8" cx="940.9" cy="133.56" r="3.69"/>
        <circle id="dot-5" data-name="dot" class="cls-8" cx="949.3" cy="122.07" r="3.69"/>
        <circle id="dot-6" data-name="dot" class="cls-8" cx="952.99" cy="131.5" r="3.69"/>
      </g>
    </g>
    <g id="flower-2" data-name="flower">
      <path id="petal-2" data-name="petal" class="cls-13" d="M773.8,461.64s4.04,7.48,9.69,6.69c7.22-1.02,10.97-24,3.43-42.94,13.71,9.94,35.74-.34,37.03-5.91s-1.94-7.3-4.89-10.29c4.25-.1,8.74-1.54,8.74-5.4s-16.97-25.2-41.66-14.4c14.83-15.77,10.57-35.48,4.37-38.31-3.53-1.61-9,2.31-9,2.31-.25-4.98-.03-9.09-6.37-11.57s-25.86,12.34-25.26,32.4c-14.57-19.46-27.14-16.77-35.09-14.6s-6.42,9.48-1.94,12.03c-4.84-.5-9.77-1.46-12.09,1.54s2.49,27.51,24.17,33.69c-20.57,8.23-26.23,31.11-22.37,33.94s7.66,1.08,13.6-2.18c-3.91,4.67-6.94,13.9-2.86,15.24s30.91-2.09,36.83-21.54c-4.03,19.11,9.51,35.14,13.97,36s9.15-3.4,9.69-6.69Z"/>
      <g id="dots-2" data-name="dots">
        <circle id="dot-7" data-name="dot" class="cls-8" cx="755.96" cy="413.8" r="3.69"/>
        <circle id="dot-8" data-name="dot" class="cls-8" cx="767.79" cy="407.8" r="3.69"/>
        <circle id="dot-9" data-name="dot" class="cls-8" cx="768.13" cy="395.54" r="3.69"/>
        <circle id="dot-10" data-name="dot" class="cls-8" cx="746.79" cy="404.11" r="3.69"/>
        <circle id="dot-11" data-name="dot" class="cls-8" cx="755.19" cy="392.63" r="3.69"/>
        <circle id="dot-12" data-name="dot" class="cls-8" cx="758.88" cy="402.06" r="3.69"/>
      </g>
    </g>
    <g id="flower-3" data-name="flower">
      <path id="petal-3" data-name="petal" class="cls-13" d="M1130.91,174.52s-.24,8.5,5.05,10.63c6.76,2.73,21.5-15.3,24.44-35.48,6.91,15.47,31.13,17.57,35.02,13.39s1.98-7.29.91-11.35c3.74,2.04,8.34,3.04,10.27-.31,1.93-3.34-2.1-30.31-28.88-33.3,20.73-6.24,26.89-25.44,22.94-31-2.25-3.16-8.95-2.5-8.95-2.5,2.27-4.44,4.52-7.88.27-13.21s-28.56-2.24-38.07,15.43c-2.89-24.14-15.12-28.1-23.09-30.19-7.96-2.09-10.3,5-7.7,9.45-3.94-2.85-7.73-6.15-11.24-4.71s-11.6,25.07,4.09,41.26c-21.93-3.16-38.27,13.83-36.35,18.21s6.09,4.76,12.87,4.91c-5.72,2.08-12.96,8.56-10.09,11.77s27.82,13.65,42.67-.24c-13.05,14.54-9.33,35.19-5.9,38.16,3.43,2.97,9.62,1.63,11.73-.95Z"/>
      <g id="dots-3" data-name="dots">
        <circle id="dot-13" data-name="dot" class="cls-8" cx="1139.38" cy="124.16" r="3.69"/>
        <circle id="dot-14" data-name="dot" class="cls-8" cx="1152.62" cy="124.88" r="3.69"/>
        <circle id="dot-15" data-name="dot" class="cls-8" cx="1159.05" cy="114.44" r="3.69"/>
        <circle id="dot-16" data-name="dot" class="cls-8" cx="1136.28" cy="111.19" r="3.69"/>
        <circle id="dot-17" data-name="dot" class="cls-8" cx="1149.3" cy="105.44" r="3.69"/>
        <circle id="dot-18" data-name="dot" class="cls-8" cx="1147.77" cy="115.45" r="3.69"/>
      </g>
    </g>
    <g id="flower-4" data-name="flower">
      <path id="petal-4" data-name="petal" class="cls-13" d="M864.55,247.49s7.91,3.13,11.72-1.1c4.87-5.42-7.02-25.44-24.98-35.1,16.9-1.2,27.16-23.24,24.56-28.33-2.6-5.09-6.18-4.35-10.35-4.74,3.19-2.81,5.71-6.8,3.23-9.76s-29.2-8.4-41.17,15.75c1.22-21.61-14.71-33.97-21.28-32.16-3.74,1.03-5.41,7.56-5.41,7.56-3.39-3.65-5.86-6.94-12.32-4.77s-11.87,26.08,1.48,41.05c-23.67-5.54-31.57,4.6-36.26,11.37-4.69,6.77,1.18,11.39,6.24,10.46-4.02,2.73-8.42,5.16-8.27,8.95s19.59,19.48,40.17,10.27c-10.47,19.53-.09,40.69,4.68,40.38s6.56-4.1,9.02-10.41c0,6.09,3.61,15.11,7.61,13.51s22.34-21.47,14.36-40.18c9.2,17.23,29.88,20.81,33.84,18.6s4.82-8.49,3.12-11.35Z"/>
      <g id="dots-4" data-name="dots">
        <circle id="dot-19" data-name="dot" class="cls-8" cx="820.13" cy="222.31" r="3.69"/>
        <circle id="dot-20" data-name="dot" class="cls-8" cx="825.34" cy="210.11" r="3.69"/>
        <circle id="dot-21" data-name="dot" class="cls-8" cx="817.72" cy="200.5" r="3.69"/>
        <circle id="dot-22" data-name="dot" class="cls-8" cx="806.88" cy="220.78" r="3.69"/>
        <circle id="dot-23" data-name="dot" class="cls-8" cx="805.93" cy="206.59" r="3.69"/>
        <circle id="dot-24" data-name="dot" class="cls-8" cx="814.82" cy="211.44" r="3.69"/>
      </g>
    </g>
    <g id="flower-5" data-name="flower">
      <path id="petal-5" data-name="petal" class="cls-13" d="M1108.71,324.78s7.24,4.46,11.73.95c5.74-4.5-2.5-26.27-18.5-38.9,16.85,1.75,30.78-18.17,29.11-23.64-1.67-5.47-5.33-5.36-9.37-6.46,3.63-2.22,6.8-5.71,4.87-9.05-1.93-3.34-27.3-13.34-43.28,8.36,4.96-21.07-8.59-36.01-15.37-35.37-3.86.37-6.64,6.5-6.64,6.5-2.71-4.18-4.57-7.85-11.3-6.84s-16.22,23.62-5.67,40.69c-22.35-9.56-31.89-.95-37.69,4.9-5.79,5.85-.82,11.42,4.33,11.39-4.44,1.99-9.19,3.62-9.7,7.38-.5,3.76,15.91,22.59,37.78,17.09-13.7,17.41-7.16,40.06-2.4,40.58s7.17-2.9,10.69-8.69c-1.05,6,.93,15.51,5.14,14.63s25.73-17.26,21.12-37.07c6.07,18.57,25.81,25.68,30.1,24.19,4.29-1.49,6.22-7.52,5.05-10.63Z"/>
      <g id="dots-5" data-name="dots">
        <circle id="dot-25" data-name="dot" class="cls-8" cx="1069.34" cy="292.26" r="3.69"/>
        <circle id="dot-26" data-name="dot" class="cls-8" cx="1076.58" cy="281.15" r="3.69"/>
        <circle id="dot-27" data-name="dot" class="cls-8" cx="1070.75" cy="270.37" r="3.69"/>
        <circle id="dot-28" data-name="dot" class="cls-8" cx="1056.55" cy="288.46" r="3.69"/>
        <circle id="dot-29" data-name="dot" class="cls-8" cx="1058.08" cy="274.31" r="3.69"/>
        <circle id="dot-30" data-name="dot" class="cls-8" cx="1065.99" cy="280.64" r="3.69"/>
      </g>
    </g>
    <g id="flower-6" data-name="flower">
      <path id="petal-6" data-name="petal" class="cls-13" d="M964.37,449.28s4.04,7.48,9.69,6.69c7.22-1.02,10.97-24,3.43-42.94,13.71,9.94,35.74-.34,37.03-5.91s-1.94-7.3-4.89-10.29c4.25-.1,8.74-1.54,8.74-5.4s-16.97-25.2-41.66-14.4c14.83-15.77,10.57-35.48,4.37-38.31-3.53-1.61-9,2.31-9,2.31-.25-4.98-.03-9.09-6.37-11.57s-25.86,12.34-25.26,32.4c-14.57-19.46-27.14-16.77-35.09-14.6s-6.42,9.48-1.94,12.03c-4.84-.5-9.77-1.46-12.09,1.54s2.49,27.51,24.17,33.69c-20.57,8.23-26.23,31.11-22.37,33.94s7.66,1.08,13.6-2.18c-3.91,4.67-6.94,13.9-2.86,15.24s30.91-2.09,36.83-21.54c-4.03,19.11,9.51,35.14,13.97,36s9.15-3.4,9.69-6.69Z"/>
      <g id="dots-6" data-name="dots">
        <circle id="dot-31" data-name="dot" class="cls-8" cx="946.53" cy="401.44" r="3.69"/>
        <circle id="dot-32" data-name="dot" class="cls-8" cx="958.35" cy="395.44" r="3.69"/>
        <circle id="dot-33" data-name="dot" class="cls-8" cx="958.7" cy="383.18" r="3.69"/>
        <circle id="dot-34" data-name="dot" class="cls-8" cx="937.35" cy="391.75" r="3.69"/>
        <circle id="dot-35" data-name="dot" class="cls-8" cx="945.75" cy="380.27" r="3.69"/>
        <circle id="dot-36" data-name="dot" class="cls-8" cx="949.44" cy="389.7" r="3.69"/>
      </g>
    </g>
    <g id="flower-7" data-name="flower">
      <path id="petal-7" data-name="petal" class="cls-13" d="M1021.02,580.34s4.46-7.24.95-11.73c-4.5-5.74-26.27,2.5-38.9,18.5,1.75-16.85-18.17-30.78-23.64-29.11s-5.36,5.33-6.46,9.37c-2.22-3.63-5.71-6.8-9.05-4.87s-13.34,27.3,8.36,43.28c-21.07-4.96-36.01,8.59-35.37,15.37.37,3.86,6.5,6.64,6.5,6.64-4.18,2.71-7.85,4.57-6.84,11.3s23.62,16.22,40.69,5.67c-9.56,22.35-.95,31.89,4.9,37.69,5.85,5.79,11.42.82,11.39-4.33,1.99,4.44,3.62,9.19,7.38,9.7s22.59-15.91,17.09-37.78c17.41,13.7,40.06,7.16,40.58,2.4.52-4.75-2.9-7.17-8.69-10.69,6,1.05,15.51-.93,14.63-5.14s-17.26-25.73-37.07-21.12c18.57-6.07,25.68-25.81,24.19-30.1-1.49-4.29-7.52-6.22-10.63-5.05Z"/>
      <g id="dots-7" data-name="dots">
        <circle id="dot-37" data-name="dot" class="cls-8" cx="988.51" cy="619.71" r="3.69"/>
        <circle id="dot-38" data-name="dot" class="cls-8" cx="977.4" cy="612.47" r="3.69"/>
        <circle id="dot-39" data-name="dot" class="cls-8" cx="966.61" cy="618.3" r="3.69"/>
        <circle id="dot-40" data-name="dot" class="cls-8" cx="984.71" cy="632.5" r="3.69"/>
        <circle id="dot-41" data-name="dot" class="cls-8" cx="970.56" cy="630.96" r="3.69"/>
        <circle id="dot-42" data-name="dot" class="cls-8" cx="976.88" cy="623.06" r="3.69"/>
      </g>
    </g>
    <g id="flower-8" data-name="flower">
      <path id="petal-8" data-name="petal" class="cls-13" d="M1170.42,573.96s7.91,3.13,11.72-1.1c4.87-5.42-7.02-25.44-24.98-35.1,16.9-1.2,27.16-23.24,24.56-28.33-2.6-5.09-6.18-4.35-10.35-4.74,3.19-2.81,5.71-6.8,3.23-9.76-2.48-2.95-29.2-8.4-41.17,15.75,1.22-21.61-14.71-33.97-21.28-32.16-3.74,1.03-5.41,7.56-5.41,7.56-3.39-3.65-5.86-6.94-12.32-4.77s-11.87,26.08,1.48,41.05c-23.67-5.54-31.57,4.6-36.26,11.37-4.69,6.77,1.18,11.39,6.24,10.46-4.02,2.73-8.42,5.16-8.27,8.95.16,3.79,19.59,19.48,40.17,10.27-10.47,19.53-.09,40.69,4.68,40.38s6.56-4.1,9.02-10.41c0,6.09,3.61,15.11,7.61,13.51s22.34-21.47,14.36-40.18c9.2,17.23,29.88,20.81,33.84,18.6s4.82-8.49,3.12-11.35Z"/>
      <g id="dots-8" data-name="dots">
        <circle id="dot-43" data-name="dot" class="cls-8" cx="1126" cy="548.78" r="3.69"/>
        <circle id="dot-44" data-name="dot" class="cls-8" cx="1131.21" cy="536.58" r="3.69"/>
        <circle id="dot-45" data-name="dot" class="cls-8" cx="1123.59" cy="526.97" r="3.69"/>
        <circle id="dot-46" data-name="dot" class="cls-8" cx="1112.75" cy="547.26" r="3.69"/>
        <circle id="dot-47" data-name="dot" class="cls-8" cx="1111.8" cy="533.06" r="3.69"/>
        <circle id="dot-48" data-name="dot" class="cls-8" cx="1120.69" cy="537.91" r="3.69"/>
      </g>
    </g>
    <path id="pod" class="cls-13" d="M1181.25,249.37c.66,5.35,8.41,16.29,14.06,16.29s44.49-24.99,26.57-41.49c-17.91-16.5-41.3,19.85-40.63,25.2Z"/>
    <path id="pod-2" data-name="pod" class="cls-13" d="M874.35,335.77c-.66,5.35-8.41,16.29-14.06,16.29s-44.49-24.99-26.58-41.49,41.3,19.85,40.64,25.2Z"/>
    <path id="pod-3" data-name="pod" class="cls-13" d="M881.55,477.46c-.66-5.35-8.41-16.29-14.06-16.29s-44.49,24.99-26.58,41.49,41.3-19.85,40.64-25.2Z"/>
    <path id="pod-4" data-name="pod" class="cls-13" d="M855.52,121.03c-.66,5.35-8.41,16.29-14.06,16.29s-44.49-24.99-26.58-41.49,41.3,19.85,40.64,25.2Z"/>
    <path id="pod-5" data-name="pod" class="cls-13" d="M1091.99,767.21c-.66-5.35-8.41-16.29-14.06-16.29s-44.49,24.99-26.58,41.49,41.3-19.85,40.64-25.2Z"/>
  </g>
  <g id="base">
    <path class="cls-32" d="M1094.43,1519.74h-260.44c38.4-16.21,62.88-38.39,67.81-67.37h176.69l15.94,67.37Z"/>
    <path class="cls-4" d="M901.8,1452.37c-4.93,28.98-29.41,51.16-67.81,67.37h-124.76c8.74-38.29,46.28-67.37,86.4-67.37h106.17Z"/>
  </g>
  <path id="land5" class="cls-7" d="M1296,1394c-143.46-43.97-252.94,89.23-353,115.71s-338.69-111.86-500.4,218.29h853.4v-334Z"/>
  <path id="land4" class="cls-22" d="M650,1728h646v-237.57c-162.74-41.66-178.43,73.86-273.06,98.39s-220.11-63.93-372.94,139.18Z"/>
  <g id="house">
    <g id="floor1">
      <g id="right">
        <path class="cls-33" d="M1103.69,1351.56v9c0,5.23-56.89,10.68-92.32,11.57v85.12l-113.48,8.65-5.26-88.39c-16.86.91-39.27-2.15-62.29-5.63,24.52.37,48.98.7,59.4-7.46v-16l213.95,3.14Z"/>
        <rect class="cls-19" x="914.95" y="1391.2" width="17.14" height="35.83"/>
        <polygon class="cls-23" points="969.11 1390.83 969.89 1460.43 945.46 1462.3 945.46 1391.2 969.11 1390.83"/>
        <rect class="cls-19" x="983.64" y="1391.2" width="14.4" height="35.83"/>
      </g>
      <g id="left">
        <path class="cls-6" d="M897.89,1465.91l-100.98-12.51v-84.6c-30.8-.88-78-9.61-78.94-13.89s0-9,0-9l171.77,2.52v16c-10.42,8.16-34.88,7.83-59.4,7.46,23.02,3.48,45.43,6.54,62.29,5.63l5.26,88.39Z"/>
        <polygon class="cls-14" points="823.91 1388.55 823.91 1429.88 800.88 1428.51 800.88 1387.03 823.91 1388.55"/>
        <polyline class="cls-14" points="861.63 1434.2 861.63 1392.37 886.31 1393.75 886.31 1435.66"/>
        <polygon class="cls-23" points="857.89 1390.68 857.89 1460.68 827.54 1457.17 827.71 1388.6 857.89 1390.68"/>
      </g>
    </g>
    <g id="floor2">
      <g id="left-2" data-name="left">
        <rect class="cls-33" x="877.09" y="1273.92" width="20.92" height="17.14"/>
        <path class="cls-6" d="M891.99,1234.71l-66.57-3.48,65.83-9.6v-14.4l-155.31,3.09v9.94c20.94,7.04,48.69,11.02,81.26,12.83v35.17h-21.6v34.97h98.4v-15.77h-13.55v-11.66h13.55v-5.48h10.28v-34.97l-12.29-.64ZM816.32,1287.46h-13.87v-11.66h13.87v11.66ZM838.37,1287.46h-12.05v-11.66h12.05v11.66ZM849.25,1287.46v-11.66h21.33v11.66h-21.33Z"/>
        <rect class="cls-23" x="849.25" y="1275.8" width="17.77" height="11.66"/>
        <rect class="cls-14" x="867.02" y="1275.8" width="3.56" height="11.66"/>
        <polygon class="cls-14" points="845.34 1243 845.34 1268.26 826.02 1268.26 825.71 1241.95 845.34 1243"/>
        <polygon class="cls-14" points="838.37 1275.8 838.37 1287.46 826.25 1287.46 826.11 1275.8 838.37 1275.8"/>
        <polygon class="cls-14" points="887.94 1245.29 886.68 1268.26 867.02 1268.26 867.02 1244.17 887.94 1245.29"/>
        <polygon class="cls-23" points="867.02 1244.17 867.02 1268.26 845.34 1268.26 845.34 1243 867.02 1244.17"/>
      </g>
      <g id="right-2" data-name="right">
        <polygon class="cls-6" points="998.6 1291.4 896.69 1291.23 896.69 1273.75 998.6 1273.92 998.6 1291.4"/>
        <path class="cls-33" d="M1084.31,1221.8v-11.48l-194.06-3.09v14.4l-65.83,9.6,66.57,3.48,12.29.64v34.97h-10.28v5.48h27.75v11.66h-27.75v15.77h133.71l-.85-34.97h-23.83v-34.97c32.57-1.57,62.68-4.22,82.29-11.49ZM957.55,1287.46h-25.87v-11.66h25.87v11.66ZM988.41,1287.46h-19.87v-11.66h19.87v11.66ZM1015.74,1275.8v11.66h-14.79v-11.66h14.79Z"/>
        <rect class="cls-19" x="909.91" y="1275.8" width="10.84" height="11.66"/>
        <polygon class="cls-19" points="927.05 1244.6 927.05 1269.84 909.91 1270.2 909.91 1244.6 927.05 1244.6"/>
        <polygon class="cls-19" points="961.12 1244.6 961.12 1269.12 944.42 1269.47 944.42 1244.6 961.12 1244.6"/>
        <rect class="cls-19" x="975.6" y="1275.8" width="12.81" height="11.66"/>
        <polygon class="cls-19" points="990 1244.6 990 1268.51 975.6 1268.82 975.6 1244.6 990 1244.6"/>
        <rect class="cls-19" x="944.42" y="1275.8" width="13.13" height="11.66"/>
      </g>
    </g>
    <g id="floor3">
      <g id="left-3" data-name="left">
        <rect class="cls-33" x="881.92" y="1147.28" width="18.01" height="14.76"/>
        <path class="cls-6" d="M894.76,1113.52l-57.33-3,56.69-8.27v-27.88l-133.75,18.14v8.56c18.03,6.06,41.93,9.49,69.98,11.05v30.29l-21.35.54.15,29.58h87.35v-13.58h-11.67v-10.04h11.67v-4.72h8.85v-30.11l-10.58-.55ZM829.6,1158.94h-11.94v-10.04h11.94v10.04ZM848.59,1158.94h-10.38v-10.04h10.38v10.04ZM857.95,1158.94v-10.04h18.37v10.04h-18.37Z"/>
        <rect class="cls-23" x="857.95" y="1148.9" width="15.3" height="10.04"/>
        <rect class="cls-14" x="873.26" y="1148.9" width="3.07" height="10.04"/>
        <polygon class="cls-14" points="854.59 1120.66 854.59 1142.41 837.95 1142.41 837.68 1119.75 854.59 1120.66"/>
        <polygon class="cls-14" points="848.59 1148.9 848.59 1158.94 838.15 1158.94 838.03 1148.9 848.59 1148.9"/>
        <polygon class="cls-14" points="891.27 1122.63 890.19 1142.41 873.26 1142.41 873.26 1121.66 891.27 1122.63"/>
        <polygon class="cls-23" points="873.26 1121.66 873.26 1142.41 854.59 1142.41 854.59 1120.66 873.26 1121.66"/>
      </g>
      <g id="right-3" data-name="right">
        <polygon class="cls-6" points="986.56 1162.34 898.8 1162.19 898.8 1147.13 986.56 1147.28 986.56 1162.34"/>
        <path class="cls-33" d="M1060.38,1102.4v-9.89l-167.12-18.14v27.88l-56.69,8.27,57.33,3,10.58.55v30.11h-8.85v4.72h23.9v10.04h-23.9v13.58h115.14l-.73-30.11h-20.52v-30.11c28.05-1.35,53.98-3.63,70.86-9.89ZM951.22,1158.94h-22.28v-10.04h22.28v10.04ZM977.79,1158.94h-17.11v-10.04h17.11v10.04ZM1001.33,1148.9v10.04h-12.74v-10.04h12.74Z"/>
        <rect class="cls-19" x="910.19" y="1148.9" width="9.33" height="10.04"/>
        <polygon class="cls-19" points="924.95 1122.03 924.95 1143.77 910.19 1144.08 910.19 1122.03 924.95 1122.03"/>
        <polygon class="cls-19" points="954.29 1122.03 954.29 1143.15 939.91 1143.45 939.91 1122.03 954.29 1122.03"/>
        <rect class="cls-19" x="966.76" y="1148.9" width="11.03" height="10.04"/>
        <polygon class="cls-19" points="979.16 1122.03 979.16 1142.62 966.76 1142.89 966.76 1122.03 979.16 1122.03"/>
        <rect class="cls-19" x="939.91" y="1148.9" width="11.31" height="10.04"/>
      </g>
    </g>
    <path id="tower" class="cls-20" d="M933.83,1004.56v18.64h-50.92v-18.64h13.38c0-5.43,3.87-9.96,9-10.97v-16.76c-4.06-.48-7.07-2.26-7.07-4.37s3.01-3.9,7.07-4.37v-5.19c-4.06-.48-7.07-2.26-7.07-4.37s3.01-3.9,7.07-4.37v-7.5c-3.76-.57-6.47-2.27-6.47-4.29s2.71-3.72,6.47-4.29v-7.5c-4.06-.47-7.07-2.25-7.07-4.37s3.01-3.89,7.07-4.37v-6.26c-4.06-.47-7.07-2.25-7.07-4.37s3.01-3.89,7.07-4.37v-5.14c-4.06-.48-7.07-2.26-7.07-4.37s3.01-3.9,7.07-4.37v-5.15c-4.06-.47-7.07-2.25-7.07-4.37s3.01-3.89,7.07-4.37v-23.66c.06-2.44,4.37-2.5,4.37,0v23.66c4.06.47,7.07,2.25,7.07,4.37s-3.01,3.9-7.07,4.37v5.15c4.06.47,7.07,2.25,7.07,4.37s-3.01,3.9-7.07,4.37v5.14c4.06.47,7.07,2.25,7.07,4.37s-3.01,3.9-7.07,4.37v6.26c4.06.47,7.07,2.25,7.07,4.37s-3.01,3.9-7.07,4.37v7.36c4.36.36,7.67,2.2,7.67,4.43s-3.31,4.07-7.67,4.43v7.36c4.06.47,7.07,2.25,7.07,4.37s-3.01,3.9-7.07,4.37v5.19c4.06.47,7.07,2.25,7.07,4.37s-3.01,3.9-7.07,4.37v16.76c5.13,1.01,9,5.54,9,10.97h15.17Z"/>
    <g id="roof3">
      <path class="cls-32" d="M1077.57,1077.97c0,29.58-134.73,24.18-184.18,4.89-53.16,27.26-150.36,22.89-156.02-5.14,2.99-.05,5.93-.15,8.82-.32,18.78,26.76,156.26,32.61,161.28-54.2h26.36c43.97,30.86,90.77,52.47,143.74,54.77Z"/>
      <path class="cls-4" d="M907.47,1023.2c-5.02,86.81-142.5,80.96-161.28,54.2,60.56-3.3,99.9-29.9,136.72-54.2h24.56Z"/>
    </g>
    <g id="roof2">
      <path class="cls-32" d="M1078.41,1215.37c-26.01,8.11-139.14,20.82-188.76-2.94-32.77,20.75-170.72,8.35-162.59-13.3.25.02.48.03.72.04,16.88,11.64,95.65,22.64,130.98,14.7,28.89-6.5,36.75-29.54,38.89-41.34h113.25c28.4,15.77,56.65,28.62,84.19,27.06,0,0,9.32,7.67-16.68,15.79Z"/>
      <path class="cls-4" d="M897.65,1172.52c-2.14,11.8-10.01,34.84-38.89,41.34-35.33,7.95-114.1-3.06-130.98-14.7,25.92,1.42,46.13-6.51,64.37-16.58,5.82-3.22,11.45-6.65,17-10.07h88.51Z"/>
    </g>
    <g id="roof1">
      <path class="cls-32" d="M1103.69,1352.09c-29.66,9.25-158.66,23.74-215.23-3.35-37.37,23.66-194.66,9.52-185.4-15.17.28.02.55.03.82.04,19.25,13.27,109.07,25.82,149.35,16.76,32.94-7.41,41.91-33.68,44.35-47.14h129.13c32.38,17.98,64.59,32.63,96,30.86,0,0,10.63,8.75-19.02,18Z"/>
      <path class="cls-4" d="M897.58,1303.23c-2.44,13.46-11.41,39.73-44.35,47.14-40.28,9.06-130.1-3.49-149.35-16.76,29.56,1.62,52.6-7.42,73.4-18.9,6.64-3.67,13.06-7.58,19.38-11.48h100.92Z"/>
    </g>
  </g>
  <circle id="sun" class="cls-1" cx="292.86" cy="451.44" r="105.49"/>
</svg>