<?xml version="1.0" encoding="UTF-8" standalone="no"?>
<!-- Created with Inkscape (http://www.inkscape.org/) -->

<svg
   width="5000"
   height="5000"
   viewBox="0 0 1322.9166 1322.9166"
   version="1.1"
   id="svg5"
   xmlns="http://www.w3.org/2000/svg"
   xmlns:svg="http://www.w3.org/2000/svg">
  <defs
     id="defs2" />
  <g
     id="g88001">
    <rect
       style="fill:#67d4ff;fill-opacity:1;stroke-width:76.9993;stroke-linecap:round;stroke-linejoin:round;stroke-dasharray:307.996, 307.996;stroke-dashoffset:754.592"
       id="rect41"
       width="1322.8901"
       height="1322.9166"
       x="-1.2988281e-05"
       y="-9.3544464" />
    <rect
       style="fill:#aad400;fill-opacity:1;stroke-width:9.46997;stroke-linecap:round;stroke-linejoin:round;stroke-dasharray:37.8799, 37.8799;stroke-dashoffset:92.8054"
       id="rect33596"
       width="1322.8901"
       height="20.010395"
       x="0"
       y="810.18982" />
    <circle
       style="fill:#ffce96;fill-opacity:1;stroke:none;stroke-width:112;stroke-linecap:round;stroke-linejoin:round;stroke-dasharray:447.998, 447.998;stroke-dashoffset:1097.6"
       id="path60734"
       cx="322.6666"
       cy="430.03644"
       r="183.71346" />
    <path
       id="path570"
       style="opacity:0.342949;fill:#ffffff;fill-opacity:1;stroke-width:0.237335px"
       d="m 1249.2529,354.32611 c -47.9869,0.55573 -95.7061,9.75207 -138.003,27.94558 -49.5452,21.31134 -90.097,53.61823 -132.72982,83.05797 -42.63281,29.43982 -89.99103,57.11026 -145.08262,65.96652 -28.61175,4.59952 -59.08521,3.76214 -85.98958,-5.32214 -19.32898,-6.52645 -36.2154,-17.05287 -51.25683,-28.80032 -15.0414,-11.74747 -28.42619,-24.77855 -42.47647,-37.2954 -14.05025,-12.51688 -28.91546,-24.6235 -46.28142,-34.06973 -17.3659,-9.44629 -37.48238,-16.16303 -58.42277,-16.92561 -20.46295,-0.74517 -40.88143,4.25804 -58.54062,12.61009 -17.65917,8.35205 -32.70337,19.93826 -45.6375,32.71893 -25.86834,25.56134 -43.55738,55.83391 -67.80104,82.40633 -31.62059,34.65795 -74.03393,62.45571 -120.81484,83.23161 -46.7809,20.77601 -97.90385,34.71138 -149.99135,44.30117 C 71.157435,670.60742 35.669901,675.03163 0,678.59313 v 47.39762 c 35.669911,-2.6375 71.157369,-5.91376 106.22504,-10.69494 52.08747,-7.10171 103.21042,-17.42109 149.99135,-32.8068 46.78094,-15.3856 89.19425,-35.97166 120.81484,-61.63756 24.24366,-19.67831 41.9327,-42.09675 67.80104,-61.02625 12.93413,-9.46481 27.97833,-18.04493 45.6375,-24.23004 17.65919,-6.18506 38.07767,-9.88975 58.54062,-9.33794 20.94039,0.5647 41.05687,5.53868 58.42277,12.53411 17.36596,6.99539 32.23117,15.96059 46.28142,25.23 14.05028,9.26928 27.43507,18.91937 42.47647,27.61898 15.04143,8.6996 31.92785,16.49521 51.25683,21.3284 26.90437,6.7273 57.37783,7.34756 85.98958,3.94137 55.09159,-6.55849 102.44981,-27.0502 145.08262,-48.85179 42.63282,-21.80161 83.18462,-45.72627 132.72982,-61.5084 45.1167,-14.37142 96.4028,-21.16209 147.6024,-20.69227 21.5208,0.19746 43.0124,1.71223 64.0379,4.45141 V 360.34075 c -21.0255,-3.69887 -42.5171,-5.74437 -64.0379,-6.01101 -3.2,-0.0397 -6.4003,-0.0407 -9.5994,-0.004 z" />
    <rect
       style="fill:#cbecff;fill-opacity:1;stroke-width:6.31633;stroke-linecap:round;stroke-linejoin:round;stroke-dasharray:25.2653, 25.2653;stroke-dashoffset:61.8998"
       id="rect93486"
       width="1322.8901"
       height="8.9020061"
       x="0"
       y="832.11432" />
    <rect
       style="fill:#049acf;fill-opacity:1;stroke-width:46.4706;stroke-linecap:round;stroke-linejoin:round;stroke-dasharray:185.882, 185.882;stroke-dashoffset:455.411"
       id="rect81166"
       width="1322.8901"
       height="481.85342"
       x="0"
       y="841.06317" />
    <rect
       style="fill:#aadfff;fill-opacity:1;stroke-width:5.64196;stroke-linecap:round;stroke-linejoin:round;stroke-dasharray:22.5678, 22.5678;stroke-dashoffset:55.2911"
       id="rect3251"
       width="1322.8901"
       height="7.1026287"
       x="0"
       y="846.79388" />
    <rect
       style="fill:#aadfff;fill-opacity:1;stroke-width:4.24289;stroke-linecap:round;stroke-linejoin:round;stroke-dasharray:16.9715, 16.9715;stroke-dashoffset:41.5802"
       id="rect7759"
       width="1322.8901"
       height="4.0168166"
       x="0"
       y="863.15887" />
    <path
       id="path87167"
       style="fill:#fffbe1;fill-opacity:1;stroke-width:0.229017px"
       d="m 1258.8523,850.87728 c -51.1996,-0.59073 -102.4857,7.94749 -147.6024,26.01754 -49.5452,19.84378 -90.097,49.92585 -132.72982,77.3383 -42.63281,27.41249 -89.99103,53.17758 -145.08262,61.42398 -28.61175,4.2828 -59.08521,3.503 -85.98958,-4.9557 -19.32898,-6.0771 -36.2154,-15.87861 -51.25683,-26.8171 -15.0414,-10.93851 -28.42619,-23.07208 -42.47647,-34.72698 -14.05025,-11.65494 -28.91549,-22.92794 -46.28142,-31.72368 -17.3659,-8.79578 -37.48238,-15.04977 -58.42277,-15.75984 -20.46295,-0.69387 -40.88143,3.96446 -58.54062,11.74136 -17.65917,7.77691 -32.70335,18.5656 -45.6375,30.46616 -25.86834,23.80112 -43.55738,51.98906 -67.80104,76.73158 -31.62059,32.2714 -74.03393,58.1549 -120.81483,77.5001 -46.7809,19.3453 -97.9039,32.3211 -149.9914,41.2505 -35.0676,6.0117 -70.5551,10.131 -106.225,13.4472 v 170.1059 H 1322.8902 V 856.47421 c -21.0255,-3.44413 -42.5171,-5.34865 -64.0379,-5.59693 z" />
    <path
       id="path87172"
       style="fill:#0388d7;fill-opacity:1;stroke-width:0.204239px"
       d="m 1258.8523,947.49507 c -51.1996,-0.46981 -102.4857,6.32079 -147.6024,20.69223 -49.5452,15.78212 -90.097,39.707 -132.72982,61.5086 -42.63281,21.8016 -89.99103,42.2931 -145.08262,48.8516 -28.61175,3.4062 -59.08521,2.7859 -85.98958,-3.9414 -19.32898,-4.8332 -36.2154,-12.6285 -51.25683,-21.3281 -15.0414,-8.6996 -28.42619,-18.3497 -42.47647,-27.619 -14.05025,-9.2694 -28.91549,-18.235 -46.28142,-25.2304 -17.3659,-6.99543 -37.48238,-11.9694 -58.42277,-12.53411 -20.46295,-0.55181 -40.88143,3.15304 -58.54062,9.33808 -17.65917,6.18513 -32.70335,14.76553 -45.6375,24.23033 -25.86834,18.9295 -43.55738,41.3478 -67.80104,61.0261 -31.62059,25.6659 -74.0339,46.2517 -120.81484,61.6373 -46.78093,15.3857 -97.90387,25.7055 -149.99135,32.8072 C 71.157374,1181.7147 35.669911,1184.9908 0,1187.6283 v 135.2883 H 1322.8902 V 951.94642 c -21.0255,-2.73919 -42.5171,-4.25388 -64.0379,-4.45135 z" />
    <path
       id="path87182"
       style="fill:#0db2ef;fill-opacity:0.772;stroke-width:0.195418px"
       d="m 169.80461,1044.7061 c -20.50901,-0.1954 -40.8781,4.1324 -58.0781,10.3966 -19.65715,7.1591 -35.885789,16.7232 -52.195263,26.055 C 39.8511,1092.4181 19.799114,1103.5046 0,1114.7119 v 208.2047 h 1322.8902 v -224.8572 c -26.3018,-10.4272 -54.3923,-19.4 -84.3994,-26.3316 -38.9451,-8.9962 -80.8041,-14.4624 -123.0835,-15.0411 -42.2795,-0.5787 -84.9695,3.8027 -123.21985,13.646 -48.27016,12.4218 -87.83288,32.9386 -124.3893,54.1517 -36.55644,21.213 -71.33939,43.6295 -113.73569,61.3153 -72.13401,30.0908 -166.70257,44.9531 -256.17608,36.4932 -44.73675,-4.23 -87.74358,-14.1512 -123.89423,-29.1367 -36.15068,-14.9857 -65.31763,-35.0491 -82.9505,-57.8733 -13.6697,-17.6943 -20.43038,-36.8643 -35.63503,-54.1819 -7.60232,-8.6587 -17.38602,-16.8531 -30.28756,-23.3831 -12.90154,-6.53 -29.09083,-11.3324 -46.52532,-12.6436 -2.92674,-0.2201 -5.85927,-0.3402 -8.78913,-0.3682 z" />
    <path
       id="path87187"
       style="fill:#0388d7;fill-opacity:1;stroke-width:0.14457px"
       d="m 169.80461,1170.6515 c -20.50901,-0.107 -40.8781,2.2617 -58.0781,5.69 -19.65715,3.9182 -35.885789,9.1527 -52.195263,14.26 C 39.8511,1196.7643 19.799114,1202.832 0,1208.9657 v 113.9509 h 1322.8902 v -123.0647 c -26.3018,-5.7069 -54.3923,-10.6177 -84.3994,-14.4114 -38.9451,-4.9237 -80.8041,-7.9153 -123.0835,-8.2321 -42.2795,-0.3167 -84.9695,2.0812 -123.21985,7.4685 -48.27016,6.7986 -87.83288,18.0274 -124.3893,29.6373 -36.55644,11.61 -71.33939,23.8786 -113.73569,33.5581 -72.13401,16.4687 -166.70257,24.6029 -256.17608,19.9728 -44.73675,-2.3151 -87.74358,-7.745 -123.89423,-15.9467 -36.15068,-8.2016 -65.31763,-19.1824 -82.9505,-31.6741 -13.6697,-9.6841 -20.43038,-20.1759 -35.63503,-29.6538 -7.60232,-4.739 -17.38602,-9.2238 -30.28756,-12.7977 -12.90154,-3.5738 -29.09083,-6.2022 -46.52532,-6.9199 -2.92674,-0.1204 -5.85927,-0.1862 -8.78913,-0.2014 z" />
    <g
       id="g77339"
       transform="matrix(0.87153125,0,0,0.87153125,211.33139,31.751529)">
      <g
         id="g80447"
         transform="translate(-16.878073,-10.126844)">
        <path
           style="fill:#ffffff;fill-opacity:1;stroke:none;stroke-width:0.237282px;stroke-linecap:butt;stroke-linejoin:miter;stroke-opacity:1"
           d="m 459.85536,69.025709 c 1.66352,-0.817375 24.88339,40.854011 56.21416,111.215031 32.05094,71.97832 69.44007,168.05491 101.77522,282.99132 6.92319,24.60871 13.24451,48.76243 19.01079,72.39903 0,2e-5 0,3e-5 0,4e-5 23.87251,97.85648 37.21321,182.71978 44.60077,246.01964 7.27603,62.34421 8.6954,100.20562 7.05021,100.35679 -1.64519,0.15117 -6.07913,-37.39287 -15.64288,-99.1912 -9.76127,-63.07458 -24.48686,-146.54317 -48.84645,-244.01514 0,0 -1e-5,-3e-5 -1e-5,-3e-5 -5.8664,-23.4738 -12.21709,-47.46069 -19.10157,-71.93177 C 572.64314,352.15598 537.15467,257.07148 507.33501,183.96604 478.36343,112.93974 458.19184,69.843086 459.85536,69.025709 Z"
           id="path34191" />
        <path
           style="fill:#ffffff;stroke:none;stroke-width:0.264583px;stroke-linecap:butt;stroke-linejoin:miter;stroke-opacity:1"
           d="m 647.79448,785.77238 c -3.1597,1.04461 -8.43455,-6.92323 -18.04635,-18.03227 -9.5549,-11.04328 -24.09518,-25.43589 -44.56988,-34.76227 0,0 0,-10e-6 -1e-5,-10e-6 -9.83986,-4.51999 -20.9466,-7.7997 -32.88289,-9.30106 -13.49934,-1.69796 -26.52952,-0.93235 -38.3007,1.64296 -20.9641,4.52423 -37.50545,14.57207 -48.81652,22.52649 -11.37507,7.99943 -18.13026,13.94315 -20.84256,12.20146 -2.45028,-1.57343 -1.04057,-11.18479 8.54791,-24.38462 9.41294,-12.95818 27.14301,-29.15633 53.78757,-37.48373 14.95331,-4.63752 31.83479,-6.44265 49.3677,-4.23334 15.49558,1.95258 29.76793,6.82642 42.11879,13.65886 0,0 0,0 0,10e-6 25.73941,14.31973 40.25454,35.2701 46.81653,50.95219 6.68913,15.98593 5.64998,26.27986 2.82041,27.21533 z"
           id="path43396" />
        <path
           style="fill:#ffffff;stroke:none;stroke-width:0.264583px;stroke-linecap:butt;stroke-linejoin:miter;stroke-opacity:1"
           d="m 459.27071,68.148736 c 3.01071,-1.394784 19.13252,23.391372 37.09791,69.803824 18.14233,46.86958 36.72108,114.34625 41.06147,196.97189 2.12746,40.32519 0.79645,83.24724 -5.20414,127.70616 -7.35239,54.47454 -20.80687,104.5545 -38.03226,149.3239 -27.10569,70.40528 -61.65875,124.11341 -89.38517,159.66228 -27.62268,35.41586 -47.54343,52.73863 -49.92472,50.69633 -2.38128,-2.04231 12.98395,-23.07132 36.04936,-60.36877 23.20476,-37.52279 53.21743,-91.12936 77.21047,-159.57656 15.23745,-43.44273 27.35298,-91.50695 34.39548,-143.74187 5.74629,-42.62084 7.53622,-83.7431 6.44902,-122.54599 C 506.73859,256.4613 492.56385,190.94158 479.53306,143.52029 466.67811,96.738903 456.26,69.54352 459.27071,68.148736 Z"
           id="path41668" />
        <path
           style="fill:#ffffff;fill-opacity:1;stroke:none;stroke-width:0.215182px;stroke-linecap:butt;stroke-linejoin:miter;stroke-opacity:1"
           d="m 399.80814,815.51795 c -1.50618,-2.13197 5.92863,-11.10137 22.45876,-21.55418 16.53013,-10.45281 42.7025,-21.97226 75.38237,-25.314 18.90986,-1.92543 39.43039,-1.07197 60.46387,3.54254 17.69754,3.88265 33.99654,10.0439 48.51103,17.71403 0,0 10e-6,10e-6 10e-6,10e-6 31.49186,16.66154 52.32813,39.11641 64.21688,56.73214 11.86723,17.58386 15.22099,29.8725 12.85766,31.23605 -2.36331,1.36354 -10.03918,-8.13162 -24.08956,-21.97252 -14.10664,-13.89634 -34.88347,-31.80376 -63.40032,-45.20398 0,10e-6 -10e-6,0 -10e-6,0 -13.15241,-6.18947 -27.66817,-11.27625 -43.31592,-14.70825 -18.59317,-4.07801 -36.67766,-5.36018 -53.5264,-4.58651 -29.36923,1.33431 -53.69083,8.79122 -70.84483,15.1146 -17.10678,6.30596 -27.20738,11.13203 -28.71354,9.00007 z"
           id="path41674" />
      </g>
    </g>
    <ellipse
       style="fill:#fffbe1;fill-opacity:1;stroke:none;stroke-width:61.7374;stroke-linecap:round;stroke-linejoin:round;stroke-dasharray:246.949, 246.949;stroke-dashoffset:605.026"
       id="path50849"
       cx="546.00714"
       cy="1083.8953"
       rx="54.803684"
       ry="28.416727" />
    <ellipse
       style="fill:#fffbe1;fill-opacity:1;stroke:none;stroke-width:35.2785;stroke-linecap:round;stroke-linejoin:round;stroke-dasharray:141.114, 141.114;stroke-dashoffset:345.729"
       id="ellipse51890"
       cx="1376.9332"
       cy="824.30182"
       rx="31.316391"
       ry="16.238131"
       transform="rotate(8.6017865)" />
    <ellipse
       style="fill:#fffbe1;fill-opacity:1;stroke:none;stroke-width:30.8687;stroke-linecap:round;stroke-linejoin:round;stroke-dasharray:123.475, 123.475;stroke-dashoffset:302.513"
       id="ellipse51892"
       cx="464.8165"
       cy="1154.9371"
       rx="27.401842"
       ry="14.208364" />
    <ellipse
       style="fill:#fffbe1;fill-opacity:1;stroke:none;stroke-width:26.2956;stroke-linecap:round;stroke-linejoin:round;stroke-dasharray:105.182, 105.182;stroke-dashoffset:257.696"
       id="ellipse51894"
       cx="427.0062"
       cy="1238.3232"
       rx="23.34231"
       ry="12.10342"
       transform="rotate(-9.6841264)" />
    <ellipse
       style="fill:#fffbe1;fill-opacity:1;stroke:none;stroke-width:21.7224;stroke-linecap:round;stroke-linejoin:round;stroke-dasharray:86.8898, 86.8898;stroke-dashoffset:212.88"
       id="ellipse51896"
       cx="1098.1035"
       cy="1248.3063"
       rx="19.282778"
       ry="9.9984779" />
    <ellipse
       style="fill:#fffbe1;fill-opacity:1;stroke:none;stroke-width:30.8687;stroke-linecap:round;stroke-linejoin:round;stroke-dasharray:123.475, 123.475;stroke-dashoffset:302.513"
       id="ellipse51898"
       cx="1004.7342"
       cy="1228.0087"
       rx="27.401842"
       ry="14.208364" />
    <ellipse
       style="fill:#fffbe1;fill-opacity:1;stroke:none;stroke-width:17.6393;stroke-linecap:round;stroke-linejoin:round;stroke-dasharray:70.5571, 70.5571;stroke-dashoffset:172.865"
       id="ellipse51900"
       cx="941.81146"
       cy="1276.723"
       rx="15.658195"
       ry="8.1190653" />
    <path
       id="path80658"
       style="fill:#ffffff;stroke-width:0.238224px"
       d="m 989.15674,199.16401 c -1.1133,0.004 -2.2301,0.0318 -3.3505,0.0838 -1.8495,0.0857 -3.6919,0.23674 -5.5234,0.45272 -19.9382,2.39918 -37.28923,12.14599 -49.40537,25.28615 -14.04365,15.29223 -20.32962,33.90665 -21.15819,50.32899 -0.69349,14.15756 2.59807,26.45788 6.86754,35.7238 9.47468,20.63432 22.18663,27.21796 23.9415,25.43598 1.7549,-1.782 -6.62984,-11.49992 -11.38636,-30.00132 -2.1397,-8.37731 -3.36717,-18.61253 -1.66569,-29.45694 1.95174,-12.62441 7.94093,-26.58775 18.7927,-37.28947 9.27577,-9.1969 22.40247,-16.12134 36.62127,-17.71372 1.3058,-0.15063 2.6233,-0.25615 3.9498,-0.31685 12.8348,-0.58734 25.47066,3.04753 35.31856,9.46847 12.4532,8.05477 20.8179,20.50697 24.4002,32.59759 3.5338,11.78803 2.9127,23.46899 0.5691,32.76694 -2.558,10.19823 -7.2581,18.13596 -10.5293,23.26638 -3.3606,5.27046 -5.5122,8.30479 -4.6929,9.36889 0.8194,1.06409 4.6252,0.0725 10.2381,-4.09866 5.4652,-4.06136 13.0931,-11.78477 18.3563,-23.83821 4.7813,-10.97777 7.5467,-25.71383 4.2685,-41.89948 -3.4347,-16.73878 -13.5537,-34.25332 -30.4206,-46.1098 -12.6804,-8.86473 -28.493,-14.1171 -45.19126,-14.05521 z m 102.89446,97.56245 c -9.8044,0.0121 -18.2938,3.68329 -24.1202,8.31689 -6.3729,5.08586 -9.5358,11.0138 -10.8643,15.22027 -1.3401,4.24358 -0.9135,6.77701 -0.032,7.07413 0.9576,0.32279 2.4581,-1.52609 4.9921,-4.34805 2.5339,-2.82195 6.2544,-6.67755 11.6045,-9.55734 5.0073,-2.70984 11.6617,-4.59053 18.708,-3.92325 5.4811,0.50315 11.2882,2.59526 16.109,6.30549 0.1715,0.13201 0.3412,0.26539 0.509,0.40061 4.9386,3.95616 8.4084,9.37695 10.1399,14.79779 2.1036,6.52565 1.8019,13.18222 0.4066,18.51028 -1.4818,5.70492 -4.1929,10.11066 -6.2082,13.17396 -2.0153,3.06331 -3.3522,4.93349 -2.8052,5.76017 0.386,0.58342 11.1365,-0.0107 18.3726,-15.41103 3.1307,-6.68926 4.7809,-15.68931 2.4655,-25.36898 -1.9437,-8.05968 -6.5764,-16.02686 -13.911,-21.96079 -0.2492,-0.2008 -0.5008,-0.39904 -0.7551,-0.59416 -7.1759,-5.506 -15.6178,-8.18597 -23.6582,-8.38576 -0.3189,-0.007 -0.6366,-0.0107 -0.9529,-0.0107 z m -189.63914,31.6121 c -5.68926,-0.0277 -11.82215,1.06203 -17.91286,3.77949 -6.94073,3.10845 -13.45796,8.22037 -18.30696,15.20352 -2.45411,3.54227 -4.4221,7.49156 -5.78529,11.72648 -1.14856,3.56809 -1.83177,7.22754 -2.05794,10.87873 -0.5161,8.48246 1.45227,16.55337 5.04597,23.31244 4.08199,7.65778 10.10417,13.35241 16.35741,16.93855 10.69314,6.09492 21.23709,5.83501 27.50696,4.38619 6.47432,-1.49603 9.39933,-4.03096 9.02691,-5.08086 -0.37241,-1.04991 -3.89236,-0.63702 -9.56199,-1.07804 -5.4886,-0.42695 -13.83538,-1.93938 -21.10283,-7.37098 -4.32319,-3.20144 -8.35125,-7.78636 -10.93363,-13.44663 -2.26981,-4.95546 -3.44026,-10.81945 -2.96756,-16.74268 0.1998,-2.554 0.70918,-5.1362 1.52333,-7.6627 0.96612,-2.99812 2.32873,-5.81608 4.00189,-8.33828 3.29062,-4.97689 7.83716,-8.88952 12.67517,-11.43803 7.50979,-3.97654 15.78256,-4.69362 22.44236,-3.67478 7.17287,1.08071 12.78612,4.0716 16.57426,6.35946 3.78811,2.28784 5.9649,3.88792 6.73306,3.30163 0.11965,-0.0913 -1.37924,-13.0852 -21.01766,-19.20215 -3.65931,-1.13275 -7.81563,-1.82987 -12.2406,-1.85136 z m 298.65444,13.69416 c -3.001,-0.007 -6.0638,0.0782 -9.1827,0.26336 -9.9562,0.59117 -19.35,2.15035 -28.0183,4.40479 -17.0936,4.45266 -30.4618,11.29831 -39.3195,17.22239 -8.8094,5.89171 -13.0472,10.60746 -12.2281,11.84464 0.8192,1.23723 6.5202,-1.12993 15.9243,-4.81704 9.5199,-3.73252 22.4989,-8.53499 38.5257,-11.80512 8.0939,-1.65444 16.7414,-2.84806 25.9134,-3.39002 23.0329,-1.361 42.6453,1.74697 57.7004,5.17904 14.6601,3.34201 23.7593,6.44795 24.5877,4.7817 0.8285,-1.66626 -6.9359,-7.92904 -21.7211,-13.87235 -13.1825,-5.29908 -31.1742,-9.76918 -52.1818,-9.81139 z M 890.1961,416.8457 c -14.24362,0.0618 -31.56374,1.8911 -50.37272,6.96341 -16.34266,4.40721 -30.57289,10.39101 -42.29357,16.70871 -21.03671,11.34198 -32.50642,22.5552 -31.14732,24.53286 1.35911,1.97767 14.96388,-5.51692 36.0509,-14.23573 11.81614,-4.88643 25.34907,-9.79326 40.90054,-13.98588 22.1435,-5.96982 41.17691,-8.56212 56.46372,-10.232 14.73432,-1.60953 24.1049,-2.33545 24.24205,-4.19124 0.13713,-1.85579 -9.11072,-4.52323 -24.49331,-5.33865 -2.93978,-0.15581 -6.06332,-0.23571 -9.35029,-0.22148 z" />
    <path
       id="path80631"
       style="fill:#ffffff;stroke-width:0.238224px"
       d="m 303.09573,292.53325 c -1.11322,0.004 -2.23006,0.0318 -3.35048,0.0838 -1.84952,0.0857 -3.69192,0.23674 -5.52335,0.45272 -19.93825,2.39918 -37.28926,12.14599 -49.4054,25.28615 -14.04365,15.29223 -20.32962,33.90665 -21.15819,50.32899 -0.69349,14.15756 2.59807,26.45788 6.86754,35.7238 9.47468,20.63432 22.18663,27.21796 23.9415,25.43598 1.7549,-1.782 -6.62984,-11.49992 -11.38636,-30.00132 -2.1397,-8.37731 -3.36717,-18.61253 -1.66569,-29.45694 1.95174,-12.62441 7.94093,-26.58775 18.7927,-37.28947 9.27577,-9.1969 22.40245,-16.12134 36.62132,-17.71372 1.3058,-0.15063 2.62328,-0.25615 3.94977,-0.31685 12.83479,-0.58734 25.47069,3.04753 35.31855,9.46847 12.45322,8.05477 20.81791,20.50697 24.40028,32.59759 3.53378,11.78803 2.91261,23.46899 0.56903,32.76694 -2.55798,10.19823 -7.25808,18.13596 -10.5293,23.26638 -3.36056,5.27046 -5.51219,8.30479 -4.69284,9.36889 0.81938,1.06409 4.62516,0.0725 10.23805,-4.09866 5.46517,-4.06136 13.09307,-11.78477 18.35627,-23.83821 4.78137,-10.97777 7.54675,-25.71383 4.2685,-41.89948 -3.43467,-16.73878 -13.55366,-34.25332 -30.42056,-46.1098 -12.68043,-8.86473 -28.49302,-14.1171 -45.19134,-14.05521 z m 102.89455,97.56245 c -9.80436,0.0121 -18.29382,3.68329 -24.12016,8.31689 -6.3729,5.08586 -9.53581,11.0138 -10.8643,15.22027 -1.34019,4.24358 -0.91357,6.77701 -0.0321,7.07413 0.95757,0.32279 2.45805,-1.52609 4.99201,-4.34805 2.53396,-2.82195 6.25446,-6.67755 11.60458,-9.55734 5.00722,-2.70984 11.66168,-4.59053 18.708,-3.92325 5.48111,0.50315 11.28817,2.59526 16.10896,6.30549 0.17148,0.13201 0.34123,0.26539 0.50901,0.40061 4.93856,3.95616 8.40844,9.37695 10.13989,14.79779 2.10356,6.52565 1.80193,13.18222 0.40664,18.51028 -1.48183,5.70492 -4.19295,10.11066 -6.20823,13.17396 -2.01528,3.06331 -3.35217,4.93349 -2.80518,5.76017 0.38601,0.58342 11.13646,-0.0107 18.37253,-15.41103 3.13075,-6.68926 4.78096,-15.68931 2.46552,-25.36898 -1.94366,-8.05968 -6.57639,-16.02686 -13.91096,-21.96079 -0.24918,-0.2008 -0.50084,-0.39904 -0.75515,-0.59416 -7.17589,-5.506 -15.61773,-8.18597 -23.65815,-8.38576 -0.31895,-0.007 -0.6366,-0.0107 -0.95289,-0.0107 z m -189.63919,31.6121 c -5.68926,-0.0277 -11.82215,1.06203 -17.91286,3.77949 -6.94073,3.10845 -13.45796,8.22037 -18.30696,15.20352 -2.45411,3.54227 -4.4221,7.49156 -5.78529,11.72648 -1.14856,3.56809 -1.83177,7.22754 -2.05794,10.87873 -0.5161,8.48246 1.45227,16.55337 5.04597,23.31244 4.08199,7.65778 10.10417,13.35241 16.35741,16.93855 10.69314,6.09492 21.23709,5.83501 27.50696,4.38619 6.47432,-1.49603 9.39933,-4.03096 9.02691,-5.08086 -0.37241,-1.04991 -3.89236,-0.63702 -9.56199,-1.07804 -5.4886,-0.42695 -13.83538,-1.93938 -21.10283,-7.37098 -4.32319,-3.20144 -8.35125,-7.78636 -10.93363,-13.44663 -2.26981,-4.95546 -3.44026,-10.81945 -2.96756,-16.74268 0.1998,-2.554 0.70918,-5.1362 1.52333,-7.6627 0.96612,-2.99812 2.32873,-5.81608 4.00189,-8.33828 3.29062,-4.97689 7.83716,-8.88952 12.67517,-11.43803 7.50979,-3.97654 15.78256,-4.69362 22.44236,-3.67478 7.17287,1.08071 12.78612,4.0716 16.57426,6.35946 3.78811,2.28784 5.9649,3.88792 6.73306,3.30163 0.11965,-0.0913 -1.37924,-13.0852 -21.01766,-19.20215 -3.65931,-1.13275 -7.81563,-1.82987 -12.2406,-1.85136 z m 298.65453,13.69416 c -3.00107,-0.007 -6.06385,0.0782 -9.18277,0.26336 -9.95616,0.59117 -19.34998,2.15035 -28.0183,4.40479 -17.09353,4.45266 -30.46176,11.29831 -39.31952,17.22239 -8.80932,5.89171 -13.04718,10.60746 -12.22803,11.84464 0.81914,1.23723 6.52015,-1.12993 15.92425,-4.81704 9.51996,-3.73252 22.49893,-8.53499 38.52574,-11.80512 8.09391,-1.65444 16.74136,-2.84806 25.91334,-3.39002 23.03293,-1.361 42.64531,1.74697 57.70044,5.17904 14.66013,3.34201 23.75932,6.44795 24.58775,4.7817 0.82844,-1.66626 -6.93599,-7.92904 -21.72116,-13.87235 -13.1825,-5.29908 -31.17423,-9.76918 -52.18174,-9.81139 z m -310.87049,74.81298 c -14.24362,0.0618 -31.56374,1.8911 -50.37272,6.96341 -16.34266,4.40721 -30.57289,10.39101 -42.29357,16.70871 -21.036703,11.34198 -32.506413,22.5552 -31.147312,24.53286 1.359101,1.97767 14.963879,-5.51692 36.050892,-14.23573 11.81614,-4.88643 25.34907,-9.79326 40.90054,-13.98588 22.1435,-5.96982 41.17691,-8.56212 56.46372,-10.232 14.73432,-1.60953 24.1049,-2.33545 24.24205,-4.19124 0.13713,-1.85579 -9.11072,-4.52323 -24.49331,-5.33865 -2.93978,-0.15581 -6.06332,-0.23571 -9.35029,-0.22148 z" />
    <g
       id="g58261"
       transform="matrix(0.28838298,0,0,0.28838298,425.16614,572.43803)">
      <path
         style="fill:#aad400;stroke-width:0.156216px"
         d="m 1748.096,725.75065 c -0.863,-6.61608 -4.7752,-19.27308 -1.8985,-29.39891 2.8767,-10.12583 12.5419,-17.71996 22.9554,-14.78558 10.4134,2.93439 21.5744,16.39662 25.1988,26.40719 3.6244,10.01058 -0.2877,16.56912 3.4521,17.02929 3.7397,0.46016 15.1308,-5.17787 24.4511,-3.9695 9.3204,1.20836 16.5692,9.26264 18.18,18.4103 1.6107,9.14767 -2.4164,19.38813 -6.0984,25.02623 -3.6821,5.63809 -7.0189,6.67365 0.1153,3.91205 7.1341,-2.76161 24.7386,-9.32015 37.7985,-6.38576 13.0598,2.93438 21.5744,15.36109 21.114,25.60174 -0.4604,10.24065 -9.8954,18.295 -17.4897,22.55237 -7.5942,4.25737 -13.3473,4.71762 -3.6003,6.36465 9.747,1.64704 34.9927,4.48067 44.6582,6.43678 9.6656,1.95611 3.7498,3.03453 -41.3421,4.07589 -45.0919,1.04137 -129.3588,2.04562 -174.3638,0.89739 -45.0051,-1.14823 -50.7445,-4.44883 -45.891,-9.2085 4.8535,-4.75968 20.2997,-10.97782 21.4642,-18.22925 1.1645,-7.25142 -11.9525,-15.53585 -16.8508,-23.80064 -4.8984,-8.26479 -1.5455,-16.58915 3.9201,-23.03282 5.4657,-6.44366 13.0598,-11.04612 21.9199,-9.08986 8.8601,1.95626 18.9855,10.47083 22.6675,9.43516 3.682,-1.03567 0.9205,-11.62135 2.7615,-18.69792 1.8411,-7.07658 8.2846,-10.64351 14.6132,-10.35574 6.3286,0.28777 12.542,4.43002 16.7418,6.21344 4.1999,1.78341 6.386,1.20808 5.523,-5.408 z"
         id="path58255" />
      <path
         style="fill:#88aa00;stroke-width:0.133926px"
         d="m 1752.5355,738.064 c -0.7398,-5.67204 -4.0938,-16.52303 -1.6276,-25.20402 2.4662,-8.68098 10.7523,-15.19151 19.6799,-12.67584 8.9276,2.51569 18.496,14.05701 21.6032,22.63918 3.1073,8.58218 -0.2466,14.20489 2.9596,14.5994 3.2061,0.3945 12.9718,-4.43905 20.9622,-3.4031 7.9904,1.03594 14.2049,7.94097 15.5859,15.78336 1.3809,7.84239 -2.0716,16.62165 -5.2282,21.45526 -3.1567,4.8336 -6.0174,5.72139 0.099,3.35384 6.1161,-2.36755 21.2087,-7.99026 32.4051,-5.47458 11.1963,2.51568 18.496,13.16923 18.1012,21.94866 -0.3947,8.77942 -8.4834,15.6845 -14.9941,19.33439 -6.5106,3.64989 -11.4428,4.04447 -3.0865,5.45649 8.3562,1.41202 29.9996,3.84133 38.2859,5.51832 8.2864,1.677 3.2148,2.60154 -35.443,3.49431 -38.6578,0.89278 -110.9007,1.75373 -149.484,0.76934 -38.5834,-0.98439 -43.5039,-3.81403 -39.3429,-7.89455 4.161,-4.08053 17.4032,-9.41141 18.4015,-15.62814 0.9983,-6.21672 -10.247,-13.31905 -14.4464,-20.40455 -4.1994,-7.0855 -1.325,-14.22206 3.3608,-19.74629 4.6858,-5.52422 11.1963,-9.46996 18.7921,-7.79284 7.5959,1.67712 16.2765,8.97676 19.4331,8.08887 3.1567,-0.88789 0.7892,-9.96311 2.3675,-16.02994 1.5784,-6.06683 7.1025,-9.1248 12.5281,-8.87809 5.4255,0.24671 10.7524,3.79791 14.3529,5.32685 3.6006,1.52894 5.4748,1.0357 4.7349,-4.63633 z"
         id="path58257" />
      <path
         id="path58259"
         style="fill:#668000;stroke-width:0.590423px"
         d="m 6845.6426,2821.9824 a 472.64432,292.11025 32.272179 0 0 -214.0235,100.6524 472.64432,292.11025 32.272179 0 0 -10.1679,208.3925 c 161.4523,0.058 349.5141,-2.5315 467.3945,-5.2539 170.4261,-3.9358 192.7853,-8.013 156.2539,-15.4062 -36.531,-7.3932 -131.948,-18.1012 -168.7871,-24.3262 -36.8391,-6.225 -15.0951,-7.9658 13.6074,-24.0566 28.7029,-16.0909 64.3634,-46.5315 66.1035,-85.2364 1.7401,-38.7048 -30.4409,-85.6731 -79.8007,-96.7636 -49.3603,-11.0906 -115.8978,13.6972 -142.8614,24.1347 -26.9639,10.4376 -14.3521,6.5242 -0.4355,-14.7851 8.9219,-13.6617 18.3494,-34.4806 22.3847,-56.7695 a 472.64432,292.11025 32.272179 0 0 -109.6679,-10.5821 z"
         transform="scale(0.26458332)" />
    </g>
    <g
       id="g77333"
       transform="matrix(0.63628293,-0.02300393,0.02300393,0.63628293,147.80429,-173.28997)">
      <path
         id="rect61050"
         style="fill:#dd9059;fill-opacity:1;stroke:none;stroke-width:31.147;stroke-linecap:round;stroke-linejoin:round;stroke-dasharray:124.587, 124.587;stroke-dashoffset:305.239"
         d="m 1095.2688,1516.3334 -215.85713,64.0389 3.2045,10.8009 H 589.61388 l -7.20267,24.2771 485.15749,143.9323 49.9028,-168.2094 z" />
      <path
         id="path66503"
         style="fill:#8b664c;fill-opacity:1;stroke:none;stroke-width:31.147;stroke-linecap:round;stroke-linejoin:round;stroke-dasharray:124.587, 124.587;stroke-dashoffset:305.239"
         d="m 588.20169,1595.9335 -5.79036,19.5166 485.15747,143.9323 5.7898,-19.5166 z" />
      <path
         id="path62034"
         style="fill:#b27244;fill-opacity:1;stroke:none;stroke-width:31.147;stroke-linecap:round;stroke-linejoin:round;stroke-dasharray:124.587, 124.587;stroke-dashoffset:305.239"
         d="m 1095.269,1516.3336 -182.14504,54.0375 a 255.47653,218.15973 21.676901 0 1 100.04354,172.8727 l 54.4013,16.139 49.9029,-168.2093 z" />
      <path
         style="fill:#493324;fill-opacity:1;stroke:none;stroke-width:0.264583px;stroke-linecap:butt;stroke-linejoin:miter;stroke-opacity:1"
         d="m 1091.692,1520.0737 c 4.0029,1.0309 4.1221,14.9254 2.2562,36.5223 -1.6989,19.6645 -5.7605,52.8873 -9.2501,83.3654 -0.2585,2.2578 -2.56,22.6194 -2.8185,24.8772 0,0 0,0 0,0 -5.9371,52.7644 -10.1749,93.3127 -17.4576,93.4885 -7.0077,0.1692 -14.9483,-40.5954 -11.7166,-95.9661 0,0 0,0 0,0 0.4871,-8.3448 1.2224,-16.9688 2.2343,-25.8068 3.8752,-33.8459 10.9416,-63.1847 18.304,-84.4049 7.2776,-20.976 14.4454,-33.1065 18.4483,-32.0756 z"
         id="path61760" />
      <path
         style="fill:#493324;fill-opacity:1;stroke:none;stroke-width:0.264583px;stroke-linecap:butt;stroke-linejoin:miter;stroke-opacity:1"
         d="m 967.44736,1689.9297 c -1.0928,3.9864 -60.85918,-8.9189 -133.40708,-28.8066 -72.5479,-19.8876 -130.54046,-39.2637 -129.44766,-43.2501 1.09281,-3.9864 60.85918,8.9189 133.40709,28.8066 72.5479,19.8876 130.54045,39.2637 129.44765,43.2501 z"
         id="path73289" />
      <path
         style="fill:#955a32;fill-opacity:1;stroke:none;stroke-width:0.264583px;stroke-linecap:butt;stroke-linejoin:miter;stroke-opacity:1"
         d="m 954.25387,1662.5279 c -0.30084,1.3446 -50.33112,-8.7035 -111.67471,-22.4288 -61.3436,-13.7253 -110.88555,-25.9559 -110.5847,-27.3005 0.30084,-1.3446 50.33111,8.7035 111.67471,22.4288 61.34359,13.7253 110.88554,25.9559 110.5847,27.3005 z"
         id="path73295" />
    </g>
    <g
       id="g48343"
       transform="matrix(0.96108456,0,0,0.96108456,-1296.5806,191.40049)">
      <path
         id="rect8562"
         style="fill:#ffab6e;fill-opacity:1;stroke-width:24.2699;stroke-linecap:round;stroke-linejoin:round;stroke-dasharray:97.0791, 97.0791;stroke-dashoffset:237.844"
         d="m 1526.6164,621.23782 c -10.1705,0 -18.4289,10.79718 -19.015,24.50528 h -0.034 v 1.56005 50.84384 50.57064 h 38.0992 v -50.57064 -50.84384 -1.56005 h -0.035 c -0.5861,-13.7081 -8.8445,-24.50528 -19.015,-24.50528 z" />
      <path
         id="path10390"
         style="fill:#dd9059;fill-opacity:1;stroke-width:24.2699;stroke-linecap:round;stroke-linejoin:round;stroke-dasharray:97.0791, 97.0791;stroke-dashoffset:237.844"
         d="m 1514.6429,634.89036 c -1.7875,0 -3.5139,0.34022 -5.152,0.96445 -1.0732,3.01315 -1.7384,6.35257 -1.8896,9.88839 h -0.034 v 1.56004 50.84384 50.57062 h 26.1258 v -36.91817 -50.84384 -1.56004 h -0.035 c -0.5862,-13.7081 -8.8446,-24.50529 -19.0151,-24.50529 z" />
      <path
         id="rect15437"
         style="fill:#b27244;fill-opacity:1;stroke-width:24.2699;stroke-linecap:round;stroke-linejoin:round;stroke-dasharray:97.079, 97.079;stroke-dashoffset:237.844"
         d="m 1514.643,634.8904 c -1.7875,0 -3.514,0.34022 -5.1521,0.96445 -1.0732,3.01315 -1.7384,6.35256 -1.8895,9.88839 h -0.035 v 1.56004 50.84384 50.57062 h 8.5408 V 634.97328 c -0.4838,-0.0499 -0.9712,-0.0829 -1.4646,-0.0829 z" />
    </g>
    <rect
       style="fill:#ffc9a1;fill-opacity:1;stroke-width:52.7723;stroke-linecap:round;stroke-linejoin:round;stroke-dasharray:211.089, 211.089;stroke-dashoffset:517.168"
       id="rect15783"
       width="88.577492"
       height="5.8293095"
       x="126.33813"
       y="918.74207"
       ry="2.9146547" />
    <rect
       style="fill:#ffd8bc;fill-opacity:1;stroke-width:36.8939;stroke-linecap:round;stroke-linejoin:round;stroke-dasharray:147.575, 147.575;stroke-dashoffset:361.56"
       id="rect16149"
       width="61.925785"
       height="4.0753531"
       x="139.66399"
       y="928.24695"
       ry="2.0376766" />
    <rect
       style="fill:#ffdfc9;fill-opacity:1;stroke-width:21.9236;stroke-linecap:round;stroke-linejoin:round;stroke-dasharray:87.6939, 87.6939;stroke-dashoffset:214.851"
       id="rect21715"
       width="36.798317"
       height="2.4217074"
       x="152.22772"
       y="937.75543"
       ry="1.2108537" />
    <path
       id="rect29524"
       style="fill:#ffffff;fill-opacity:1;stroke-width:29.6069;stroke-linecap:round;stroke-linejoin:round;stroke-dasharray:118.428, 118.428;stroke-dashoffset:290.148"
       d="m 373.07838,907.35325 c -0.9059,0 -1.63516,0.72927 -1.63516,1.63516 0,0.90592 0.72926,1.63517 1.63516,1.63517 h 46.42459 c 0.90589,0 1.63516,-0.72925 1.63516,-1.63517 0,-0.90589 -0.72927,-1.63516 -1.63516,-1.63516 z m 6.98421,5.33253 c -0.63333,0 -1.14315,0.50983 -1.14315,1.14317 0,0.63332 0.50982,1.14316 1.14315,1.14316 h 32.45617 c 0.63333,0 1.14315,-0.50984 1.14315,-1.14316 0,-0.63334 -0.50982,-1.14317 -1.14315,-1.14317 z m 6.585,5.33457 c -0.37635,0 -0.67928,0.30294 -0.67928,0.67928 0,0.37636 0.30293,0.67929 0.67928,0.67929 h 19.28646 c 0.37634,0 0.67929,-0.30293 0.67929,-0.67929 0,-0.37634 -0.30295,-0.67928 -0.67929,-0.67928 z" />
    <path
       id="path29549"
       style="fill:#ffffff;fill-opacity:1;stroke-width:18.2762;stroke-linecap:round;stroke-linejoin:round;stroke-dasharray:73.1049, 73.1049;stroke-dashoffset:179.106"
       d="m 70.212373,910.66894 c -0.55921,0 -1.009374,0.45017 -1.009374,1.00937 0,0.55922 0.450164,1.00937 1.009374,1.00937 h 28.657656 c 0.559203,0 1.009374,-0.45015 1.009374,-1.00937 0,-0.5592 -0.450171,-1.00937 -1.009374,-1.00937 z m 4.311316,3.29174 c -0.390949,0 -0.705663,0.31471 -0.705663,0.70567 0,0.39095 0.314714,0.70567 0.705663,0.70567 h 20.035026 c 0.390948,0 0.705663,-0.31472 0.705663,-0.70567 0,-0.39096 -0.314715,-0.70567 -0.705663,-0.70567 z m 4.064888,3.29299 c -0.232321,0 -0.419321,0.18701 -0.419321,0.41932 0,0.23233 0.187,0.41932 0.419321,0.41932 h 11.905432 c 0.232314,0 0.419321,-0.18699 0.419321,-0.41932 0,-0.23231 -0.187007,-0.41932 -0.419321,-0.41932 z" />
    <path
       id="path29551"
       style="fill:#ffffff;fill-opacity:1;stroke-width:67.3155;stroke-linecap:round;stroke-linejoin:round;stroke-dasharray:269.263, 269.263;stroke-dashoffset:659.693"
       d="m 804.19644,927.80703 c -2.05969,0 -3.71777,1.6581 -3.71777,3.71776 0,2.05974 1.65808,3.71779 3.71777,3.71779 h 105.55287 c 2.05967,0 3.71777,-1.65805 3.71777,-3.71779 0,-2.05966 -1.6581,-3.71776 -3.71777,-3.71776 z m 15.87959,12.12426 c -1.43997,0 -2.59911,1.15917 -2.59911,2.59915 0,1.43994 1.15914,2.59914 2.59911,2.59914 h 73.79369 c 1.43997,0 2.59911,-1.1592 2.59911,-2.59914 0,-1.43998 -1.15914,-2.59915 -2.59911,-2.59915 z m 14.97193,12.1289 c -0.85569,0 -1.54444,0.68877 -1.54444,1.54444 0,0.8557 0.68875,1.54445 1.54444,1.54445 h 43.85049 c 0.85566,0 1.54446,-0.68875 1.54446,-1.54445 0,-0.85567 -0.6888,-1.54444 -1.54446,-1.54444 z" />
    <g
       id="g49319"
       transform="matrix(0.52755716,0,0,0.52755716,-471.23155,376.04757)">
      <path
         style="fill:#aad400;stroke-width:0.156216px"
         d="m 1748.096,725.75065 c -0.863,-6.61608 -4.7752,-19.27308 -1.8985,-29.39891 2.8767,-10.12583 12.5419,-17.71996 22.9554,-14.78558 10.4134,2.93439 21.5744,16.39662 25.1988,26.40719 3.6244,10.01058 -0.2877,16.56912 3.4521,17.02929 3.7397,0.46016 15.1308,-5.17787 24.4511,-3.9695 9.3204,1.20836 16.5692,9.26264 18.18,18.4103 1.6107,9.14767 -2.4164,19.38813 -6.0984,25.02623 -3.6821,5.63809 -7.0189,6.67365 0.1153,3.91205 7.1341,-2.76161 24.7386,-9.32015 37.7985,-6.38576 13.0598,2.93438 21.5744,15.36109 21.114,25.60174 -0.4604,10.24065 -9.8954,18.295 -17.4897,22.55237 -7.5942,4.25737 -13.3473,4.71762 -3.6003,6.36465 9.747,1.64704 34.9927,4.48067 44.6582,6.43678 9.6656,1.95611 3.7498,3.03453 -41.3421,4.07589 -45.0919,1.04137 -129.3588,2.04562 -174.3638,0.89739 -45.0051,-1.14823 -50.7445,-4.44883 -45.891,-9.2085 4.8535,-4.75968 20.2997,-10.97782 21.4642,-18.22925 1.1645,-7.25142 -11.9525,-15.53585 -16.8508,-23.80064 -4.8984,-8.26479 -1.5455,-16.58915 3.9201,-23.03282 5.4657,-6.44366 13.0598,-11.04612 21.9199,-9.08986 8.8601,1.95626 18.9855,10.47083 22.6675,9.43516 3.682,-1.03567 0.9205,-11.62135 2.7615,-18.69792 1.8411,-7.07658 8.2846,-10.64351 14.6132,-10.35574 6.3286,0.28777 12.542,4.43002 16.7418,6.21344 4.1999,1.78341 6.386,1.20808 5.523,-5.408 z"
         id="path49313" />
      <path
         style="fill:#88aa00;stroke-width:0.133926px"
         d="m 1752.5355,738.064 c -0.7398,-5.67204 -4.0938,-16.52303 -1.6276,-25.20402 2.4662,-8.68098 10.7523,-15.19151 19.6799,-12.67584 8.9276,2.51569 18.496,14.05701 21.6032,22.63918 3.1073,8.58218 -0.2466,14.20489 2.9596,14.5994 3.2061,0.3945 12.9718,-4.43905 20.9622,-3.4031 7.9904,1.03594 14.2049,7.94097 15.5859,15.78336 1.3809,7.84239 -2.0716,16.62165 -5.2282,21.45526 -3.1567,4.8336 -6.0174,5.72139 0.099,3.35384 6.1161,-2.36755 21.2087,-7.99026 32.4051,-5.47458 11.1963,2.51568 18.496,13.16923 18.1012,21.94866 -0.3947,8.77942 -8.4834,15.6845 -14.9941,19.33439 -6.5106,3.64989 -11.4428,4.04447 -3.0865,5.45649 8.3562,1.41202 29.9996,3.84133 38.2859,5.51832 8.2864,1.677 3.2148,2.60154 -35.443,3.49431 -38.6578,0.89278 -110.9007,1.75373 -149.484,0.76934 -38.5834,-0.98439 -43.5039,-3.81403 -39.3429,-7.89455 4.161,-4.08053 17.4032,-9.41141 18.4015,-15.62814 0.9983,-6.21672 -10.247,-13.31905 -14.4464,-20.40455 -4.1994,-7.0855 -1.325,-14.22206 3.3608,-19.74629 4.6858,-5.52422 11.1963,-9.46996 18.7921,-7.79284 7.5959,1.67712 16.2765,8.97676 19.4331,8.08887 3.1567,-0.88789 0.7892,-9.96311 2.3675,-16.02994 1.5784,-6.06683 7.1025,-9.1248 12.5281,-8.87809 5.4255,0.24671 10.7524,3.79791 14.3529,5.32685 3.6006,1.52894 5.4748,1.0357 4.7349,-4.63633 z"
         id="path49315" />
      <path
         id="path49317"
         style="fill:#668000;stroke-width:0.590423px"
         d="m 6845.6426,2821.9824 a 472.64432,292.11025 32.272179 0 0 -214.0235,100.6524 472.64432,292.11025 32.272179 0 0 -10.1679,208.3925 c 161.4523,0.058 349.5141,-2.5315 467.3945,-5.2539 170.4261,-3.9358 192.7853,-8.013 156.2539,-15.4062 -36.531,-7.3932 -131.948,-18.1012 -168.7871,-24.3262 -36.8391,-6.225 -15.0951,-7.9658 13.6074,-24.0566 28.7029,-16.0909 64.3634,-46.5315 66.1035,-85.2364 1.7401,-38.7048 -30.4409,-85.6731 -79.8007,-96.7636 -49.3603,-11.0906 -115.8978,13.6972 -142.8614,24.1347 -26.9639,10.4376 -14.3521,6.5242 -0.4355,-14.7851 8.9219,-13.6617 18.3494,-34.4806 22.3847,-56.7695 a 472.64432,292.11025 32.272179 0 0 -109.6679,-10.5821 z"
         transform="scale(0.26458332)" />
    </g>
    <path
       style="fill:#ffffff;stroke-width:0.264583px"
       d="m 188.25796,815.00497 c 0.43029,-0.44517 9.41246,8.04422 25.71199,20.12645 16.56184,12.27668 39.89973,27.31509 69.93879,39.56941 0,0 10e-6,0 10e-6,0 6.68906,2.7291 13.63075,5.2836 20.81912,7.62663 36.1399,11.77973 68.87925,15.11459 93.96988,15.51494 24.51339,0.39114 39.69779,-1.66869 39.79129,-0.98615 0.0935,0.68254 -14.9833,4.00191 -39.78253,4.5155 -25.32863,0.52454 -58.80855,-2.33016 -95.52559,-14.29836 -7.30903,-2.38244 -14.36163,-5.00227 -21.14647,-7.81806 0,0 -10e-6,-10e-6 -10e-6,-10e-6 -30.44007,-12.63443 -53.88989,-28.47147 -70.0522,-41.55958 -15.9379,-12.90637 -24.15457,-22.2456 -23.72428,-22.69077 z"
       id="path22023" />
    <path
       style="fill:#ffffff;stroke-width:0.264583px"
       d="m 148.82812,816.901 c 0.67698,0.1277 0.31703,6.86196 -2.65649,17.28018 -3.03494,10.6334 -8.72761,24.22609 -18.75296,37.83858 -3.43284,4.66114 -7.05285,8.88562 -10.75253,12.6812 0,0 -1e-5,0 -1e-5,0 -8.83413,9.06124 -17.65802,15.24762 -24.379615,19.11911 -6.663881,3.83826 -10.992679,5.36183 -11.257876,4.85827 -0.265198,-0.50356 3.546607,-2.94881 9.605516,-7.39566 6.137959,-4.50488 14.243105,-10.93637 22.556465,-19.88997 0,0 0,-10e-6 0,-10e-6 3.47501,-3.74188 6.9034,-7.84449 10.2086,-12.33298 9.67099,-13.13326 15.58309,-25.86955 19.42207,-35.98791 3.74159,-9.86167 5.32985,-16.29851 6.00683,-16.17081 z"
       id="path22267" />
    <g
       id="g49223"
       transform="matrix(1.0812925,0,0,1.0812925,-844.57567,-78.145807)">
      <path
         style="fill:#aad400;stroke-width:0.156216px"
         d="m 1748.096,725.75065 c -0.863,-6.61608 -4.7752,-19.27308 -1.8985,-29.39891 2.8767,-10.12583 12.5419,-17.71996 22.9554,-14.78558 10.4134,2.93439 21.5744,16.39662 25.1988,26.40719 3.6244,10.01058 -0.2877,16.56912 3.4521,17.02929 3.7397,0.46016 15.1308,-5.17787 24.4511,-3.9695 9.3204,1.20836 16.5692,9.26264 18.18,18.4103 1.6107,9.14767 -2.4164,19.38813 -6.0984,25.02623 -3.6821,5.63809 -7.0189,6.67365 0.1153,3.91205 7.1341,-2.76161 24.7386,-9.32015 37.7985,-6.38576 13.0598,2.93438 21.5744,15.36109 21.114,25.60174 -0.4604,10.24065 -9.8954,18.295 -17.4897,22.55237 -7.5942,4.25737 -13.3473,4.71762 -3.6003,6.36465 9.747,1.64704 34.9927,4.48067 44.6582,6.43678 9.6656,1.95611 3.7498,3.03453 -41.3421,4.07589 -45.0919,1.04137 -129.3588,2.04562 -174.3638,0.89739 -45.0051,-1.14823 -50.7445,-4.44883 -45.891,-9.2085 4.8535,-4.75968 20.2997,-10.97782 21.4642,-18.22925 1.1645,-7.25142 -11.9525,-15.53585 -16.8508,-23.80064 -4.8984,-8.26479 -1.5455,-16.58915 3.9201,-23.03282 5.4657,-6.44366 13.0598,-11.04612 21.9199,-9.08986 8.8601,1.95626 18.9855,10.47083 22.6675,9.43516 3.682,-1.03567 0.9205,-11.62135 2.7615,-18.69792 1.8411,-7.07658 8.2846,-10.64351 14.6132,-10.35574 6.3286,0.28777 12.542,4.43002 16.7418,6.21344 4.1999,1.78341 6.386,1.20808 5.523,-5.408 z"
         id="path49217" />
      <path
         style="fill:#88aa00;stroke-width:0.133926px"
         d="m 1752.5355,738.064 c -0.7398,-5.67204 -4.0938,-16.52303 -1.6276,-25.20402 2.4662,-8.68098 10.7523,-15.19151 19.6799,-12.67584 8.9276,2.51569 18.496,14.05701 21.6032,22.63918 3.1073,8.58218 -0.2466,14.20489 2.9596,14.5994 3.2061,0.3945 12.9718,-4.43905 20.9622,-3.4031 7.9904,1.03594 14.2049,7.94097 15.5859,15.78336 1.3809,7.84239 -2.0716,16.62165 -5.2282,21.45526 -3.1567,4.8336 -6.0174,5.72139 0.099,3.35384 6.1161,-2.36755 21.2087,-7.99026 32.4051,-5.47458 11.1963,2.51568 18.496,13.16923 18.1012,21.94866 -0.3947,8.77942 -8.4834,15.6845 -14.9941,19.33439 -6.5106,3.64989 -11.4428,4.04447 -3.0865,5.45649 8.3562,1.41202 29.9996,3.84133 38.2859,5.51832 8.2864,1.677 3.2148,2.60154 -35.443,3.49431 -38.6578,0.89278 -110.9007,1.75373 -149.484,0.76934 -38.5834,-0.98439 -43.5039,-3.81403 -39.3429,-7.89455 4.161,-4.08053 17.4032,-9.41141 18.4015,-15.62814 0.9983,-6.21672 -10.247,-13.31905 -14.4464,-20.40455 -4.1994,-7.0855 -1.325,-14.22206 3.3608,-19.74629 4.6858,-5.52422 11.1963,-9.46996 18.7921,-7.79284 7.5959,1.67712 16.2765,8.97676 19.4331,8.08887 3.1567,-0.88789 0.7892,-9.96311 2.3675,-16.02994 1.5784,-6.06683 7.1025,-9.1248 12.5281,-8.87809 5.4255,0.24671 10.7524,3.79791 14.3529,5.32685 3.6006,1.52894 5.4748,1.0357 4.7349,-4.63633 z"
         id="path49219" />
      <path
         id="path49221"
         style="fill:#668000;stroke-width:0.590423px"
         d="m 6845.6426,2821.9824 a 472.64432,292.11025 32.272179 0 0 -214.0235,100.6524 472.64432,292.11025 32.272179 0 0 -10.1679,208.3925 c 161.4523,0.058 349.5141,-2.5315 467.3945,-5.2539 170.4261,-3.9358 192.7853,-8.013 156.2539,-15.4062 -36.531,-7.3932 -131.948,-18.1012 -168.7871,-24.3262 -36.8391,-6.225 -15.0951,-7.9658 13.6074,-24.0566 28.7029,-16.0909 64.3634,-46.5315 66.1035,-85.2364 1.7401,-38.7048 -30.4409,-85.6731 -79.8007,-96.7636 -49.3603,-11.0906 -115.8978,13.6972 -142.8614,24.1347 -26.9639,10.4376 -14.3521,6.5242 -0.4355,-14.7851 8.9219,-13.6617 18.3494,-34.4806 22.3847,-56.7695 a 472.64432,292.11025 32.272179 0 0 -109.6679,-10.5821 z"
         transform="scale(0.26458332)" />
    </g>
    <g
       id="g49719"
       transform="matrix(0.52859551,0,0,0.52859551,103.80842,371.51429)">
      <circle
         style="fill:#deaa87;fill-opacity:1;stroke:none;stroke-width:12.8671;stroke-linecap:round;stroke-linejoin:round;stroke-miterlimit:4;stroke-dasharray:none;stroke-dashoffset:2852.03;stroke-opacity:1"
         id="path49441"
         cx="1370.8063"
         cy="846.28235"
         r="28.063301" />
      <circle
         style="fill:#a05a2c;fill-opacity:1;stroke:none;stroke-width:7.44935;stroke-linecap:round;stroke-linejoin:round;stroke-miterlimit:4;stroke-dasharray:none;stroke-dashoffset:2852.03;stroke-opacity:1"
         id="circle49541"
         cx="1370.8063"
         cy="846.28235"
         r="16.247175" />
    </g>
    <g
       id="g50023"
       transform="matrix(0.86334373,0,0,0.86334373,112.4466,111.59773)">
      <path
         style="fill:#000000;stroke:none;stroke-width:0.264583px;stroke-linecap:butt;stroke-linejoin:miter;stroke-opacity:1"
         d="m 828.88993,819.79488 c 1.03381,-0.009 1.78695,8.95744 2.73418,21.54039 0.31276,4.03755 0.58656,8.99137 1.398,13.34999 0.15655,0.8409 0.33261,1.66424 0.53211,2.47216 0.83188,2.70389 1.42197,4.99751 2.92875,5.83 0.61628,0.59609 1.90077,0.57912 3.00147,0.32189 2.98299,-0.76426 5.32967,-3.49964 6.71056,-5.63267 0,0 0,0 0,0 2.56291,-3.90392 2.68318,-7.63693 3.30445,-7.59255 0.62127,0.0444 1.8963,3.42121 -0.39837,9.07026 0,0 0,0 0,0 -1.19912,2.9693 -3.65975,6.58467 -8.20623,8.35347 -2.02888,0.79506 -4.61725,0.83034 -7.02037,-0.56218 -3.06185,-2.17668 -4.53575,-5.48187 -5.15066,-8.585 -0.22882,-0.9116 -0.42803,-1.83289 -0.60105,-2.76429 -0.91601,-4.93085 -1.04237,-9.93622 -1.09469,-14.05404 -0.19742,-12.82643 0.82804,-21.73795 1.86185,-21.74743 z"
         id="path49758" />
      <path
         style="fill:#000000;stroke:none;stroke-width:0.264583px;stroke-linecap:butt;stroke-linejoin:miter;stroke-opacity:1"
         d="m 808.28647,849.94527 c -0.62127,0.0444 -1.89629,3.42123 0.39837,9.07026 0,0 0,0 0,0 1.19913,2.96931 3.65976,6.58468 8.20623,8.35347 2.02888,0.79506 4.61726,0.83034 7.02038,-0.56218 3.06186,-2.17669 4.53574,-5.48188 5.15065,-8.585 0.22879,-0.91149 0.42797,-1.83265 0.60099,-2.76393 0.91607,-4.93098 1.04243,-9.93649 1.09474,-14.0544 0.19743,-12.82646 -0.82804,-21.73795 -1.86184,-21.74743 -1.0338,-0.009 -1.78694,8.95741 -2.73417,21.54039 -0.31277,4.03764 -0.58658,8.9916 -1.39807,13.35032 -0.15654,0.84078 -0.33257,1.66401 -0.53206,2.47183 -0.83186,2.70388 -1.42196,4.99751 -2.92874,5.83 -0.61628,0.59608 -1.90076,0.57912 -3.00147,0.32189 -2.98298,-0.76426 -5.32967,-3.49962 -6.71056,-5.63267 0,0 0,0 0,0 -2.56291,-3.90391 -2.68318,-7.63692 -3.30445,-7.59255 z"
         id="path49957" />
    </g>
    <g
       id="g57995"
       transform="matrix(0.77205997,0,0,0.77205997,1212.8952,-280.1951)">
      <g
         id="g57981">
        <path
           id="rect55105"
           style="fill:#c87137;fill-opacity:1;stroke:none;stroke-width:8.07644;stroke-linecap:round;stroke-linejoin:round;stroke-miterlimit:4;stroke-dasharray:none;stroke-dashoffset:2852.03;stroke-opacity:1"
           d="m -250.82083,1350.2548 v 66.7054 l 40.84787,22.0946 v -88.8 z" />
        <rect
           style="fill:#deaa87;fill-opacity:1;stroke:none;stroke-width:8.07644;stroke-linecap:round;stroke-linejoin:round;stroke-miterlimit:4;stroke-dasharray:none;stroke-dashoffset:2852.03;stroke-opacity:1"
           id="rect54904"
           width="96.791794"
           height="88.799812"
           x="-217.59715"
           y="1350.959"
           ry="11.987974" />
        <path
           style="fill:#aa4400;stroke-width:0.100465px"
           d="m -93.277412,1375.8229 c -3.37118,3.0737 -9.108798,3.0663 -16.561548,0.6515 -7.76064,-2.5146 -16.08298,-7.0915 -26.22967,-12.7085 0,0 0,0 0,0 -4.31317,-2.3769 -8.91046,-4.9286 -13.12647,-6.8288 -3.39598,-1.4748 -6.36965,-2.678 -8.58317,-2.9266 -1.57948,-0.1685 -3.03623,-0.1875 -4.10278,0.068 -1.08015,0.118 -2.62847,0.559 -4.66217,1.0924 -1.91096,0.429 -3.99836,1.1753 -6.3446,2.1739 -4.39585,1.8711 -9.48656,4.5163 -15.258,7.1932 -13.00501,6.4132 -24.46739,12.1463 -36.27289,17.1267 -13.26278,5.5944 -24.8882,9.349 -34.10876,10.641 -9.16746,1.2846 -15.71772,0.083 -18.56555,-4.0511 -2.8398,-4.1223 -1.65453,-10.6909 2.85837,-18.801 4.49046,-8.0697 12.39654,-17.8504 23.09171,-28.1107 9.07244,-8.7287 20.70718,-18.2972 34.58194,-27.0512 5.8651,-3.9014 13.06748,-7.9585 21.74504,-11.3564 4.63706,-1.8158 9.57682,-3.3964 14.81645,-4.6587 6.71192,-1.5351 13.96751,-2.0421 21.50598,-1.4143 8.00526,0.7955 15.28437,2.9481 21.67704,6.0531 7.49617,3.7425 13.29813,8.0263 17.74711,12.2064 5.77894,5.3226 10.27937,10.6897 13.78642,15.6301 0,0 0,0 0,0 7.750888,10.9056 12.256629,21.0371 14.099141,28.5783 1.878709,7.6893 1.23299,13.4593 -2.093593,16.4924 z"
           id="path55019" />
        <path
           id="path55950"
           style="fill:#a05a2c;fill-opacity:1;stroke:none;stroke-width:8.07644;stroke-linecap:round;stroke-linejoin:round;stroke-miterlimit:4;stroke-dasharray:none;stroke-dashoffset:2852.03;stroke-opacity:1"
           d="m -241.18493,1388.0164 c -3.38602,1.1113 -6.60392,2.0429 -9.63586,2.7805 v 26.1634 l 9.63586,5.212 z" />
        <path
           id="rect56188"
           style="fill:#e9c6af;fill-opacity:1;stroke:none;stroke-width:8.07644;stroke-linecap:round;stroke-linejoin:round;stroke-miterlimit:4;stroke-dasharray:none;stroke-dashoffset:2852.03;stroke-opacity:1"
           d="m -141.22939,1360.9484 v 78.8105 h 8.43597 c 6.64133,0 11.98817,-5.3467 11.98817,-11.988 v -55.8788 c -4.68118,-2.2881 -9.69078,-5.0413 -15.26331,-8.1262 -1.68952,-0.931 -3.42412,-1.8825 -5.16083,-2.8175 z" />
        <rect
           style="fill:#a05a2c;fill-opacity:1;stroke:none;stroke-width:2.7448;stroke-linecap:round;stroke-linejoin:round;stroke-miterlimit:4;stroke-dasharray:none;stroke-dashoffset:2852.03;stroke-opacity:1"
           id="rect56212"
           width="29.037539"
           height="34.187927"
           x="-181.94403"
           y="1403.3508"
           ry="4.6153698" />
        <rect
           style="fill:#a05a2c;fill-opacity:1;stroke:none;stroke-width:2.1289;stroke-linecap:round;stroke-linejoin:round;stroke-miterlimit:4;stroke-dasharray:none;stroke-dashoffset:2852.03;stroke-opacity:1"
           id="rect56352"
           width="26.373545"
           height="22.643953"
           x="-180.61205"
           y="1376.7109"
           ry="3.0569336" />
        <rect
           style="fill:#784421;fill-opacity:1;stroke:none;stroke-width:2.08945;stroke-linecap:round;stroke-linejoin:round;stroke-miterlimit:4;stroke-dasharray:none;stroke-dashoffset:2852.03;stroke-opacity:1"
           id="rect56372"
           width="22.104439"
           height="26.025105"
           x="-181.30305"
           y="1411.1997"
           ry="3.5133889" />
        <rect
           style="fill:#784421;fill-opacity:1;stroke:none;stroke-width:1.71567;stroke-linecap:round;stroke-linejoin:round;stroke-miterlimit:4;stroke-dasharray:none;stroke-dashoffset:2852.03;stroke-opacity:1"
           id="rect56464"
           width="21.254236"
           height="18.248587"
           x="-179.93613"
           y="1381.1062"
           ry="2.4635592" />
        <path
           id="path56732"
           style="fill:#c76a2b;fill-opacity:1;stroke-width:0.100465px"
           d="m -164.0902,1296.603 c -1.85397,-0.017 -3.68594,0.037 -5.49186,0.1579 a 75.977052,75.977052 0 0 0 -57.78886,73.7288 75.977052,75.977052 0 0 0 0.97424,11.9875 c 0.6614,-0.273 1.30807,-0.5296 1.97792,-0.8121 11.80549,-4.9804 23.26794,-10.7136 36.27296,-17.1268 5.77144,-2.6769 10.86215,-5.3221 15.258,-7.1931 2.34624,-0.9987 4.43367,-1.745 6.34463,-2.174 2.03371,-0.5334 3.58188,-0.9743 4.66204,-1.0923 1.06655,-0.2558 2.52331,-0.2368 4.1028,-0.068 2.21351,0.2486 5.18734,1.4517 8.58332,2.9264 4.21601,1.9003 8.81328,4.4521 13.12645,6.8289 10.14669,5.6171 18.4689,10.194 26.22954,12.7085 7.45275,2.4149 13.19053,2.4223 16.561711,-0.6514 3.326574,-3.0331 3.972195,-8.8031 2.09348,-16.4925 -1.842507,-7.5412 -6.348235,-17.6728 -14.099111,-28.5783 -3.50706,-4.9404 -8.0074,-10.3074 -13.78635,-15.63 -4.44897,-4.1802 -10.2511,-8.4639 -17.74726,-12.2064 -6.39269,-3.105 -13.67175,-5.2577 -21.67702,-6.0532 -1.88461,-0.157 -3.75145,-0.2429 -5.59663,-0.2596 z" />
        <path
           id="path56753"
           style="fill:#f29a5f;fill-opacity:1;stroke-width:0.0661595px"
           d="m -148.21737,1306.3408 c -1.21693,-0.099 -2.42274,-0.1507 -3.61465,-0.1566 a 50.033129,50.033129 0 0 0 -41.45104,45.6881 50.033129,50.033129 0 0 0 0.0718,7.9198 c 0.44736,-0.148 0.88425,-0.2859 1.33762,-0.4397 7.99013,-2.7117 15.79062,-5.9342 24.63652,-9.5303 3.91767,-1.4847 7.38672,-2.9809 10.36268,-4.0015 1.58839,-0.5448 2.99483,-0.936 4.27032,-1.1272 1.36106,-0.254 2.39883,-0.4702 3.1139,-0.4966 0.71265,-0.1174 1.66858,-0.036 2.69804,0.1496 1.44211,0.2682 3.33837,1.1994 5.49903,2.329 2.67912,1.4479 5.57777,3.3418 8.29812,5.1074 6.39837,4.1702 11.64768,7.5709 16.62587,9.5903 4.7807,1.9393 8.54905,2.216 10.90897,0.3569 2.32871,-1.8345 3.02622,-5.5938 2.15664,-10.7334 -0.85283,-5.0405 -3.33215,-11.9087 -7.90628,-19.439 -2.06938,-3.4111 -4.77096,-7.1496 -8.31446,-10.9195 -2.72409,-2.9564 -6.33204,-6.0451 -11.07833,-8.8585 -4.05171,-2.3423 -8.73074,-4.1012 -13.95108,-5.0032 -1.23041,-0.1923 -2.45253,-0.3372 -3.66369,-0.4356 z" />
      </g>
    </g>
    <g
       id="g58245"
       transform="matrix(0.70098221,0,0,0.70098221,-969.79569,233.17784)">
      <path
         style="fill:#aad400;stroke-width:0.156216px"
         d="m 1748.096,725.75065 c -0.863,-6.61608 -4.7752,-19.27308 -1.8985,-29.39891 2.8767,-10.12583 12.5419,-17.71996 22.9554,-14.78558 10.4134,2.93439 21.5744,16.39662 25.1988,26.40719 3.6244,10.01058 -0.2877,16.56912 3.4521,17.02929 3.7397,0.46016 15.1308,-5.17787 24.4511,-3.9695 9.3204,1.20836 16.5692,9.26264 18.18,18.4103 1.6107,9.14767 -2.4164,19.38813 -6.0984,25.02623 -3.6821,5.63809 -7.0189,6.67365 0.1153,3.91205 7.1341,-2.76161 24.7386,-9.32015 37.7985,-6.38576 13.0598,2.93438 21.5744,15.36109 21.114,25.60174 -0.4604,10.24065 -9.8954,18.295 -17.4897,22.55237 -7.5942,4.25737 -13.3473,4.71762 -3.6003,6.36465 9.747,1.64704 34.9927,4.48067 44.6582,6.43678 9.6656,1.95611 3.7498,3.03453 -41.3421,4.07589 -45.0919,1.04137 -129.3588,2.04562 -174.3638,0.89739 -45.0051,-1.14823 -50.7445,-4.44883 -45.891,-9.2085 4.8535,-4.75968 20.2997,-10.97782 21.4642,-18.22925 1.1645,-7.25142 -11.9525,-15.53585 -16.8508,-23.80064 -4.8984,-8.26479 -1.5455,-16.58915 3.9201,-23.03282 5.4657,-6.44366 13.0598,-11.04612 21.9199,-9.08986 8.8601,1.95626 18.9855,10.47083 22.6675,9.43516 3.682,-1.03567 0.9205,-11.62135 2.7615,-18.69792 1.8411,-7.07658 8.2846,-10.64351 14.6132,-10.35574 6.3286,0.28777 12.542,4.43002 16.7418,6.21344 4.1999,1.78341 6.386,1.20808 5.523,-5.408 z"
         id="path58239" />
      <path
         style="fill:#88aa00;stroke-width:0.133926px"
         d="m 1752.5355,738.064 c -0.7398,-5.67204 -4.0938,-16.52303 -1.6276,-25.20402 2.4662,-8.68098 10.7523,-15.19151 19.6799,-12.67584 8.9276,2.51569 18.496,14.05701 21.6032,22.63918 3.1073,8.58218 -0.2466,14.20489 2.9596,14.5994 3.2061,0.3945 12.9718,-4.43905 20.9622,-3.4031 7.9904,1.03594 14.2049,7.94097 15.5859,15.78336 1.3809,7.84239 -2.0716,16.62165 -5.2282,21.45526 -3.1567,4.8336 -6.0174,5.72139 0.099,3.35384 6.1161,-2.36755 21.2087,-7.99026 32.4051,-5.47458 11.1963,2.51568 18.496,13.16923 18.1012,21.94866 -0.3947,8.77942 -8.4834,15.6845 -14.9941,19.33439 -6.5106,3.64989 -11.4428,4.04447 -3.0865,5.45649 8.3562,1.41202 29.9996,3.84133 38.2859,5.51832 8.2864,1.677 3.2148,2.60154 -35.443,3.49431 -38.6578,0.89278 -110.9007,1.75373 -149.484,0.76934 -38.5834,-0.98439 -43.5039,-3.81403 -39.3429,-7.89455 4.161,-4.08053 17.4032,-9.41141 18.4015,-15.62814 0.9983,-6.21672 -10.247,-13.31905 -14.4464,-20.40455 -4.1994,-7.0855 -1.325,-14.22206 3.3608,-19.74629 4.6858,-5.52422 11.1963,-9.46996 18.7921,-7.79284 7.5959,1.67712 16.2765,8.97676 19.4331,8.08887 3.1567,-0.88789 0.7892,-9.96311 2.3675,-16.02994 1.5784,-6.06683 7.1025,-9.1248 12.5281,-8.87809 5.4255,0.24671 10.7524,3.79791 14.3529,5.32685 3.6006,1.52894 5.4748,1.0357 4.7349,-4.63633 z"
         id="path58241" />
      <path
         id="path58243"
         style="fill:#668000;stroke-width:0.590423px"
         d="m 6845.6426,2821.9824 a 472.64432,292.11025 32.272179 0 0 -214.0235,100.6524 472.64432,292.11025 32.272179 0 0 -10.1679,208.3925 c 161.4523,0.058 349.5141,-2.5315 467.3945,-5.2539 170.4261,-3.9358 192.7853,-8.013 156.2539,-15.4062 -36.531,-7.3932 -131.948,-18.1012 -168.7871,-24.3262 -36.8391,-6.225 -15.0951,-7.9658 13.6074,-24.0566 28.7029,-16.0909 64.3634,-46.5315 66.1035,-85.2364 1.7401,-38.7048 -30.4409,-85.6731 -79.8007,-96.7636 -49.3603,-11.0906 -115.8978,13.6972 -142.8614,24.1347 -26.9639,10.4376 -14.3521,6.5242 -0.4355,-14.7851 8.9219,-13.6617 18.3494,-34.4806 22.3847,-56.7695 a 472.64432,292.11025 32.272179 0 0 -109.6679,-10.5821 z"
         transform="scale(0.26458332)" />
    </g>
    <g
       id="g58237"
       transform="matrix(0.71411814,0,0,0.71411814,507.93995,-237.3005)">
      <g
         id="g58235"
         transform="translate(-1.1578236,50.944241)">
        <path
           id="path58213"
           style="fill:#c87137;fill-opacity:1;stroke:none;stroke-width:8.07644;stroke-linecap:round;stroke-linejoin:round;stroke-miterlimit:4;stroke-dasharray:none;stroke-dashoffset:2852.03;stroke-opacity:1"
           d="m -250.82083,1350.2548 v 66.7054 l 40.84787,22.0946 v -88.8 z" />
        <rect
           style="fill:#deaa87;fill-opacity:1;stroke:none;stroke-width:8.07644;stroke-linecap:round;stroke-linejoin:round;stroke-miterlimit:4;stroke-dasharray:none;stroke-dashoffset:2852.03;stroke-opacity:1"
           id="rect58215"
           width="96.791794"
           height="88.799812"
           x="-217.59715"
           y="1350.959"
           ry="11.987974" />
        <path
           style="fill:#aa4400;stroke-width:0.100465px"
           d="m -93.277412,1375.8229 c -3.37118,3.0737 -9.108798,3.0663 -16.561548,0.6515 -7.76064,-2.5146 -16.08298,-7.0915 -26.22967,-12.7085 0,0 0,0 0,0 -4.31317,-2.3769 -8.91046,-4.9286 -13.12647,-6.8288 -3.39598,-1.4748 -6.36965,-2.678 -8.58317,-2.9266 -1.57948,-0.1685 -3.03623,-0.1875 -4.10278,0.068 -1.08015,0.118 -2.62847,0.559 -4.66217,1.0924 -1.91096,0.429 -3.99836,1.1753 -6.3446,2.1739 -4.39585,1.8711 -9.48656,4.5163 -15.258,7.1932 -13.00501,6.4132 -24.46739,12.1463 -36.27289,17.1267 -13.26278,5.5944 -24.8882,9.349 -34.10876,10.641 -9.16746,1.2846 -15.71772,0.083 -18.56555,-4.0511 -2.8398,-4.1223 -1.65453,-10.6909 2.85837,-18.801 4.49046,-8.0697 12.39654,-17.8504 23.09171,-28.1107 9.07244,-8.7287 20.70718,-18.2972 34.58194,-27.0512 5.8651,-3.9014 13.06748,-7.9585 21.74504,-11.3564 4.63706,-1.8158 9.57682,-3.3964 14.81645,-4.6587 6.71192,-1.5351 13.96751,-2.0421 21.50598,-1.4143 8.00526,0.7955 15.28437,2.9481 21.67704,6.0531 7.49617,3.7425 13.29813,8.0263 17.74711,12.2064 5.77894,5.3226 10.27937,10.6897 13.78642,15.6301 0,0 0,0 0,0 7.750888,10.9056 12.256629,21.0371 14.099141,28.5783 1.878709,7.6893 1.23299,13.4593 -2.093593,16.4924 z"
           id="path58217" />
        <path
           id="path58219"
           style="fill:#a05a2c;fill-opacity:1;stroke:none;stroke-width:8.07644;stroke-linecap:round;stroke-linejoin:round;stroke-miterlimit:4;stroke-dasharray:none;stroke-dashoffset:2852.03;stroke-opacity:1"
           d="m -241.18493,1388.0164 c -3.38602,1.1113 -6.60392,2.0429 -9.63586,2.7805 v 26.1634 l 9.63586,5.212 z" />
        <path
           id="path58221"
           style="fill:#e9c6af;fill-opacity:1;stroke:none;stroke-width:8.07644;stroke-linecap:round;stroke-linejoin:round;stroke-miterlimit:4;stroke-dasharray:none;stroke-dashoffset:2852.03;stroke-opacity:1"
           d="m -141.22939,1360.9484 v 78.8105 h 8.43597 c 6.64133,0 11.98817,-5.3467 11.98817,-11.988 v -55.8788 c -4.68118,-2.2881 -9.69078,-5.0413 -15.26331,-8.1262 -1.68952,-0.931 -3.42412,-1.8825 -5.16083,-2.8175 z" />
        <rect
           style="fill:#a05a2c;fill-opacity:1;stroke:none;stroke-width:2.7448;stroke-linecap:round;stroke-linejoin:round;stroke-miterlimit:4;stroke-dasharray:none;stroke-dashoffset:2852.03;stroke-opacity:1"
           id="rect58223"
           width="29.037539"
           height="34.187927"
           x="-181.94403"
           y="1403.3508"
           ry="4.6153698" />
        <rect
           style="fill:#a05a2c;fill-opacity:1;stroke:none;stroke-width:2.1289;stroke-linecap:round;stroke-linejoin:round;stroke-miterlimit:4;stroke-dasharray:none;stroke-dashoffset:2852.03;stroke-opacity:1"
           id="rect58225"
           width="26.373545"
           height="22.643953"
           x="-180.61205"
           y="1376.7109"
           ry="3.0569336" />
        <rect
           style="fill:#784421;fill-opacity:1;stroke:none;stroke-width:2.08945;stroke-linecap:round;stroke-linejoin:round;stroke-miterlimit:4;stroke-dasharray:none;stroke-dashoffset:2852.03;stroke-opacity:1"
           id="rect58227"
           width="22.104439"
           height="26.025105"
           x="-181.30305"
           y="1411.1997"
           ry="3.5133889" />
        <rect
           style="fill:#784421;fill-opacity:1;stroke:none;stroke-width:1.71567;stroke-linecap:round;stroke-linejoin:round;stroke-miterlimit:4;stroke-dasharray:none;stroke-dashoffset:2852.03;stroke-opacity:1"
           id="rect58229"
           width="21.254236"
           height="18.248587"
           x="-179.93613"
           y="1381.1062"
           ry="2.4635592" />
        <path
           id="path58231"
           style="fill:#c76a2b;fill-opacity:1;stroke-width:0.100465px"
           d="m -164.0902,1296.603 c -1.85397,-0.017 -3.68594,0.037 -5.49186,0.1579 a 75.977052,75.977052 0 0 0 -57.78886,73.7288 75.977052,75.977052 0 0 0 0.97424,11.9875 c 0.6614,-0.273 1.30807,-0.5296 1.97792,-0.8121 11.80549,-4.9804 23.26794,-10.7136 36.27296,-17.1268 5.77144,-2.6769 10.86215,-5.3221 15.258,-7.1931 2.34624,-0.9987 4.43367,-1.745 6.34463,-2.174 2.03371,-0.5334 3.58188,-0.9743 4.66204,-1.0923 1.06655,-0.2558 2.52331,-0.2368 4.1028,-0.068 2.21351,0.2486 5.18734,1.4517 8.58332,2.9264 4.21601,1.9003 8.81328,4.4521 13.12645,6.8289 10.14669,5.6171 18.4689,10.194 26.22954,12.7085 7.45275,2.4149 13.19053,2.4223 16.561711,-0.6514 3.326574,-3.0331 3.972195,-8.8031 2.09348,-16.4925 -1.842507,-7.5412 -6.348235,-17.6728 -14.099111,-28.5783 -3.50706,-4.9404 -8.0074,-10.3074 -13.78635,-15.63 -4.44897,-4.1802 -10.2511,-8.4639 -17.74726,-12.2064 -6.39269,-3.105 -13.67175,-5.2577 -21.67702,-6.0532 -1.88461,-0.157 -3.75145,-0.2429 -5.59663,-0.2596 z" />
        <path
           id="path58233"
           style="fill:#f29a5f;fill-opacity:1;stroke-width:0.0661595px"
           d="m -148.21737,1306.3408 c -1.21693,-0.099 -2.42274,-0.1507 -3.61465,-0.1566 a 50.033129,50.033129 0 0 0 -41.45104,45.6881 50.033129,50.033129 0 0 0 0.0718,7.9198 c 0.44736,-0.148 0.88425,-0.2859 1.33762,-0.4397 7.99013,-2.7117 15.79062,-5.9342 24.63652,-9.5303 3.91767,-1.4847 7.38672,-2.9809 10.36268,-4.0015 1.58839,-0.5448 2.99483,-0.936 4.27032,-1.1272 1.36106,-0.254 2.39883,-0.4702 3.1139,-0.4966 0.71265,-0.1174 1.66858,-0.036 2.69804,0.1496 1.44211,0.2682 3.33837,1.1994 5.49903,2.329 2.67912,1.4479 5.57777,3.3418 8.29812,5.1074 6.39837,4.1702 11.64768,7.5709 16.62587,9.5903 4.7807,1.9393 8.54905,2.216 10.90897,0.3569 2.32871,-1.8345 3.02622,-5.5938 2.15664,-10.7334 -0.85283,-5.0405 -3.33215,-11.9087 -7.90628,-19.439 -2.06938,-3.4111 -4.77096,-7.1496 -8.31446,-10.9195 -2.72409,-2.9564 -6.33204,-6.0451 -11.07833,-8.8585 -4.05171,-2.3423 -8.73074,-4.1012 -13.95108,-5.0032 -1.23041,-0.1923 -2.45253,-0.3372 -3.66369,-0.4356 z" />
      </g>
    </g>
    <g
       id="g58253"
       transform="matrix(0.30559662,0,0,0.30559662,50.225994,557.61323)">
      <path
         style="fill:#aad400;stroke-width:0.156216px"
         d="m 1748.096,725.75065 c -0.863,-6.61608 -4.7752,-19.27308 -1.8985,-29.39891 2.8767,-10.12583 12.5419,-17.71996 22.9554,-14.78558 10.4134,2.93439 21.5744,16.39662 25.1988,26.40719 3.6244,10.01058 -0.2877,16.56912 3.4521,17.02929 3.7397,0.46016 15.1308,-5.17787 24.4511,-3.9695 9.3204,1.20836 16.5692,9.26264 18.18,18.4103 1.6107,9.14767 -2.4164,19.38813 -6.0984,25.02623 -3.6821,5.63809 -7.0189,6.67365 0.1153,3.91205 7.1341,-2.76161 24.7386,-9.32015 37.7985,-6.38576 13.0598,2.93438 21.5744,15.36109 21.114,25.60174 -0.4604,10.24065 -9.8954,18.295 -17.4897,22.55237 -7.5942,4.25737 -13.3473,4.71762 -3.6003,6.36465 9.747,1.64704 34.9927,4.48067 44.6582,6.43678 9.6656,1.95611 3.7498,3.03453 -41.3421,4.07589 -45.0919,1.04137 -129.3588,2.04562 -174.3638,0.89739 -45.0051,-1.14823 -50.7445,-4.44883 -45.891,-9.2085 4.8535,-4.75968 20.2997,-10.97782 21.4642,-18.22925 1.1645,-7.25142 -11.9525,-15.53585 -16.8508,-23.80064 -4.8984,-8.26479 -1.5455,-16.58915 3.9201,-23.03282 5.4657,-6.44366 13.0598,-11.04612 21.9199,-9.08986 8.8601,1.95626 18.9855,10.47083 22.6675,9.43516 3.682,-1.03567 0.9205,-11.62135 2.7615,-18.69792 1.8411,-7.07658 8.2846,-10.64351 14.6132,-10.35574 6.3286,0.28777 12.542,4.43002 16.7418,6.21344 4.1999,1.78341 6.386,1.20808 5.523,-5.408 z"
         id="path58247" />
      <path
         style="fill:#88aa00;stroke-width:0.133926px"
         d="m 1752.5355,738.064 c -0.7398,-5.67204 -4.0938,-16.52303 -1.6276,-25.20402 2.4662,-8.68098 10.7523,-15.19151 19.6799,-12.67584 8.9276,2.51569 18.496,14.05701 21.6032,22.63918 3.1073,8.58218 -0.2466,14.20489 2.9596,14.5994 3.2061,0.3945 12.9718,-4.43905 20.9622,-3.4031 7.9904,1.03594 14.2049,7.94097 15.5859,15.78336 1.3809,7.84239 -2.0716,16.62165 -5.2282,21.45526 -3.1567,4.8336 -6.0174,5.72139 0.099,3.35384 6.1161,-2.36755 21.2087,-7.99026 32.4051,-5.47458 11.1963,2.51568 18.496,13.16923 18.1012,21.94866 -0.3947,8.77942 -8.4834,15.6845 -14.9941,19.33439 -6.5106,3.64989 -11.4428,4.04447 -3.0865,5.45649 8.3562,1.41202 29.9996,3.84133 38.2859,5.51832 8.2864,1.677 3.2148,2.60154 -35.443,3.49431 -38.6578,0.89278 -110.9007,1.75373 -149.484,0.76934 -38.5834,-0.98439 -43.5039,-3.81403 -39.3429,-7.89455 4.161,-4.08053 17.4032,-9.41141 18.4015,-15.62814 0.9983,-6.21672 -10.247,-13.31905 -14.4464,-20.40455 -4.1994,-7.0855 -1.325,-14.22206 3.3608,-19.74629 4.6858,-5.52422 11.1963,-9.46996 18.7921,-7.79284 7.5959,1.67712 16.2765,8.97676 19.4331,8.08887 3.1567,-0.88789 0.7892,-9.96311 2.3675,-16.02994 1.5784,-6.06683 7.1025,-9.1248 12.5281,-8.87809 5.4255,0.24671 10.7524,3.79791 14.3529,5.32685 3.6006,1.52894 5.4748,1.0357 4.7349,-4.63633 z"
         id="path58249" />
      <path
         id="path58251"
         style="fill:#668000;stroke-width:0.590423px"
         d="m 6845.6426,2821.9824 a 472.64432,292.11025 32.272179 0 0 -214.0235,100.6524 472.64432,292.11025 32.272179 0 0 -10.1679,208.3925 c 161.4523,0.058 349.5141,-2.5315 467.3945,-5.2539 170.4261,-3.9358 192.7853,-8.013 156.2539,-15.4062 -36.531,-7.3932 -131.948,-18.1012 -168.7871,-24.3262 -36.8391,-6.225 -15.0951,-7.9658 13.6074,-24.0566 28.7029,-16.0909 64.3634,-46.5315 66.1035,-85.2364 1.7401,-38.7048 -30.4409,-85.6731 -79.8007,-96.7636 -49.3603,-11.0906 -115.8978,13.6972 -142.8614,24.1347 -26.9639,10.4376 -14.3521,6.5242 -0.4355,-14.7851 8.9219,-13.6617 18.3494,-34.4806 22.3847,-56.7695 a 472.64432,292.11025 32.272179 0 0 -109.6679,-10.5821 z"
         transform="scale(0.26458332)" />
    </g>
    <g
       id="g58357"
       transform="matrix(0.15362123,0,0,0.15362123,410.82669,683.49476)">
      <path
         style="fill:#aad400;stroke-width:0.156216px"
         d="m 1748.096,725.75065 c -0.863,-6.61608 -4.7752,-19.27308 -1.8985,-29.39891 2.8767,-10.12583 12.5419,-17.71996 22.9554,-14.78558 10.4134,2.93439 21.5744,16.39662 25.1988,26.40719 3.6244,10.01058 -0.2877,16.56912 3.4521,17.02929 3.7397,0.46016 15.1308,-5.17787 24.4511,-3.9695 9.3204,1.20836 16.5692,9.26264 18.18,18.4103 1.6107,9.14767 -2.4164,19.38813 -6.0984,25.02623 -3.6821,5.63809 -7.0189,6.67365 0.1153,3.91205 7.1341,-2.76161 24.7386,-9.32015 37.7985,-6.38576 13.0598,2.93438 21.5744,15.36109 21.114,25.60174 -0.4604,10.24065 -9.8954,18.295 -17.4897,22.55237 -7.5942,4.25737 -13.3473,4.71762 -3.6003,6.36465 9.747,1.64704 34.9927,4.48067 44.6582,6.43678 9.6656,1.95611 3.7498,3.03453 -41.3421,4.07589 -45.0919,1.04137 -129.3588,2.04562 -174.3638,0.89739 -45.0051,-1.14823 -50.7445,-4.44883 -45.891,-9.2085 4.8535,-4.75968 20.2997,-10.97782 21.4642,-18.22925 1.1645,-7.25142 -11.9525,-15.53585 -16.8508,-23.80064 -4.8984,-8.26479 -1.5455,-16.58915 3.9201,-23.03282 5.4657,-6.44366 13.0598,-11.04612 21.9199,-9.08986 8.8601,1.95626 18.9855,10.47083 22.6675,9.43516 3.682,-1.03567 0.9205,-11.62135 2.7615,-18.69792 1.8411,-7.07658 8.2846,-10.64351 14.6132,-10.35574 6.3286,0.28777 12.542,4.43002 16.7418,6.21344 4.1999,1.78341 6.386,1.20808 5.523,-5.408 z"
         id="path58351" />
      <path
         style="fill:#88aa00;stroke-width:0.133926px"
         d="m 1752.5355,738.064 c -0.7398,-5.67204 -4.0938,-16.52303 -1.6276,-25.20402 2.4662,-8.68098 10.7523,-15.19151 19.6799,-12.67584 8.9276,2.51569 18.496,14.05701 21.6032,22.63918 3.1073,8.58218 -0.2466,14.20489 2.9596,14.5994 3.2061,0.3945 12.9718,-4.43905 20.9622,-3.4031 7.9904,1.03594 14.2049,7.94097 15.5859,15.78336 1.3809,7.84239 -2.0716,16.62165 -5.2282,21.45526 -3.1567,4.8336 -6.0174,5.72139 0.099,3.35384 6.1161,-2.36755 21.2087,-7.99026 32.4051,-5.47458 11.1963,2.51568 18.496,13.16923 18.1012,21.94866 -0.3947,8.77942 -8.4834,15.6845 -14.9941,19.33439 -6.5106,3.64989 -11.4428,4.04447 -3.0865,5.45649 8.3562,1.41202 29.9996,3.84133 38.2859,5.51832 8.2864,1.677 3.2148,2.60154 -35.443,3.49431 -38.6578,0.89278 -110.9007,1.75373 -149.484,0.76934 -38.5834,-0.98439 -43.5039,-3.81403 -39.3429,-7.89455 4.161,-4.08053 17.4032,-9.41141 18.4015,-15.62814 0.9983,-6.21672 -10.247,-13.31905 -14.4464,-20.40455 -4.1994,-7.0855 -1.325,-14.22206 3.3608,-19.74629 4.6858,-5.52422 11.1963,-9.46996 18.7921,-7.79284 7.5959,1.67712 16.2765,8.97676 19.4331,8.08887 3.1567,-0.88789 0.7892,-9.96311 2.3675,-16.02994 1.5784,-6.06683 7.1025,-9.1248 12.5281,-8.87809 5.4255,0.24671 10.7524,3.79791 14.3529,5.32685 3.6006,1.52894 5.4748,1.0357 4.7349,-4.63633 z"
         id="path58353" />
      <path
         id="path58355"
         style="fill:#668000;stroke-width:0.590423px"
         d="m 6845.6426,2821.9824 a 472.64432,292.11025 32.272179 0 0 -214.0235,100.6524 472.64432,292.11025 32.272179 0 0 -10.1679,208.3925 c 161.4523,0.058 349.5141,-2.5315 467.3945,-5.2539 170.4261,-3.9358 192.7853,-8.013 156.2539,-15.4062 -36.531,-7.3932 -131.948,-18.1012 -168.7871,-24.3262 -36.8391,-6.225 -15.0951,-7.9658 13.6074,-24.0566 28.7029,-16.0909 64.3634,-46.5315 66.1035,-85.2364 1.7401,-38.7048 -30.4409,-85.6731 -79.8007,-96.7636 -49.3603,-11.0906 -115.8978,13.6972 -142.8614,24.1347 -26.9639,10.4376 -14.3521,6.5242 -0.4355,-14.7851 8.9219,-13.6617 18.3494,-34.4806 22.3847,-56.7695 a 472.64432,292.11025 32.272179 0 0 -109.6679,-10.5821 z"
         transform="scale(0.26458332)" />
    </g>
    <g
       id="g67631"
       transform="matrix(0.28045583,0,0,0.28045583,-405.23039,578.92814)">
      <path
         style="fill:#aad400;stroke-width:0.156216px"
         d="m 1748.096,725.75065 c -0.863,-6.61608 -4.7752,-19.27308 -1.8985,-29.39891 2.8767,-10.12583 12.5419,-17.71996 22.9554,-14.78558 10.4134,2.93439 21.5744,16.39662 25.1988,26.40719 3.6244,10.01058 -0.2877,16.56912 3.4521,17.02929 3.7397,0.46016 15.1308,-5.17787 24.4511,-3.9695 9.3204,1.20836 16.5692,9.26264 18.18,18.4103 1.6107,9.14767 -2.4164,19.38813 -6.0984,25.02623 -3.6821,5.63809 -7.0189,6.67365 0.1153,3.91205 7.1341,-2.76161 24.7386,-9.32015 37.7985,-6.38576 13.0598,2.93438 21.5744,15.36109 21.114,25.60174 -0.4604,10.24065 -9.8954,18.295 -17.4897,22.55237 -7.5942,4.25737 -13.3473,4.71762 -3.6003,6.36465 9.747,1.64704 34.9927,4.48067 44.6582,6.43678 9.6656,1.95611 3.7498,3.03453 -41.3421,4.07589 -45.0919,1.04137 -129.3588,2.04562 -174.3638,0.89739 -45.0051,-1.14823 -50.7445,-4.44883 -45.891,-9.2085 4.8535,-4.75968 20.2997,-10.97782 21.4642,-18.22925 1.1645,-7.25142 -11.9525,-15.53585 -16.8508,-23.80064 -4.8984,-8.26479 -1.5455,-16.58915 3.9201,-23.03282 5.4657,-6.44366 13.0598,-11.04612 21.9199,-9.08986 8.8601,1.95626 18.9855,10.47083 22.6675,9.43516 3.682,-1.03567 0.9205,-11.62135 2.7615,-18.69792 1.8411,-7.07658 8.2846,-10.64351 14.6132,-10.35574 6.3286,0.28777 12.542,4.43002 16.7418,6.21344 4.1999,1.78341 6.386,1.20808 5.523,-5.408 z"
         id="path67625" />
      <path
         style="fill:#88aa00;stroke-width:0.133926px"
         d="m 1752.5355,738.064 c -0.7398,-5.67204 -4.0938,-16.52303 -1.6276,-25.20402 2.4662,-8.68098 10.7523,-15.19151 19.6799,-12.67584 8.9276,2.51569 18.496,14.05701 21.6032,22.63918 3.1073,8.58218 -0.2466,14.20489 2.9596,14.5994 3.2061,0.3945 12.9718,-4.43905 20.9622,-3.4031 7.9904,1.03594 14.2049,7.94097 15.5859,15.78336 1.3809,7.84239 -2.0716,16.62165 -5.2282,21.45526 -3.1567,4.8336 -6.0174,5.72139 0.099,3.35384 6.1161,-2.36755 21.2087,-7.99026 32.4051,-5.47458 11.1963,2.51568 18.496,13.16923 18.1012,21.94866 -0.3947,8.77942 -8.4834,15.6845 -14.9941,19.33439 -6.5106,3.64989 -11.4428,4.04447 -3.0865,5.45649 8.3562,1.41202 29.9996,3.84133 38.2859,5.51832 8.2864,1.677 3.2148,2.60154 -35.443,3.49431 -38.6578,0.89278 -110.9007,1.75373 -149.484,0.76934 -38.5834,-0.98439 -43.5039,-3.81403 -39.3429,-7.89455 4.161,-4.08053 17.4032,-9.41141 18.4015,-15.62814 0.9983,-6.21672 -10.247,-13.31905 -14.4464,-20.40455 -4.1994,-7.0855 -1.325,-14.22206 3.3608,-19.74629 4.6858,-5.52422 11.1963,-9.46996 18.7921,-7.79284 7.5959,1.67712 16.2765,8.97676 19.4331,8.08887 3.1567,-0.88789 0.7892,-9.96311 2.3675,-16.02994 1.5784,-6.06683 7.1025,-9.1248 12.5281,-8.87809 5.4255,0.24671 10.7524,3.79791 14.3529,5.32685 3.6006,1.52894 5.4748,1.0357 4.7349,-4.63633 z"
         id="path67627" />
      <path
         id="path67629"
         style="fill:#668000;stroke-width:0.590423px"
         d="m 6845.6426,2821.9824 a 472.64432,292.11025 32.272179 0 0 -214.0235,100.6524 472.64432,292.11025 32.272179 0 0 -10.1679,208.3925 c 161.4523,0.058 349.5141,-2.5315 467.3945,-5.2539 170.4261,-3.9358 192.7853,-8.013 156.2539,-15.4062 -36.531,-7.3932 -131.948,-18.1012 -168.7871,-24.3262 -36.8391,-6.225 -15.0951,-7.9658 13.6074,-24.0566 28.7029,-16.0909 64.3634,-46.5315 66.1035,-85.2364 1.7401,-38.7048 -30.4409,-85.6731 -79.8007,-96.7636 -49.3603,-11.0906 -115.8978,13.6972 -142.8614,24.1347 -26.9639,10.4376 -14.3521,6.5242 -0.4355,-14.7851 8.9219,-13.6617 18.3494,-34.4806 22.3847,-56.7695 a 472.64432,292.11025 32.272179 0 0 -109.6679,-10.5821 z"
         transform="scale(0.26458332)" />
    </g>
    <g
       id="g67639"
       transform="matrix(0.23833242,0,0,0.23833242,845.55518,614.16409)">
      <path
         style="fill:#aad400;stroke-width:0.156216px"
         d="m 1748.096,725.75065 c -0.863,-6.61608 -4.7752,-19.27308 -1.8985,-29.39891 2.8767,-10.12583 12.5419,-17.71996 22.9554,-14.78558 10.4134,2.93439 21.5744,16.39662 25.1988,26.40719 3.6244,10.01058 -0.2877,16.56912 3.4521,17.02929 3.7397,0.46016 15.1308,-5.17787 24.4511,-3.9695 9.3204,1.20836 16.5692,9.26264 18.18,18.4103 1.6107,9.14767 -2.4164,19.38813 -6.0984,25.02623 -3.6821,5.63809 -7.0189,6.67365 0.1153,3.91205 7.1341,-2.76161 24.7386,-9.32015 37.7985,-6.38576 13.0598,2.93438 21.5744,15.36109 21.114,25.60174 -0.4604,10.24065 -9.8954,18.295 -17.4897,22.55237 -7.5942,4.25737 -13.3473,4.71762 -3.6003,6.36465 9.747,1.64704 34.9927,4.48067 44.6582,6.43678 9.6656,1.95611 3.7498,3.03453 -41.3421,4.07589 -45.0919,1.04137 -129.3588,2.04562 -174.3638,0.89739 -45.0051,-1.14823 -50.7445,-4.44883 -45.891,-9.2085 4.8535,-4.75968 20.2997,-10.97782 21.4642,-18.22925 1.1645,-7.25142 -11.9525,-15.53585 -16.8508,-23.80064 -4.8984,-8.26479 -1.5455,-16.58915 3.9201,-23.03282 5.4657,-6.44366 13.0598,-11.04612 21.9199,-9.08986 8.8601,1.95626 18.9855,10.47083 22.6675,9.43516 3.682,-1.03567 0.9205,-11.62135 2.7615,-18.69792 1.8411,-7.07658 8.2846,-10.64351 14.6132,-10.35574 6.3286,0.28777 12.542,4.43002 16.7418,6.21344 4.1999,1.78341 6.386,1.20808 5.523,-5.408 z"
         id="path67633" />
      <path
         style="fill:#88aa00;stroke-width:0.133926px"
         d="m 1752.5355,738.064 c -0.7398,-5.67204 -4.0938,-16.52303 -1.6276,-25.20402 2.4662,-8.68098 10.7523,-15.19151 19.6799,-12.67584 8.9276,2.51569 18.496,14.05701 21.6032,22.63918 3.1073,8.58218 -0.2466,14.20489 2.9596,14.5994 3.2061,0.3945 12.9718,-4.43905 20.9622,-3.4031 7.9904,1.03594 14.2049,7.94097 15.5859,15.78336 1.3809,7.84239 -2.0716,16.62165 -5.2282,21.45526 -3.1567,4.8336 -6.0174,5.72139 0.099,3.35384 6.1161,-2.36755 21.2087,-7.99026 32.4051,-5.47458 11.1963,2.51568 18.496,13.16923 18.1012,21.94866 -0.3947,8.77942 -8.4834,15.6845 -14.9941,19.33439 -6.5106,3.64989 -11.4428,4.04447 -3.0865,5.45649 8.3562,1.41202 29.9996,3.84133 38.2859,5.51832 8.2864,1.677 3.2148,2.60154 -35.443,3.49431 -38.6578,0.89278 -110.9007,1.75373 -149.484,0.76934 -38.5834,-0.98439 -43.5039,-3.81403 -39.3429,-7.89455 4.161,-4.08053 17.4032,-9.41141 18.4015,-15.62814 0.9983,-6.21672 -10.247,-13.31905 -14.4464,-20.40455 -4.1994,-7.0855 -1.325,-14.22206 3.3608,-19.74629 4.6858,-5.52422 11.1963,-9.46996 18.7921,-7.79284 7.5959,1.67712 16.2765,8.97676 19.4331,8.08887 3.1567,-0.88789 0.7892,-9.96311 2.3675,-16.02994 1.5784,-6.06683 7.1025,-9.1248 12.5281,-8.87809 5.4255,0.24671 10.7524,3.79791 14.3529,5.32685 3.6006,1.52894 5.4748,1.0357 4.7349,-4.63633 z"
         id="path67635" />
      <path
         id="path67637"
         style="fill:#668000;stroke-width:0.590423px"
         d="m 6845.6426,2821.9824 a 472.64432,292.11025 32.272179 0 0 -214.0235,100.6524 472.64432,292.11025 32.272179 0 0 -10.1679,208.3925 c 161.4523,0.058 349.5141,-2.5315 467.3945,-5.2539 170.4261,-3.9358 192.7853,-8.013 156.2539,-15.4062 -36.531,-7.3932 -131.948,-18.1012 -168.7871,-24.3262 -36.8391,-6.225 -15.0951,-7.9658 13.6074,-24.0566 28.7029,-16.0909 64.3634,-46.5315 66.1035,-85.2364 1.7401,-38.7048 -30.4409,-85.6731 -79.8007,-96.7636 -49.3603,-11.0906 -115.8978,13.6972 -142.8614,24.1347 -26.9639,10.4376 -14.3521,6.5242 -0.4355,-14.7851 8.9219,-13.6617 18.3494,-34.4806 22.3847,-56.7695 a 472.64432,292.11025 32.272179 0 0 -109.6679,-10.5821 z"
         transform="scale(0.26458332)" />
    </g>
  </g>
</svg>
