<?xml version="1.0" encoding="UTF-8" standalone="no"?>
<!-- Created with Inkscape (http://www.inkscape.org/) -->

<svg
   version="1.1"
   id="svg1"
   width="880"
   height="880"
   viewBox="0 0 880 880"
   sodipodi:docname="train-railway-.svg"
   inkscape:version="1.3.2 (091e20e, 2023-11-25, custom)"
   xmlns:inkscape="http://www.inkscape.org/namespaces/inkscape"
   xmlns:sodipodi="http://sodipodi.sourceforge.net/DTD/sodipodi-0.dtd"
   xmlns="http://www.w3.org/2000/svg"
   xmlns:svg="http://www.w3.org/2000/svg">
  <defs
     id="defs1">
    <clipPath
       clipPathUnits="userSpaceOnUse"
       id="clipPath4">
      <path
         d="M 0,660 H 660 V 0 H 0 Z"
         transform="translate(-42.509801,-329.81101)"
         id="path4" />
    </clipPath>
    <clipPath
       clipPathUnits="userSpaceOnUse"
       id="clipPath6">
      <path
         d="M 0,660 H 660 V 0 H 0 Z"
         transform="translate(-105.69141,-399.01271)"
         id="path6" />
    </clipPath>
    <clipPath
       clipPathUnits="userSpaceOnUse"
       id="clipPath8">
      <path
         d="M 0,660 H 660 V 0 H 0 Z"
         transform="translate(-105.0273,-401.47511)"
         id="path8" />
    </clipPath>
    <clipPath
       clipPathUnits="userSpaceOnUse"
       id="clipPath10">
      <path
         d="M 0,660 H 660 V 0 H 0 Z"
         transform="translate(-104.23,-399.01271)"
         id="path10" />
    </clipPath>
    <clipPath
       clipPathUnits="userSpaceOnUse"
       id="clipPath12">
      <path
         d="M 0,660 H 660 V 0 H 0 Z"
         transform="translate(-104.23,-399.01271)"
         id="path12" />
    </clipPath>
    <clipPath
       clipPathUnits="userSpaceOnUse"
       id="clipPath14">
      <path
         d="M 0,660 H 660 V 0 H 0 Z"
         transform="translate(-104.23,-399.01271)"
         id="path14" />
    </clipPath>
    <clipPath
       clipPathUnits="userSpaceOnUse"
       id="clipPath16">
      <path
         d="M 0,660 H 660 V 0 H 0 Z"
         transform="translate(-195.9067,-398.97071)"
         id="path16" />
    </clipPath>
    <clipPath
       clipPathUnits="userSpaceOnUse"
       id="clipPath18">
      <path
         d="M 0,660 H 660 V 0 H 0 Z"
         transform="translate(-194.4453,-396.38231)"
         id="path18" />
    </clipPath>
    <clipPath
       clipPathUnits="userSpaceOnUse"
       id="clipPath20">
      <path
         d="M 0,660 H 660 V 0 H 0 Z"
         transform="translate(-194.4453,-398.97071)"
         id="path20" />
    </clipPath>
    <clipPath
       clipPathUnits="userSpaceOnUse"
       id="clipPath22">
      <path
         d="M 0,660 H 660 V 0 H 0 Z"
         transform="translate(-194.4453,-398.97071)"
         id="path22" />
    </clipPath>
    <clipPath
       clipPathUnits="userSpaceOnUse"
       id="clipPath24">
      <path
         d="M 0,660 H 660 V 0 H 0 Z"
         transform="translate(-194.4453,-398.97071)"
         id="path24" />
    </clipPath>
    <clipPath
       clipPathUnits="userSpaceOnUse"
       id="clipPath26">
      <path
         d="M 0,660 H 660 V 0 H 0 Z"
         transform="translate(-270.4834,-374.00101)"
         id="path26" />
    </clipPath>
    <clipPath
       clipPathUnits="userSpaceOnUse"
       id="clipPath28">
      <path
         d="M 0,660 H 660 V 0 H 0 Z"
         transform="translate(-269.02291,-371.41211)"
         id="path28" />
    </clipPath>
    <clipPath
       clipPathUnits="userSpaceOnUse"
       id="clipPath30">
      <path
         d="M 0,660 H 660 V 0 H 0 Z"
         transform="translate(-269.02291,-374.00101)"
         id="path30" />
    </clipPath>
    <clipPath
       clipPathUnits="userSpaceOnUse"
       id="clipPath32">
      <path
         d="M 0,660 H 660 V 0 H 0 Z"
         transform="translate(-269.02291,-374.00101)"
         id="path32" />
    </clipPath>
    <clipPath
       clipPathUnits="userSpaceOnUse"
       id="clipPath34">
      <path
         d="M 0,660 H 660 V 0 H 0 Z"
         transform="translate(-269.02291,-374.00101)"
         id="path34" />
    </clipPath>
    <clipPath
       clipPathUnits="userSpaceOnUse"
       id="clipPath36">
      <path
         d="M 0,660 H 660 V 0 H 0 Z"
         transform="translate(-659.41802,-319.60551)"
         id="path36" />
    </clipPath>
    <clipPath
       clipPathUnits="userSpaceOnUse"
       id="clipPath38">
      <path
         d="M 0,660 H 660 V 0 H 0 Z"
         transform="translate(-98.263202,-342.53911)"
         id="path38" />
    </clipPath>
    <clipPath
       clipPathUnits="userSpaceOnUse"
       id="clipPath40">
      <path
         d="M 0,660 H 660 V 0 H 0 Z"
         id="path40" />
    </clipPath>
    <clipPath
       clipPathUnits="userSpaceOnUse"
       id="clipPath42">
      <path
         d="M 0,660 H 660 V 0 H 0 Z"
         transform="translate(-659.41802,-209.48731)"
         id="path42" />
    </clipPath>
    <clipPath
       clipPathUnits="userSpaceOnUse"
       id="clipPath44">
      <path
         d="M 0,660 H 660 V 0 H 0 Z"
         id="path44" />
    </clipPath>
    <clipPath
       clipPathUnits="userSpaceOnUse"
       id="clipPath46">
      <path
         d="M 0,660 H 660 V 0 H 0 Z"
         transform="translate(0,-332.50731)"
         id="path46" />
    </clipPath>
    <clipPath
       clipPathUnits="userSpaceOnUse"
       id="clipPath48">
      <path
         d="M 0,660 H 660 V 0 H 0 Z"
         transform="translate(-542.52052,0.50199751)"
         id="path48" />
    </clipPath>
    <clipPath
       clipPathUnits="userSpaceOnUse"
       id="clipPath50">
      <path
         d="M 0,660 H 660 V 0 H 0 Z"
         transform="translate(-488.87891,-596.58061)"
         id="path50" />
    </clipPath>
    <clipPath
       clipPathUnits="userSpaceOnUse"
       id="clipPath52">
      <path
         d="M 0,660 H 660 V 0 H 0 Z"
         transform="translate(-103.2969,-546.51811)"
         id="path52" />
    </clipPath>
    <clipPath
       clipPathUnits="userSpaceOnUse"
       id="clipPath54">
      <path
         d="M 0,660 H 660 V 0 H 0 Z"
         transform="translate(-266.45361,-611.25202)"
         id="path54" />
    </clipPath>
    <clipPath
       clipPathUnits="userSpaceOnUse"
       id="clipPath56">
      <path
         d="M 0,660 H 660 V 0 H 0 Z"
         transform="translate(-383.58891,-541.70651)"
         id="path56" />
    </clipPath>
    <clipPath
       clipPathUnits="userSpaceOnUse"
       id="clipPath58">
      <path
         d="M 0,660 H 660 V 0 H 0 Z"
         transform="translate(-659.41802,-40.742199)"
         id="path58" />
    </clipPath>
    <clipPath
       clipPathUnits="userSpaceOnUse"
       id="clipPath60">
      <path
         d="M 0,660 H 660 V 0 H 0 Z"
         id="path60" />
    </clipPath>
    <clipPath
       clipPathUnits="userSpaceOnUse"
       id="clipPath62">
      <path
         d="M 0,660 H 660 V 0 H 0 Z"
         transform="translate(-364.00101,-229.70901)"
         id="path62" />
    </clipPath>
    <clipPath
       clipPathUnits="userSpaceOnUse"
       id="clipPath64">
      <path
         d="M 0,660 H 660 V 0 H 0 Z"
         transform="translate(-364.00101,-229.70901)"
         id="path64" />
    </clipPath>
    <clipPath
       clipPathUnits="userSpaceOnUse"
       id="clipPath66">
      <path
         d="M 0,660 H 660 V 0 H 0 Z"
         transform="translate(-385.53811,-233.5381)"
         id="path66" />
    </clipPath>
    <clipPath
       clipPathUnits="userSpaceOnUse"
       id="clipPath68">
      <path
         d="M 0,660 H 660 V 0 H 0 Z"
         transform="translate(-452.03031,-236.42191)"
         id="path68" />
    </clipPath>
    <clipPath
       clipPathUnits="userSpaceOnUse"
       id="clipPath70">
      <path
         d="M 0,660 H 660 V 0 H 0 Z"
         transform="translate(-521.76562,-234.8584)"
         id="path70" />
    </clipPath>
    <clipPath
       clipPathUnits="userSpaceOnUse"
       id="clipPath72">
      <path
         d="M 0,660 H 660 V 0 H 0 Z"
         transform="translate(-456.96481,-233.5381)"
         id="path72" />
    </clipPath>
    <clipPath
       clipPathUnits="userSpaceOnUse"
       id="clipPath74">
      <path
         d="M 0,660 H 660 V 0 H 0 Z"
         id="path74" />
    </clipPath>
    <clipPath
       clipPathUnits="userSpaceOnUse"
       id="clipPath76">
      <path
         d="M 0,660 H 660 V 0 H 0 Z"
         id="path76" />
    </clipPath>
    <clipPath
       clipPathUnits="userSpaceOnUse"
       id="clipPath78">
      <path
         d="M 0,660 H 660 V 0 H 0 Z"
         transform="translate(-534.99802,-236.42191)"
         id="path78" />
    </clipPath>
    <clipPath
       clipPathUnits="userSpaceOnUse"
       id="clipPath80">
      <path
         d="M 0,660 H 660 V 0 H 0 Z"
         transform="translate(-604.73342,-234.8584)"
         id="path80" />
    </clipPath>
    <clipPath
       clipPathUnits="userSpaceOnUse"
       id="clipPath82">
      <path
         d="M 0,660 H 660 V 0 H 0 Z"
         transform="translate(-539.93362,-233.5381)"
         id="path82" />
    </clipPath>
    <clipPath
       clipPathUnits="userSpaceOnUse"
       id="clipPath84">
      <path
         d="M 0,660 H 660 V 0 H 0 Z"
         id="path84" />
    </clipPath>
    <clipPath
       clipPathUnits="userSpaceOnUse"
       id="clipPath86">
      <path
         d="M 0,660 H 660 V 0 H 0 Z"
         transform="translate(-617.00591,-236.42191)"
         id="path86" />
    </clipPath>
    <clipPath
       clipPathUnits="userSpaceOnUse"
       id="clipPath88">
      <path
         d="M 0,660 H 660 V 0 H 0 Z"
         transform="translate(-659.41802,-228.65721)"
         id="path88" />
    </clipPath>
    <clipPath
       clipPathUnits="userSpaceOnUse"
       id="clipPath90">
      <path
         d="M 0,660 H 660 V 0 H 0 Z"
         transform="translate(-621.93851,-233.5381)"
         id="path90" />
    </clipPath>
    <clipPath
       clipPathUnits="userSpaceOnUse"
       id="clipPath92">
      <path
         d="M 0,660 H 660 V 0 H 0 Z"
         id="path92" />
    </clipPath>
    <clipPath
       clipPathUnits="userSpaceOnUse"
       id="clipPath94">
      <path
         d="M 0,660 H 660 V 0 H 0 Z"
         transform="translate(-69.283202,-211.46481)"
         id="path94" />
    </clipPath>
    <clipPath
       clipPathUnits="userSpaceOnUse"
       id="clipPath96">
      <path
         d="M 0,660 H 660 V 0 H 0 Z"
         transform="translate(-99.354505,-192.14841)"
         id="path96" />
    </clipPath>
    <clipPath
       clipPathUnits="userSpaceOnUse"
       id="clipPath98">
      <path
         d="M 0,660 H 660 V 0 H 0 Z"
         transform="translate(-139.7407,-185.5645)"
         id="path98" />
    </clipPath>
    <clipPath
       clipPathUnits="userSpaceOnUse"
       id="clipPath100">
      <path
         d="M 0,660 H 660 V 0 H 0 Z"
         transform="translate(-161.47071,-208.39261)"
         id="path100" />
    </clipPath>
    <clipPath
       clipPathUnits="userSpaceOnUse"
       id="clipPath102">
      <path
         d="M 0,660 H 660 V 0 H 0 Z"
         transform="translate(-127.8877,-175.46781)"
         id="path102" />
    </clipPath>
    <clipPath
       clipPathUnits="userSpaceOnUse"
       id="clipPath104">
      <path
         d="M 0,660 H 660 V 0 H 0 Z"
         transform="translate(-207.7837,-167.1279)"
         id="path104" />
    </clipPath>
    <clipPath
       clipPathUnits="userSpaceOnUse"
       id="clipPath106">
      <path
         d="M 0,660 H 660 V 0 H 0 Z"
         transform="translate(-221.8315,-164.49321)"
         id="path106" />
    </clipPath>
    <clipPath
       clipPathUnits="userSpaceOnUse"
       id="clipPath108">
      <path
         d="M 0,660 H 660 V 0 H 0 Z"
         transform="translate(-284.60791,-137.2764)"
         id="path108" />
    </clipPath>
    <clipPath
       clipPathUnits="userSpaceOnUse"
       id="clipPath110">
      <path
         d="M 0,660 H 660 V 0 H 0 Z"
         transform="translate(-355.50291,-148.6914)"
         id="path110" />
    </clipPath>
    <clipPath
       clipPathUnits="userSpaceOnUse"
       id="clipPath112">
      <path
         d="M 0,660 H 660 V 0 H 0 Z"
         transform="translate(-400.71971,-115.32711)"
         id="path112" />
    </clipPath>
    <clipPath
       clipPathUnits="userSpaceOnUse"
       id="clipPath114">
      <path
         d="M 0,660 H 660 V 0 H 0 Z"
         transform="translate(-431.66801,-106.1074)"
         id="path114" />
    </clipPath>
    <clipPath
       clipPathUnits="userSpaceOnUse"
       id="clipPath116">
      <path
         d="M 0,660 H 660 V 0 H 0 Z"
         transform="translate(-341.28131,-137.2764)"
         id="path116" />
    </clipPath>
    <clipPath
       clipPathUnits="userSpaceOnUse"
       id="clipPath118">
      <path
         d="M 0,660 H 660 V 0 H 0 Z"
         transform="translate(-389.30571,-138.5938)"
         id="path118" />
    </clipPath>
    <clipPath
       clipPathUnits="userSpaceOnUse"
       id="clipPath120">
      <path
         d="M 0,660 H 660 V 0 H 0 Z"
         transform="translate(-269.6821,-130.251)"
         id="path120" />
    </clipPath>
    <clipPath
       clipPathUnits="userSpaceOnUse"
       id="clipPath122">
      <path
         d="M 0,660 H 660 V 0 H 0 Z"
         transform="translate(-171.7495,-184.8799)"
         id="path122" />
    </clipPath>
    <clipPath
       clipPathUnits="userSpaceOnUse"
       id="clipPath124">
      <path
         d="M 0,660 H 660 V 0 H 0 Z"
         transform="translate(-173.2593,-324.79981)"
         id="path124" />
    </clipPath>
    <clipPath
       clipPathUnits="userSpaceOnUse"
       id="clipPath126">
      <path
         d="M 0,660 H 660 V 0 H 0 Z"
         transform="translate(-183.4072,-322.95311)"
         id="path126" />
    </clipPath>
    <clipPath
       clipPathUnits="userSpaceOnUse"
       id="clipPath128">
      <path
         d="M 0,660 H 660 V 0 H 0 Z"
         transform="translate(-195.79491,-309.51171)"
         id="path128" />
    </clipPath>
    <clipPath
       clipPathUnits="userSpaceOnUse"
       id="clipPath130">
      <path
         d="M 0,660 H 660 V 0 H 0 Z"
         transform="translate(-215.16801,-286.31641)"
         id="path130" />
    </clipPath>
    <clipPath
       clipPathUnits="userSpaceOnUse"
       id="clipPath132">
      <path
         d="M 0,660 H 660 V 0 H 0 Z"
         transform="translate(-233.09131,-272.08401)"
         id="path132" />
    </clipPath>
    <clipPath
       clipPathUnits="userSpaceOnUse"
       id="clipPath134">
      <path
         d="M 0,660 H 660 V 0 H 0 Z"
         transform="translate(-252.59571,-255.21291)"
         id="path134" />
    </clipPath>
    <clipPath
       clipPathUnits="userSpaceOnUse"
       id="clipPath136">
      <path
         d="M 0,660 H 660 V 0 H 0 Z"
         transform="translate(-227.4238,-272.3467)"
         id="path136" />
    </clipPath>
    <clipPath
       clipPathUnits="userSpaceOnUse"
       id="clipPath138">
      <path
         d="M 0,660 H 660 V 0 H 0 Z"
         transform="translate(-153.0952,-345.35691)"
         id="path138" />
    </clipPath>
    <clipPath
       clipPathUnits="userSpaceOnUse"
       id="clipPath140">
      <path
         d="M 0,660 H 660 V 0 H 0 Z"
         transform="translate(-201.0664,-301.86721)"
         id="path140" />
    </clipPath>
    <clipPath
       clipPathUnits="userSpaceOnUse"
       id="clipPath142">
      <path
         d="M 0,660 H 660 V 0 H 0 Z"
         transform="translate(-551.51171,-185.127)"
         id="path142" />
    </clipPath>
    <clipPath
       clipPathUnits="userSpaceOnUse"
       id="clipPath144">
      <path
         d="M 0,660 H 660 V 0 H 0 Z"
         transform="translate(-491.80861,-181.6143)"
         id="path144" />
    </clipPath>
    <clipPath
       clipPathUnits="userSpaceOnUse"
       id="clipPath146">
      <path
         d="M 0,660 H 660 V 0 H 0 Z"
         transform="translate(-615.82232,-161.86041)"
         id="path146" />
    </clipPath>
    <clipPath
       clipPathUnits="userSpaceOnUse"
       id="clipPath148">
      <path
         d="M 0,660 H 660 V 0 H 0 Z"
         transform="translate(-607.48241,-173.3242)"
         id="path148" />
    </clipPath>
    <clipPath
       clipPathUnits="userSpaceOnUse"
       id="clipPath150">
      <path
         d="M 0,660 H 660 V 0 H 0 Z"
         transform="translate(-558.42481,-190.833)"
         id="path150" />
    </clipPath>
    <clipPath
       clipPathUnits="userSpaceOnUse"
       id="clipPath152">
      <path
         d="M 0,660 H 660 V 0 H 0 Z"
         transform="translate(-486.42971,-176.78421)"
         id="path152" />
    </clipPath>
    <clipPath
       clipPathUnits="userSpaceOnUse"
       id="clipPath154">
      <path
         d="M 0,660 H 660 V 0 H 0 Z"
         transform="translate(-512.00002,-177.6631)"
         id="path154" />
    </clipPath>
    <clipPath
       clipPathUnits="userSpaceOnUse"
       id="clipPath156">
      <path
         d="M 0,660 H 660 V 0 H 0 Z"
         transform="translate(-441.43461,-177.4434)"
         id="path156" />
    </clipPath>
    <clipPath
       clipPathUnits="userSpaceOnUse"
       id="clipPath158">
      <path
         d="M 0,660 H 660 V 0 H 0 Z"
         transform="translate(-413.55861,-179.6377)"
         id="path158" />
    </clipPath>
    <clipPath
       clipPathUnits="userSpaceOnUse"
       id="clipPath160">
      <path
         d="M 0,660 H 660 V 0 H 0 Z"
         transform="translate(-421.02151,-183.5889)"
         id="path160" />
    </clipPath>
    <clipPath
       clipPathUnits="userSpaceOnUse"
       id="clipPath162">
      <path
         d="M 0,660 H 660 V 0 H 0 Z"
         transform="translate(-426.30961,-176.5117)"
         id="path162" />
    </clipPath>
    <clipPath
       clipPathUnits="userSpaceOnUse"
       id="clipPath164">
      <path
         d="M 0,660 H 660 V 0 H 0 Z"
         transform="translate(-594.98731,-141.6201)"
         id="path164" />
    </clipPath>
    <clipPath
       clipPathUnits="userSpaceOnUse"
       id="clipPath166">
      <path
         d="M 0,660 H 660 V 0 H 0 Z"
         transform="translate(-542.22661,-151.28031)"
         id="path166" />
    </clipPath>
    <clipPath
       clipPathUnits="userSpaceOnUse"
       id="clipPath168">
      <path
         d="M 0,660 H 660 V 0 H 0 Z"
         transform="translate(-501.32231,-129.5938)"
         id="path168" />
    </clipPath>
    <clipPath
       clipPathUnits="userSpaceOnUse"
       id="clipPath170">
      <path
         d="M 0,660 H 660 V 0 H 0 Z"
         transform="translate(-418.57321,-116.6445)"
         id="path170" />
    </clipPath>
    <clipPath
       clipPathUnits="userSpaceOnUse"
       id="clipPath172">
      <path
         d="M 0,660 H 660 V 0 H 0 Z"
         transform="translate(-140.00781,-159.2803)"
         id="path172" />
    </clipPath>
    <clipPath
       clipPathUnits="userSpaceOnUse"
       id="clipPath174">
      <path
         d="M 0,660 H 660 V 0 H 0 Z"
         transform="translate(-188.86821,-123.49221)"
         id="path174" />
    </clipPath>
    <clipPath
       clipPathUnits="userSpaceOnUse"
       id="clipPath176">
      <path
         d="M 0,660 H 660 V 0 H 0 Z"
         transform="translate(-224.33641,-145.3984)"
         id="path176" />
    </clipPath>
    <clipPath
       clipPathUnits="userSpaceOnUse"
       id="clipPath178">
      <path
         d="M 0,660 H 660 V 0 H 0 Z"
         transform="translate(-31.138701,-150.50001)"
         id="path178" />
    </clipPath>
  </defs>
  <sodipodi:namedview
     id="namedview1"
     pagecolor="#ffffff"
     bordercolor="#000000"
     borderopacity="0.25"
     inkscape:showpageshadow="2"
     inkscape:pageopacity="0.0"
     inkscape:pagecheckerboard="0"
     inkscape:deskcolor="#d1d1d1"
     inkscape:zoom="0.67272727"
     inkscape:cx="439.25676"
     inkscape:cy="440"
     inkscape:window-width="1440"
     inkscape:window-height="830"
     inkscape:window-x="-6"
     inkscape:window-y="-6"
     inkscape:window-maximized="1"
     inkscape:current-layer="g1">
    <inkscape:page
       x="0"
       y="0"
       inkscape:label="1"
       id="page1"
       width="880"
       height="880"
       margin="0 0.77600002 1.4466667 0"
       bleed="0" />
  </sodipodi:namedview>
  <g
     id="g1"
     inkscape:groupmode="layer"
     inkscape:label="1">
    <g
       id="group-MC0">
      <path
         id="path2"
         d="M 0,0 H 659.418 V 658.915 H 0 Z"
         style="fill:#e6f3fc;fill-opacity:1;fill-rule:nonzero;stroke:none"
         transform="matrix(1.3333333,0,0,-1.3333333,0,880)" />
      <path
         id="path3"
         d="m 0,0 102.622,102.202 c 55.127,54.902 138.607,64.638 203.847,27.519 27.019,-15.373 58.358,-14.142 84.086,3.306 34.83,23.621 80.756,20.731 112.519,-7.787 l 16.428,-14.749 c 27.317,-24.524 67.423,-25.905 96.36,-3.317 l 1.046,0.817 v -287.099 l -535.07,2.298 z"
         style="fill:#cce6f8;fill-opacity:1;fill-rule:evenodd;stroke:none"
         transform="matrix(1.3333333,0,0,-1.3333333,56.679733,440.252)"
         clip-path="url(#clipPath4)" />
      <path
         id="path5"
         d="m 0,0 0.629,-16.462 2.092,-54.654 h -4.182 -4.182 l 2.09,54.654 L -2.922,0 Z"
         style="fill:#ffffff;fill-opacity:1;fill-rule:evenodd;stroke:none"
         transform="matrix(1.3333333,0,0,-1.3333333,140.92187,347.98307)"
         clip-path="url(#clipPath6)" />
      <path
         id="path7"
         d="m 0,0 c 1.36,-0.44 2.106,-1.9 1.665,-3.26 -0.44,-1.36 -1.9,-2.106 -3.26,-1.665 -1.36,0.441 -2.105,1.9 -1.665,3.26 C -2.819,-0.304 -1.36,0.441 0,0"
         style="fill:#ffffff;fill-opacity:1;fill-rule:evenodd;stroke:none"
         transform="matrix(1.3333333,0,0,-1.3333333,140.0364,344.69987)"
         clip-path="url(#clipPath8)" />
      <path
         id="path9"
         d="M 0,0 12.088,37.327 13.301,37.51 5.423,4.992 Z"
         style="fill:#ffffff;fill-opacity:1;fill-rule:evenodd;stroke:none"
         transform="matrix(1.3333333,0,0,-1.3333333,138.97333,347.98307)"
         clip-path="url(#clipPath10)" />
      <path
         id="path11"
         d="m 0,0 -38.37,-8.195 -0.766,0.959 32.1,9.437 z"
         style="fill:#ffffff;fill-opacity:1;fill-rule:evenodd;stroke:none"
         transform="matrix(1.3333333,0,0,-1.3333333,138.97333,347.98307)"
         clip-path="url(#clipPath12)" />
      <path
         id="path13"
         d="M 0,0 26.282,-29.131 25.834,-30.274 1.612,-7.193 Z"
         style="fill:#ffffff;fill-opacity:1;fill-rule:evenodd;stroke:none"
         transform="matrix(1.3333333,0,0,-1.3333333,138.97333,347.98307)"
         clip-path="url(#clipPath14)" />
      <path
         id="path15"
         d="m 0,0 0.629,-16.462 2.092,-54.654 h -4.182 -4.182 l 2.09,54.654 L -2.922,0 Z"
         style="fill:#ffffff;fill-opacity:1;fill-rule:evenodd;stroke:none"
         transform="matrix(1.3333333,0,0,-1.3333333,261.20893,348.03907)"
         clip-path="url(#clipPath16)" />
      <path
         id="path17"
         d="M 0,0 C 1.426,0 2.589,1.163 2.589,2.588 2.589,4.014 1.426,5.177 0,5.177 -1.425,5.177 -2.588,4.014 -2.588,2.588 -2.588,1.163 -1.425,0 0,0"
         style="fill:#ffffff;fill-opacity:1;fill-rule:evenodd;stroke:none"
         transform="matrix(1.3333333,0,0,-1.3333333,259.2604,351.49027)"
         clip-path="url(#clipPath18)" />
      <path
         id="path19"
         d="m 0,0 -18.766,34.456 0.702,1.007 L 0.109,7.371 Z"
         style="fill:#ffffff;fill-opacity:1;fill-rule:evenodd;stroke:none"
         transform="matrix(1.3333333,0,0,-1.3333333,259.2604,348.03907)"
         clip-path="url(#clipPath20)" />
      <path
         id="path21"
         d="m 0,0 -20.457,-33.48 -1.222,0.103 15.24,29.787 z"
         style="fill:#ffffff;fill-opacity:1;fill-rule:evenodd;stroke:none"
         transform="matrix(1.3333333,0,0,-1.3333333,259.2604,348.03907)"
         clip-path="url(#clipPath22)" />
      <path
         id="path23"
         d="M 0,0 39.223,-0.976 39.745,-2.087 6.328,-3.78 Z"
         style="fill:#ffffff;fill-opacity:1;fill-rule:evenodd;stroke:none"
         transform="matrix(1.3333333,0,0,-1.3333333,259.2604,348.03907)"
         clip-path="url(#clipPath24)" />
      <path
         id="path25"
         d="M 0,0 0.629,-16.463 2.721,-71.116 H -1.461 -5.643 L -3.552,-16.463 -2.923,0 Z"
         style="fill:#ffffff;fill-opacity:1;fill-rule:evenodd;stroke:none"
         transform="matrix(1.3333333,0,0,-1.3333333,360.64453,381.332)"
         clip-path="url(#clipPath26)" />
      <path
         id="path27"
         d="M 0,0 C 1.426,0 2.588,1.163 2.588,2.589 2.588,4.015 1.426,5.177 0,5.177 -1.426,5.177 -2.589,4.015 -2.589,2.589 -2.589,1.163 -1.426,0 0,0"
         style="fill:#ffffff;fill-opacity:1;fill-rule:evenodd;stroke:none"
         transform="matrix(1.3333333,0,0,-1.3333333,358.6972,384.78387)"
         clip-path="url(#clipPath28)" />
      <path
         id="path29"
         d="M 0,0 V 39.235 L 1.098,39.783 3.621,6.421 Z"
         style="fill:#ffffff;fill-opacity:1;fill-rule:evenodd;stroke:none"
         transform="matrix(1.3333333,0,0,-1.3333333,358.6972,381.332)"
         clip-path="url(#clipPath30)" />
      <path
         id="path31"
         d="m 0,0 -33.979,-19.618 -1.024,0.677 27.631,18.867 z"
         style="fill:#ffffff;fill-opacity:1;fill-rule:evenodd;stroke:none"
         transform="matrix(1.3333333,0,0,-1.3333333,358.6972,381.332)"
         clip-path="url(#clipPath32)" />
      <path
         id="path33"
         d="M 0,0 33.978,-19.618 33.905,-20.843 3.75,-6.347 Z"
         style="fill:#ffffff;fill-opacity:1;fill-rule:evenodd;stroke:none"
         transform="matrix(1.3333333,0,0,-1.3333333,358.6972,381.332)"
         clip-path="url(#clipPath34)" />
      <path
         id="path35"
         d="m 0,0 -39.104,22.576 c -42.529,24.554 -92.681,23.568 -132.884,-0.641 -29.354,-17.677 -60.491,-23.112 -94.096,-16.421 -46.214,9.2 -92.992,-2.535 -131.042,-33.84 l -39.541,-32.531 198.385,-164.783 H 0 Z"
         style="fill:#b3d8f3;fill-opacity:1;fill-rule:evenodd;stroke:none"
         transform="matrix(1.3333333,0,0,-1.3333333,879.224,453.85933)"
         clip-path="url(#clipPath36)" />
      <path
         id="path37"
         d="m 0,0 h 67.029 c 54.891,0 103.558,-15.907 145.493,-47.514 43.52,-32.801 90.309,-48.513 144.808,-48.623 20.959,-0.043 39.51,-5.356 56.427,-16.214 15.716,-10.088 32.115,-14.241 50.738,-12.85 33.459,2.499 62.207,18.389 82.705,45.894 l 13.955,18.728 v -224.859 l -488.283,49.263 z"
         style="fill:#85b5e4;fill-opacity:1;fill-rule:evenodd;stroke:none"
         transform="matrix(1.3333333,0,0,-1.3333333,131.0176,423.2812)"
         clip-path="url(#clipPath38)" />
      <path
         id="path39"
         d="M 659.418,221.833 H 197.912 v -9.218 h 461.506 z"
         style="fill:#ffffff;fill-opacity:1;fill-rule:evenodd;stroke:none"
         transform="matrix(1.3333333,0,0,-1.3333333,0,880)"
         clip-path="url(#clipPath40)" />
      <path
         id="path41"
         d="m 0,0 h -420.024 v -156.665 h 24.585 v 120.502 c 0,33.975 51.361,33.975 51.361,0 v -120.502 h 15.891 v 120.502 c 0,33.975 51.362,33.975 51.362,0 v -120.502 h 15.891 v 120.502 c 0,33.975 51.362,33.975 51.362,0 v -120.502 h 15.891 v 120.502 c 0,33.975 51.362,33.975 51.362,0 v -120.502 h 15.89 v 120.502 c 0,33.975 51.361,33.975 51.361,0 v -120.502 h 15.893 v 120.502 c 0,33.975 51.361,33.975 51.361,0 V -156.665 H 0 Z"
         style="fill:#ffffff;fill-opacity:1;fill-rule:evenodd;stroke:none"
         transform="matrix(1.3333333,0,0,-1.3333333,879.224,600.6836)"
         clip-path="url(#clipPath42)" />
      <path
         id="path43"
         d="M 659.418,209.487 H 197.912 v 3.512 h 461.506 z"
         style="fill:#e6f3fc;fill-opacity:1;fill-rule:evenodd;stroke:none"
         transform="matrix(1.3333333,0,0,-1.3333333,0,880)"
         clip-path="url(#clipPath44)" />
      <path
         id="path45"
         d="m 0,0 1.319,1.321 c 20.361,20.36 45.177,30.59 73.972,30.493 28.795,-0.097 53.541,-10.493 73.765,-30.992 l 89.73,-90.948 c 16.367,-16.588 36.86,-24.547 60.134,-23.356 18.526,0.949 36.707,-5.478 51.27,-18.704 40.481,-36.766 91.699,-50.336 145.074,-38.435 51.192,11.415 104.899,-0.48 148.526,-34.868 l 15.628,-12.314 V -333.009 H 0 Z"
         style="fill:#6398d7;fill-opacity:1;fill-rule:evenodd;stroke:none"
         transform="matrix(1.3333333,0,0,-1.3333333,0,436.65693)"
         clip-path="url(#clipPath46)" />
      <path
         id="path47"
         d="m 0,0 -123.065,81.121 c -27.656,18.229 -60.346,22.464 -90.04,13.136 -39.459,-12.402 -79.638,-2.904 -109.369,25.848 l -10,9.67 c -21.338,20.638 -50.229,28.858 -77.584,24.703 -42.796,-6.497 -82.706,8.633 -110.433,41.873 l -22.03,26.409 V 0 Z"
         style="fill:#4172c1;fill-opacity:1;fill-rule:evenodd;stroke:none"
         transform="matrix(1.3333333,0,0,-1.3333333,723.36067,880.66933)"
         clip-path="url(#clipPath48)" />
      <path
         id="path49"
         d="m 0,0 c 2.301,2.76 5.061,4.369 8.028,4.369 1.484,0 2.915,-0.401 4.261,-1.147 3.464,-1.918 7.431,-1.764 10.735,0.418 2.438,1.607 5.067,2.484 7.811,2.484 2.592,0 5.084,-0.784 7.408,-2.227 4.178,-2.596 9.448,-1.959 12.89,1.558 2.603,2.662 5.612,4.181 8.816,4.181 3.673,0 7.088,-1.996 9.932,-5.421 3.032,-3.651 7.953,-4.78 12.275,-2.817 1.743,0.793 3.57,1.214 5.449,1.214 3.854,0 7.477,-1.766 10.638,-4.873 6.193,-6.091 13.302,-9.512 21.924,-10.556 l 6.705,-0.812 H -27.157 l 2.701,0.327 C -14.532,-12.101 -6.402,-7.679 0,0"
         style="fill:#ffffff;fill-opacity:1;fill-rule:evenodd;stroke:none"
         transform="matrix(1.3333333,0,0,-1.3333333,651.83853,84.5592)"
         clip-path="url(#clipPath50)" />
      <path
         id="path51"
         d="m 0,0 c 1.613,0 3.176,-0.221 4.659,-0.632 5.72,-1.591 11.328,-0.496 16.031,3.129 4.348,3.349 9.795,5.342 15.706,5.342 7.601,0 14.431,-3.292 19.145,-8.527 3.501,-3.889 7.964,-5.93 13.195,-6.036 0.157,-0.003 0.315,-0.008 0.472,-0.015 5.378,-0.228 10.095,1.646 13.851,5.502 4.78,4.908 11.459,7.956 18.852,7.956 9.06,0 17.049,-4.578 21.783,-11.547 2.404,-3.537 5.524,-5.861 9.603,-7.149 4.47,-1.413 8.132,-4.645 10.117,-8.828 2.629,-5.542 7.368,-9.133 13.413,-10.169 l 13.695,-2.344 H 67.475 -35.573 l 3.132,0.536 c 8.388,1.436 14.518,8.198 15.128,16.686 C -16.666,-7.099 -9.162,0 0,0"
         style="fill:#ffffff;fill-opacity:1;fill-rule:evenodd;stroke:none"
         transform="matrix(1.3333333,0,0,-1.3333333,137.7292,151.3092)"
         clip-path="url(#clipPath52)" />
      <path
         id="path53"
         d="m 0,0 c -1.046,1.254 -2.3,1.985 -3.649,1.985 -0.675,0 -1.324,-0.182 -1.937,-0.521 -1.575,-0.872 -3.376,-0.801 -4.88,0.19 -1.106,0.73 -2.301,1.129 -3.549,1.129 -1.178,0 -2.31,-0.356 -3.365,-1.012 -1.9,-1.179 -4.295,-0.89 -5.858,0.707 -1.183,1.211 -2.551,1.901 -4.007,1.901 -1.669,0 -3.222,-0.907 -4.516,-2.464 -1.377,-1.658 -3.613,-2.171 -5.576,-1.28 -0.793,0.361 -1.623,0.552 -2.478,0.552 -1.751,0 -3.397,-0.802 -4.834,-2.215 -2.815,-2.768 -6.045,-4.323 -9.964,-4.797 l -3.048,-0.369 h 70.002 l -1.226,0.149 C 6.604,-5.5 2.91,-3.49 0,0"
         style="fill:#ffffff;fill-opacity:1;fill-rule:evenodd;stroke:none"
         transform="matrix(1.3333333,0,0,-1.3333333,355.27147,64.997333)"
         clip-path="url(#clipPath54)" />
      <path
         id="path55"
         d="m 0,0 c 2.061,0 4.058,-0.282 5.951,-0.807 7.31,-2.032 14.473,-0.633 20.483,3.997 5.553,4.28 12.513,6.826 20.067,6.826 9.71,0 18.437,-4.206 24.458,-10.894 4.475,-4.968 10.176,-7.576 16.859,-7.712 0.202,-0.004 0.402,-0.01 0.602,-0.018 6.872,-0.292 12.897,2.102 17.696,7.029 6.108,6.27 14.642,10.165 24.087,10.165 11.575,0 21.783,-5.85 27.831,-14.753 3.069,-4.519 7.057,-7.488 12.267,-9.134 5.713,-1.804 10.391,-5.934 12.927,-11.279 3.361,-7.079 9.411,-11.668 17.136,-12.991 l 17.496,-2.995 H 86.206 -45.449 l 4.001,0.684 c 10.718,1.835 18.55,10.473 19.328,21.318 C -21.294,-9.068 -11.707,0 0,0"
         style="fill:#ffffff;fill-opacity:1;fill-rule:evenodd;stroke:none"
         transform="matrix(1.3333333,0,0,-1.3333333,511.45187,157.72467)"
         clip-path="url(#clipPath56)" />
      <path
         id="path57"
         d="m 0,0 v -41.244 h -659.418 v 27.231 c 34.71,1.972 69.9,-18.019 119.818,9.986 55.461,31.115 63.144,-35.568 157.008,-6.873 60.692,18.553 59.331,-29.867 172.157,4.615 50.854,15.542 84.023,-23.053 133.303,-0.526 C -49.783,5.69 -23.738,6.773 0,0"
         style="fill:#315eb3;fill-opacity:1;fill-rule:evenodd;stroke:none"
         transform="matrix(1.3333333,0,0,-1.3333333,879.224,825.67707)"
         clip-path="url(#clipPath58)" />
      <path
         id="path59"
         d="m 405.018,224.544 h 224.303 v 8.996 H 405.018 Z"
         style="fill:#6398d7;fill-opacity:1;fill-rule:evenodd;stroke:none"
         transform="matrix(1.3333333,0,0,-1.3333333,0,880)"
         clip-path="url(#clipPath60)" />
      <path
         id="path61"
         d="m 0,0 2.368,1.499 c 5.619,3.56 11.326,5.214 17.98,5.214 h 51.436 c 3.658,0 6.641,-2.984 6.641,-6.642 v -0.326 c 0,-3.658 -2.983,-6.641 -6.641,-6.641 H 1.999 c -1.689,0 -3.117,1.076 -3.589,2.697 C -2.059,-2.578 -1.426,-0.903 0,0"
         style="fill:#ffffff;fill-opacity:1;fill-rule:evenodd;stroke:none"
         transform="matrix(1.3333333,0,0,-1.3333333,485.33467,573.72133)"
         clip-path="url(#clipPath62)" />
      <path
         id="path63"
         d="m 0,0 2.368,1.499 c 2.51,1.589 5.037,2.799 7.658,3.65 h 66.03 C 77.503,3.93 78.425,2.105 78.425,0.071 v -0.326 c 0,-0.27 -0.016,-0.536 -0.047,-0.797 H -1.097 C -0.816,-0.644 -0.447,-0.283 0,0"
         style="fill:#6398d7;fill-opacity:1;fill-rule:evenodd;stroke:none"
         transform="matrix(1.3333333,0,0,-1.3333333,485.33467,573.72133)"
         clip-path="url(#clipPath64)" />
      <path
         id="path65"
         d="m 0,0 v 0 c 0.723,0 1.315,-0.592 1.315,-1.316 v -0.988 c 0,-0.725 -0.592,-1.317 -1.315,-1.317 -0.727,0 -1.318,0.592 -1.318,1.317 v 0.988 C -1.318,-0.592 -0.727,0 0,0 m 6.493,0 v 0 c 0.723,0 1.316,-0.592 1.316,-1.316 v -0.988 c 0,-0.725 -0.593,-1.317 -1.316,-1.317 -0.726,0 -1.317,0.592 -1.317,1.317 v 0.988 C 5.176,-0.592 5.767,0 6.493,0 m 6.493,0 v 0 c 0.725,0 1.317,-0.592 1.317,-1.316 v -0.988 c 0,-0.725 -0.592,-1.317 -1.317,-1.317 -0.725,0 -1.317,0.592 -1.317,1.317 v 0.988 c 0,0.724 0.592,1.316 1.317,1.316 m 6.493,0 v 0 c 0.725,0 1.317,-0.592 1.317,-1.316 v -0.988 c 0,-0.725 -0.592,-1.317 -1.317,-1.317 -0.724,0 -1.317,0.592 -1.317,1.317 v 0.988 c 0,0.724 0.593,1.316 1.317,1.316 m 6.494,0 v 0 c 0.724,0 1.316,-0.592 1.316,-1.316 v -0.988 c 0,-0.725 -0.592,-1.317 -1.316,-1.317 -0.726,0 -1.318,0.592 -1.318,1.317 v 0.988 c 0,0.724 0.592,1.316 1.318,1.316 m 6.493,0 v 0 c 0.724,0 1.316,-0.592 1.316,-1.316 v -0.988 c 0,-0.725 -0.592,-1.317 -1.316,-1.317 -0.726,0 -1.318,0.592 -1.318,1.317 v 0.988 C 31.148,-0.592 31.74,0 32.466,0 m 6.494,0 v 0 c 0.725,0 1.315,-0.592 1.315,-1.316 v -0.988 c 0,-0.725 -0.59,-1.317 -1.315,-1.317 -0.725,0 -1.317,0.592 -1.317,1.317 v 0.988 C 37.643,-0.592 38.235,0 38.96,0 m 6.493,0 v 0 c 0.725,0 1.317,-0.592 1.317,-1.316 v -0.988 c 0,-0.725 -0.592,-1.317 -1.317,-1.317 -0.725,0 -1.317,0.592 -1.317,1.317 v 0.988 c 0,0.724 0.592,1.316 1.317,1.316 m 6.493,0 v 0 c 0.725,0 1.317,-0.592 1.317,-1.316 v -0.988 c 0,-0.725 -0.592,-1.317 -1.317,-1.317 -0.724,0 -1.317,0.592 -1.317,1.317 v 0.988 c 0,0.724 0.593,1.316 1.317,1.316 m -58.44,0 v 0 c 0.723,0 1.316,-0.592 1.316,-1.316 v -0.988 c 0,-0.725 -0.593,-1.317 -1.316,-1.317 -0.726,0 -1.317,0.592 -1.317,1.317 v 0.988 C -7.811,-0.592 -7.22,0 -6.494,0"
         style="fill:#ffffff;fill-opacity:1;fill-rule:evenodd;stroke:none"
         transform="matrix(1.3333333,0,0,-1.3333333,514.0508,568.61587)"
         clip-path="url(#clipPath66)" />
      <path
         id="path67"
         d="m 0,0 h 65.408 c 3.744,0 6.806,-3.061 6.806,-6.805 0,-3.742 -3.062,-6.803 -6.806,-6.803 H 0 c -3.744,0 -6.807,3.061 -6.807,6.803 C -6.807,-3.061 -3.744,0 0,0"
         style="fill:#ffffff;fill-opacity:1;fill-rule:evenodd;stroke:none"
         transform="matrix(1.3333333,0,0,-1.3333333,602.70707,564.7708)"
         clip-path="url(#clipPath68)" />
      <path
         id="path69"
         d="m 0,0 c 1.512,-1.252 2.479,-3.138 2.479,-5.241 0,-0.326 -0.027,-0.647 -0.07,-0.96 h -78.882 c -0.045,0.313 -0.069,0.634 -0.069,0.96 0,2.103 0.966,3.989 2.479,5.241 z"
         style="fill:#6398d7;fill-opacity:1;fill-rule:evenodd;stroke:none"
         transform="matrix(1.3333333,0,0,-1.3333333,695.68747,566.85547)"
         clip-path="url(#clipPath70)" />
      <path
         id="path71"
         d="m 0,0 v 0 c 0.725,0 1.317,-0.592 1.317,-1.316 v -0.988 c 0,-0.725 -0.592,-1.317 -1.317,-1.317 -0.725,0 -1.318,0.592 -1.318,1.317 v 0.988 C -1.318,-0.592 -0.725,0 0,0 m 6.272,0 v 0 c 0.724,0 1.317,-0.592 1.317,-1.316 v -0.988 c 0,-0.725 -0.593,-1.317 -1.317,-1.317 -0.725,0 -1.318,0.592 -1.318,1.317 v 0.988 C 4.954,-0.592 5.547,0 6.272,0 m 6.271,0 v 0 c 0.725,0 1.318,-0.592 1.318,-1.316 v -0.988 c 0,-0.725 -0.593,-1.317 -1.318,-1.317 -0.725,0 -1.315,0.592 -1.315,1.317 v 0.988 c 0,0.724 0.59,1.316 1.315,1.316 m 6.272,0 v 0 c 0.725,0 1.318,-0.592 1.318,-1.316 v -0.988 c 0,-0.725 -0.593,-1.317 -1.318,-1.317 -0.724,0 -1.316,0.592 -1.316,1.317 v 0.988 c 0,0.724 0.592,1.316 1.316,1.316 m 6.272,0 v 0 c 0.725,0 1.317,-0.592 1.317,-1.316 v -0.988 c 0,-0.725 -0.592,-1.317 -1.317,-1.317 -0.725,0 -1.315,0.592 -1.315,1.317 v 0.988 c 0,0.724 0.59,1.316 1.315,1.316 m 6.272,0 v 0 c 0.724,0 1.318,-0.592 1.318,-1.316 v -0.988 c 0,-0.725 -0.594,-1.317 -1.318,-1.317 -0.725,0 -1.317,0.592 -1.317,1.317 v 0.988 c 0,0.724 0.592,1.316 1.317,1.316 m 6.271,0 v 0 c 0.727,0 1.317,-0.592 1.317,-1.316 v -0.988 c 0,-0.725 -0.59,-1.317 -1.317,-1.317 -0.723,0 -1.315,0.592 -1.315,1.317 v 0.988 C 36.315,-0.592 36.907,0 37.63,0 m 6.273,0 v 0 c 0.726,0 1.318,-0.592 1.318,-1.316 v -0.988 c 0,-0.725 -0.592,-1.317 -1.318,-1.317 -0.725,0 -1.317,0.592 -1.317,1.317 v 0.988 c 0,0.724 0.592,1.316 1.317,1.316 m 6.274,0 v 0 c 0.723,0 1.314,-0.592 1.314,-1.316 v -0.988 c 0,-0.725 -0.591,-1.317 -1.314,-1.317 -0.726,0 -1.318,0.592 -1.318,1.317 v 0.988 c 0,0.724 0.592,1.316 1.318,1.316 m 6.27,0 v 0 c 0.726,0 1.318,-0.592 1.318,-1.316 v -0.988 c 0,-0.725 -0.592,-1.317 -1.318,-1.317 -0.723,0 -1.317,0.592 -1.317,1.317 v 0.988 C 55.13,-0.592 55.724,0 56.447,0 m 6.274,0 v 0 c 0.722,0 1.317,-0.592 1.317,-1.316 v -0.988 c 0,-0.725 -0.595,-1.317 -1.317,-1.317 -0.727,0 -1.319,0.592 -1.319,1.317 v 0.988 C 61.402,-0.592 61.994,0 62.721,0 M -6.272,0 v 0 c 0.724,0 1.316,-0.592 1.316,-1.316 v -0.988 c 0,-0.725 -0.592,-1.317 -1.316,-1.317 -0.725,0 -1.318,0.592 -1.318,1.317 v 0.988 C -7.59,-0.592 -6.997,0 -6.272,0"
         style="fill:#ffffff;fill-opacity:1;fill-rule:evenodd;stroke:none"
         transform="matrix(1.3333333,0,0,-1.3333333,609.2864,568.61587)"
         clip-path="url(#clipPath72)" />
      <path
         id="path73"
         d="m 501.58,224.544 h 12.292 v -4.83 H 501.58 Z m -45.984,0 h 12.292 v -4.83 h -12.292 z"
         style="fill:#ffffff;fill-opacity:1;fill-rule:evenodd;stroke:none"
         transform="matrix(1.3333333,0,0,-1.3333333,0,880)"
         clip-path="url(#clipPath74)" />
      <path
         id="path75"
         d="m 419.269,224.544 h 12.292 v -4.83 h -12.292 z m -45.984,0 h 12.293 v -4.83 h -12.293 z"
         style="fill:#ffffff;fill-opacity:1;fill-rule:evenodd;stroke:none"
         transform="matrix(1.3333333,0,0,-1.3333333,0,880)"
         clip-path="url(#clipPath76)" />
      <path
         id="path77"
         d="m 0,0 h 65.408 c 3.744,0 6.805,-3.061 6.805,-6.805 0,-3.742 -3.061,-6.803 -6.805,-6.803 H 0 c -3.744,0 -6.805,3.061 -6.805,6.803 C -6.805,-3.061 -3.744,0 0,0"
         style="fill:#ffffff;fill-opacity:1;fill-rule:evenodd;stroke:none"
         transform="matrix(1.3333333,0,0,-1.3333333,713.33067,564.7708)"
         clip-path="url(#clipPath78)" />
      <path
         id="path79"
         d="m 0,0 c 1.512,-1.252 2.477,-3.138 2.477,-5.241 0,-0.326 -0.022,-0.647 -0.068,-0.96 h -78.881 c -0.045,0.313 -0.068,0.634 -0.068,0.96 0,2.103 0.966,3.989 2.477,5.241 z"
         style="fill:#6398d7;fill-opacity:1;fill-rule:evenodd;stroke:none"
         transform="matrix(1.3333333,0,0,-1.3333333,806.3112,566.85547)"
         clip-path="url(#clipPath80)" />
      <path
         id="path81"
         d="m 0,0 v 0 c 0.724,0 1.315,-0.592 1.315,-1.316 v -0.988 c 0,-0.725 -0.591,-1.317 -1.315,-1.317 -0.726,0 -1.317,0.592 -1.317,1.317 v 0.988 C -1.317,-0.592 -0.726,0 0,0 m 6.271,0 v 0 c 0.726,0 1.317,-0.592 1.317,-1.316 v -0.988 c 0,-0.725 -0.591,-1.317 -1.317,-1.317 -0.723,0 -1.318,0.592 -1.318,1.317 v 0.988 C 4.953,-0.592 5.548,0 6.271,0 m 6.273,0 v 0 c 0.724,0 1.317,-0.592 1.317,-1.316 v -0.988 c 0,-0.725 -0.593,-1.317 -1.317,-1.317 -0.726,0 -1.317,0.592 -1.317,1.317 v 0.988 c 0,0.724 0.591,1.316 1.317,1.316 m 6.27,0 v 0 c 0.727,0 1.318,-0.592 1.318,-1.316 v -0.988 c 0,-0.725 -0.591,-1.317 -1.318,-1.317 -0.722,0 -1.317,0.592 -1.317,1.317 v 0.988 c 0,0.724 0.595,1.316 1.317,1.316 m 6.274,0 v 0 c 0.722,0 1.317,-0.592 1.317,-1.316 v -0.988 c 0,-0.725 -0.595,-1.317 -1.317,-1.317 -0.726,0 -1.317,0.592 -1.317,1.317 v 0.988 c 0,0.724 0.591,1.316 1.317,1.316 m 6.27,0 v 0 c 0.726,0 1.318,-0.592 1.318,-1.316 v -0.988 c 0,-0.725 -0.592,-1.317 -1.318,-1.317 -0.723,0 -1.314,0.592 -1.314,1.317 v 0.988 c 0,0.724 0.591,1.316 1.314,1.316 m 6.274,0 v 0 c 0.722,0 1.317,-0.592 1.317,-1.316 v -0.988 c 0,-0.725 -0.595,-1.317 -1.317,-1.317 -0.727,0 -1.318,0.592 -1.318,1.317 v 0.988 c 0,0.724 0.591,1.316 1.318,1.316 m 6.27,0 v 0 c 0.726,0 1.318,-0.592 1.318,-1.316 v -0.988 c 0,-0.725 -0.592,-1.317 -1.318,-1.317 -0.723,0 -1.315,0.592 -1.315,1.317 v 0.988 c 0,0.724 0.592,1.316 1.315,1.316 m 6.274,0 v 0 c 0.725,0 1.317,-0.592 1.317,-1.316 v -0.988 c 0,-0.725 -0.592,-1.317 -1.317,-1.317 -0.727,0 -1.319,0.592 -1.319,1.317 v 0.988 c 0,0.724 0.592,1.316 1.319,1.316 m 6.272,0 v 0 c 0.724,0 1.316,-0.592 1.316,-1.316 v -0.988 c 0,-0.725 -0.592,-1.317 -1.316,-1.317 -0.725,0 -1.317,0.592 -1.317,1.317 v 0.988 c 0,0.724 0.592,1.316 1.317,1.316 m 6.271,0 v 0 c 0.726,0 1.317,-0.592 1.317,-1.316 v -0.988 c 0,-0.725 -0.591,-1.317 -1.317,-1.317 -0.723,0 -1.318,0.592 -1.318,1.317 v 0.988 C 61.401,-0.592 61.996,0 62.719,0 M -6.273,0 v 0 c 0.726,0 1.318,-0.592 1.318,-1.316 v -0.988 c 0,-0.725 -0.592,-1.317 -1.318,-1.317 -0.726,0 -1.318,0.592 -1.318,1.317 v 0.988 c 0,0.724 0.592,1.316 1.318,1.316"
         style="fill:#ffffff;fill-opacity:1;fill-rule:evenodd;stroke:none"
         transform="matrix(1.3333333,0,0,-1.3333333,719.91147,568.61587)"
         clip-path="url(#clipPath82)" />
      <path
         id="path83"
         d="m 584.547,224.544 h 12.293 v -4.83 h -12.293 z m -45.982,0 h 12.289 v -4.83 h -12.289 z"
         style="fill:#ffffff;fill-opacity:1;fill-rule:evenodd;stroke:none"
         transform="matrix(1.3333333,0,0,-1.3333333,0,880)"
         clip-path="url(#clipPath84)" />
      <path
         id="path85"
         d="M 0,0 H 42.412 V -13.608 H 0 c -3.744,0 -6.806,3.061 -6.806,6.803 C -6.806,-3.061 -3.744,0 0,0"
         style="fill:#ffffff;fill-opacity:1;fill-rule:evenodd;stroke:none"
         transform="matrix(1.3333333,0,0,-1.3333333,822.67453,564.7708)"
         clip-path="url(#clipPath86)" />
      <path
         id="path87"
         d="m 0,0 h -49.149 c -0.045,0.313 -0.069,0.634 -0.069,0.96 0,2.103 0.967,3.989 2.476,5.241 H 0 Z"
         style="fill:#6398d7;fill-opacity:1;fill-rule:evenodd;stroke:none"
         transform="matrix(1.3333333,0,0,-1.3333333,879.224,575.12373)"
         clip-path="url(#clipPath88)" />
      <path
         id="path89"
         d="m 0,0 v 0 c 0.726,0 1.317,-0.592 1.317,-1.316 v -0.988 c 0,-0.725 -0.591,-1.317 -1.317,-1.317 -0.724,0 -1.314,0.592 -1.314,1.317 v 0.988 C -1.314,-0.592 -0.724,0 0,0 m 6.273,0 v 0 c 0.723,0 1.318,-0.592 1.318,-1.316 v -0.988 c 0,-0.725 -0.595,-1.317 -1.318,-1.317 -0.726,0 -1.317,0.592 -1.317,1.317 v 0.988 C 4.956,-0.592 5.547,0 6.273,0 m 6.271,0 v 0 c 0.726,0 1.317,-0.592 1.317,-1.316 v -0.988 c 0,-0.725 -0.591,-1.317 -1.317,-1.317 -0.724,0 -1.315,0.592 -1.315,1.317 v 0.988 C 11.229,-0.592 11.82,0 12.544,0 m 6.272,0 v 0 c 0.727,0 1.319,-0.592 1.319,-1.316 v -0.988 c 0,-0.725 -0.592,-1.317 -1.319,-1.317 -0.725,0 -1.317,0.592 -1.317,1.317 v 0.988 c 0,0.724 0.592,1.316 1.317,1.316 m 6.274,0 v 0 c 0.724,0 1.315,-0.592 1.315,-1.316 v -0.988 c 0,-0.725 -0.591,-1.317 -1.315,-1.317 -0.726,0 -1.318,0.592 -1.318,1.317 v 0.988 C 23.772,-0.592 24.364,0 25.09,0 m 6.27,0 v 0 c 0.727,0 1.318,-0.592 1.318,-1.316 v -0.988 c 0,-0.725 -0.591,-1.317 -1.318,-1.317 -0.725,0 -1.317,0.592 -1.317,1.317 v 0.988 C 30.043,-0.592 30.635,0 31.36,0 m 6.12,-3.612 c -0.655,0.077 -1.164,0.635 -1.164,1.308 v 0.988 c 0,0.673 0.509,1.23 1.164,1.307 z M -6.27,0 v 0 c 0.722,0 1.317,-0.592 1.317,-1.316 v -0.988 c 0,-0.725 -0.595,-1.317 -1.317,-1.317 -0.726,0 -1.318,0.592 -1.318,1.317 v 0.988 C -7.588,-0.592 -6.996,0 -6.27,0"
         style="fill:#ffffff;fill-opacity:1;fill-rule:evenodd;stroke:none"
         transform="matrix(1.3333333,0,0,-1.3333333,829.25133,568.61587)"
         clip-path="url(#clipPath90)" />
      <path
         id="path91"
         d="m 620.569,224.544 h 12.292 v -4.83 h -12.292 z"
         style="fill:#ffffff;fill-opacity:1;fill-rule:evenodd;stroke:none"
         transform="matrix(1.3333333,0,0,-1.3333333,0,880)"
         clip-path="url(#clipPath92)" />
      <path
         id="path93"
         d="M 0,0 2.566,-34.734 5.132,-69.47 H 0 -5.132 l 2.566,34.736 z"
         style="fill:#4172c1;fill-opacity:1;fill-rule:evenodd;stroke:none"
         transform="matrix(1.3333333,0,0,-1.3333333,92.3776,598.04693)"
         clip-path="url(#clipPath94)" />
      <path
         id="path95"
         d="M 0,0 3.041,-27.327 6.083,-54.652 H 0 -6.083 l 3.042,27.325 z"
         style="fill:#4172c1;fill-opacity:1;fill-rule:evenodd;stroke:none"
         transform="matrix(1.3333333,0,0,-1.3333333,132.47267,623.80213)"
         clip-path="url(#clipPath96)" />
      <path
         id="path97"
         d="m 0,0 3.421,-26.996 3.422,-27 H 0 -6.844 l 3.422,27 z"
         style="fill:#4172c1;fill-opacity:1;fill-rule:evenodd;stroke:none"
         transform="matrix(1.3333333,0,0,-1.3333333,186.32093,632.58067)"
         clip-path="url(#clipPath98)" />
      <path
         id="path99"
         d="m 0,0 4.657,-29.962 4.658,-29.96 H 0 -9.315 l 4.658,29.96 z"
         style="fill:#4172c1;fill-opacity:1;fill-rule:evenodd;stroke:none"
         transform="matrix(1.3333333,0,0,-1.3333333,215.29427,602.1432)"
         clip-path="url(#clipPath100)" />
      <path
         id="path101"
         d="M 0,0 3.992,-20.578 7.984,-41.155 H 0 -7.983 l 3.991,20.577 z"
         style="fill:#4172c1;fill-opacity:1;fill-rule:evenodd;stroke:none"
         transform="matrix(1.3333333,0,0,-1.3333333,170.51693,646.04293)"
         clip-path="url(#clipPath102)" />
      <path
         id="path103"
         d="m 0,0 5.132,-28.646 5.133,-28.642 H 0 -10.265 l 5.133,28.642 z"
         style="fill:#4172c1;fill-opacity:1;fill-rule:evenodd;stroke:none"
         transform="matrix(1.3333333,0,0,-1.3333333,277.04493,657.1628)"
         clip-path="url(#clipPath104)" />
      <path
         id="path105"
         d="m 0,0 3.992,-31.772 3.991,-31.77 H 0 -7.983 l 3.991,31.77 z"
         style="fill:#4172c1;fill-opacity:1;fill-rule:evenodd;stroke:none"
         transform="matrix(1.3333333,0,0,-1.3333333,295.77533,660.67573)"
         clip-path="url(#clipPath106)" />
      <path
         id="path107"
         d="M 0,0 4.561,-30.949 9.123,-61.898 H 0 -9.125 l 4.562,30.949 z"
         style="fill:#4172c1;fill-opacity:1;fill-rule:evenodd;stroke:none"
         transform="matrix(1.3333333,0,0,-1.3333333,379.4772,696.9648)"
         clip-path="url(#clipPath108)" />
      <path
         id="path109"
         d="m 0,0 6.939,-37.04 6.938,-37.039 H 0 -13.875 l 6.938,37.039 z"
         style="fill:#4172c1;fill-opacity:1;fill-rule:evenodd;stroke:none"
         transform="matrix(1.3333333,0,0,-1.3333333,474.00387,681.7448)"
         clip-path="url(#clipPath110)" />
      <path
         id="path111"
         d="m 0,0 4.087,-18.437 4.087,-18.44 H 0 -8.175 l 4.088,18.44 z"
         style="fill:#4172c1;fill-opacity:1;fill-rule:evenodd;stroke:none"
         transform="matrix(1.3333333,0,0,-1.3333333,534.29293,726.23053)"
         clip-path="url(#clipPath112)" />
      <path
         id="path113"
         d="M 0,0 4.372,-24.527 8.744,-49.058 H 0 -8.743 l 4.371,24.531 z"
         style="fill:#4172c1;fill-opacity:1;fill-rule:evenodd;stroke:none"
         transform="matrix(1.3333333,0,0,-1.3333333,575.55733,738.52347)"
         clip-path="url(#clipPath114)" />
      <path
         id="path115"
         d="M 0,0 4.354,-31.938 8.706,-63.873 H 0 -8.702 l 4.351,31.935 z"
         style="fill:#4172c1;fill-opacity:1;fill-rule:evenodd;stroke:none"
         transform="matrix(1.3333333,0,0,-1.3333333,455.04173,696.9648)"
         clip-path="url(#clipPath116)" />
      <path
         id="path117"
         d="m 0,0 5.989,-31.278 5.988,-31.278 H 0 -11.975 l 5.988,31.278 z"
         style="fill:#4172c1;fill-opacity:1;fill-rule:evenodd;stroke:none"
         transform="matrix(1.3333333,0,0,-1.3333333,519.07427,695.20827)"
         clip-path="url(#clipPath118)" />
      <path
         id="path119"
         d="m 0,0 6.083,-27.325 6.082,-27.328 H 0 -12.165 l 6.082,27.328 z"
         style="fill:#4172c1;fill-opacity:1;fill-rule:evenodd;stroke:none"
         transform="matrix(1.3333333,0,0,-1.3333333,359.57613,706.332)"
         clip-path="url(#clipPath120)" />
      <path
         id="path121"
         d="M 0,0 2.868,-18.51 5.735,-37.021 H 0 -5.736 l 2.868,18.511 z"
         style="fill:#4172c1;fill-opacity:1;fill-rule:evenodd;stroke:none"
         transform="matrix(1.3333333,0,0,-1.3333333,228.99933,633.49347)"
         clip-path="url(#clipPath122)" />
      <path
         id="path123"
         d="m 0,0 2.625,-17.199 2.625,-17.2 H 0 -5.249 l 2.624,17.2 z"
         style="fill:#6398d7;fill-opacity:1;fill-rule:evenodd;stroke:none"
         transform="matrix(1.3333333,0,0,-1.3333333,231.0124,446.9336)"
         clip-path="url(#clipPath124)" />
      <path
         id="path125"
         d="M 0,0 2.34,-17.1 4.679,-34.198 H 0 -4.68 l 2.34,17.098 z"
         style="fill:#6398d7;fill-opacity:1;fill-rule:evenodd;stroke:none"
         transform="matrix(1.3333333,0,0,-1.3333333,244.54293,449.39587)"
         clip-path="url(#clipPath126)" />
      <path
         id="path127"
         d="m 0,0 2.911,-15.222 2.91,-15.221 H 0 -5.821 l 2.911,15.221 z"
         style="fill:#6398d7;fill-opacity:1;fill-rule:evenodd;stroke:none"
         transform="matrix(1.3333333,0,0,-1.3333333,261.05987,467.31773)"
         clip-path="url(#clipPath128)" />
      <path
         id="path129"
         d="M 0,0 2.853,-17.099 5.706,-34.2 H 0 -5.707 l 2.853,17.101 z"
         style="fill:#6398d7;fill-opacity:1;fill-rule:evenodd;stroke:none"
         transform="matrix(1.3333333,0,0,-1.3333333,286.89067,498.2448)"
         clip-path="url(#clipPath130)" />
      <path
         id="path131"
         d="M 0,0 2.625,-15.913 5.25,-31.826 H 0 -5.251 l 2.625,15.913 z"
         style="fill:#6398d7;fill-opacity:1;fill-rule:evenodd;stroke:none"
         transform="matrix(1.3333333,0,0,-1.3333333,310.7884,517.22133)"
         clip-path="url(#clipPath132)" />
      <path
         id="path133"
         d="M 0,0 2.398,-16.505 4.794,-33.013 H 0 -4.793 l 2.397,16.508 z"
         style="fill:#6398d7;fill-opacity:1;fill-rule:evenodd;stroke:none"
         transform="matrix(1.3333333,0,0,-1.3333333,336.79427,539.71613)"
         clip-path="url(#clipPath134)" />
      <path
         id="path135"
         d="M 0,0 2.112,-14.035 4.223,-28.071 H 0 -4.223 l 2.112,14.036 z"
         style="fill:#6398d7;fill-opacity:1;fill-rule:evenodd;stroke:none"
         transform="matrix(1.3333333,0,0,-1.3333333,303.23173,516.87107)"
         clip-path="url(#clipPath136)" />
      <path
         id="path137"
         d="m 0,0 1.542,-12.158 1.54,-12.158 H 0 -3.081 l 1.541,12.158 z"
         style="fill:#6398d7;fill-opacity:1;fill-rule:evenodd;stroke:none"
         transform="matrix(1.3333333,0,0,-1.3333333,204.12693,419.52413)"
         clip-path="url(#clipPath138)" />
      <path
         id="path139"
         d="M 0,0 2.454,-15.32 4.907,-30.641 H 0 -4.908 l 2.455,15.321 z"
         style="fill:#6398d7;fill-opacity:1;fill-rule:evenodd;stroke:none"
         transform="matrix(1.3333333,0,0,-1.3333333,268.08853,477.5104)"
         clip-path="url(#clipPath140)" />
      <path
         id="path141"
         d="M 0,0 3.421,-16.793 6.842,-33.584 H 0 -6.845 l 3.421,16.791 z"
         style="fill:#6398d7;fill-opacity:1;fill-rule:evenodd;stroke:none"
         transform="matrix(1.3333333,0,0,-1.3333333,735.34893,633.164)"
         clip-path="url(#clipPath142)" />
      <path
         id="path143"
         d="M 0,0 2.852,-13.335 5.701,-26.667 H 0 -5.702 l 2.849,13.332 z"
         style="fill:#6398d7;fill-opacity:1;fill-rule:evenodd;stroke:none"
         transform="matrix(1.3333333,0,0,-1.3333333,655.7448,637.8476)"
         clip-path="url(#clipPath144)" />
      <path
         id="path145"
         d="M 0,0 2.566,-13.829 5.133,-27.656 H 0 -5.133 l 2.567,13.827 z"
         style="fill:#6398d7;fill-opacity:1;fill-rule:evenodd;stroke:none"
         transform="matrix(1.3333333,0,0,-1.3333333,821.0964,664.18613)"
         clip-path="url(#clipPath146)" />
      <path
         id="path147"
         d="M 0,0 3.136,-17.469 6.273,-34.937 H 0 -6.271 l 3.136,17.468 z"
         style="fill:#6398d7;fill-opacity:1;fill-rule:evenodd;stroke:none"
         transform="matrix(1.3333333,0,0,-1.3333333,809.97653,648.90107)"
         clip-path="url(#clipPath148)" />
      <path
         id="path149"
         d="M 0,0 2.804,-18.684 5.607,-37.369 H 0 -5.606 l 2.802,18.685 z"
         style="fill:#6398d7;fill-opacity:1;fill-rule:evenodd;stroke:none"
         transform="matrix(1.3333333,0,0,-1.3333333,744.5664,625.556)"
         clip-path="url(#clipPath150)" />
      <path
         id="path151"
         d="M 0,0 2.995,-11.439 5.987,-22.88 H 0 -5.986 l 2.993,11.441 z"
         style="fill:#6398d7;fill-opacity:1;fill-rule:evenodd;stroke:none"
         transform="matrix(1.3333333,0,0,-1.3333333,648.57293,644.28773)"
         clip-path="url(#clipPath152)" />
      <path
         id="path153"
         d="M 0,0 2.852,-12.348 5.705,-24.693 H 0 -5.701 l 2.851,12.345 z"
         style="fill:#6398d7;fill-opacity:1;fill-rule:evenodd;stroke:none"
         transform="matrix(1.3333333,0,0,-1.3333333,682.66667,643.11587)"
         clip-path="url(#clipPath154)" />
      <path
         id="path155"
         d="M 0,0 2.329,-12.265 4.656,-24.528 H 0 -4.657 l 2.327,12.263 z"
         style="fill:#6398d7;fill-opacity:1;fill-rule:evenodd;stroke:none"
         transform="matrix(1.3333333,0,0,-1.3333333,588.57947,643.4088)"
         clip-path="url(#clipPath156)" />
      <path
         id="path157"
         d="M 0,0 2.804,-12.427 5.607,-24.856 H 0 -5.608 l 2.803,12.429 z"
         style="fill:#6398d7;fill-opacity:1;fill-rule:evenodd;stroke:none"
         transform="matrix(1.3333333,0,0,-1.3333333,551.41147,640.48307)"
         clip-path="url(#clipPath158)" />
      <path
         id="path159"
         d="M 0,0 2.329,-14.157 4.656,-28.314 H 0 -4.657 l 2.329,14.157 z"
         style="fill:#6398d7;fill-opacity:1;fill-rule:evenodd;stroke:none"
         transform="matrix(1.3333333,0,0,-1.3333333,561.362,635.2148)"
         clip-path="url(#clipPath160)" />
      <path
         id="path161"
         d="M 0,0 2.795,-12.49 5.589,-24.982 H 0 -5.589 l 2.795,12.492 z"
         style="fill:#6398d7;fill-opacity:1;fill-rule:evenodd;stroke:none"
         transform="matrix(1.3333333,0,0,-1.3333333,568.4128,644.65107)"
         clip-path="url(#clipPath162)" />
      <path
         id="path163"
         d="m 0,0 7.448,-39.88 -6.402,-0.884 6.696,-0.703 4.158,-22.26 -9.808,-1.287 10.389,-1.82 0.283,-1.523 6.331,-33.911 -12.613,-1.209 13.289,-2.416 5.756,-30.822 H 0 -25.524 l 4.095,21.936 14.742,1.268 -14.179,1.743 6.01,32.199 10.257,2.015 -9.54,1.827 1.375,7.37 3.19,17.077 5.604,2.157 -5.067,0.715 z"
         style="fill:#315eb3;fill-opacity:1;fill-rule:evenodd;stroke:none"
         transform="matrix(1.3333333,0,0,-1.3333333,793.3164,691.1732)"
         clip-path="url(#clipPath164)" />
      <path
         id="path165"
         d="m 0,0 7.447,-39.883 -6.401,-0.881 6.699,-0.706 4.155,-22.26 -9.808,-1.284 10.388,-1.82 0.284,-1.523 6.333,-33.911 -12.616,-1.212 13.29,-2.415 5.756,-30.823 H 0 -25.525 l 4.095,21.936 14.742,1.268 -14.178,1.743 6.009,32.202 10.258,2.011 -9.54,1.828 1.377,7.373 3.188,17.076 5.604,2.155 -5.067,0.715 z"
         style="fill:#315eb3;fill-opacity:1;fill-rule:evenodd;stroke:none"
         transform="matrix(1.3333333,0,0,-1.3333333,722.9688,678.29293)"
         clip-path="url(#clipPath166)" />
      <path
         id="path167"
         d="m 0,0 5.613,-30.058 -4.824,-0.663 5.047,-0.531 3.133,-16.779 -7.394,-0.966 7.831,-1.372 0.214,-1.149 4.771,-25.556 -9.506,-0.911 10.017,-1.825 4.335,-23.226 H 0 -19.239 l 3.086,16.53 11.112,0.958 -10.687,1.312 4.531,24.267 7.73,1.518 -7.19,1.377 1.038,5.556 2.403,12.87 4.224,1.626 -3.822,0.537 z"
         style="fill:#315eb3;fill-opacity:1;fill-rule:evenodd;stroke:none"
         transform="matrix(1.3333333,0,0,-1.3333333,668.42973,707.20827)"
         clip-path="url(#clipPath168)" />
      <path
         id="path169"
         d="m 0,0 5.611,-30.058 -4.824,-0.666 5.048,-0.531 3.133,-16.776 -7.392,-0.966 7.828,-1.372 0.216,-1.149 4.772,-25.559 -9.508,-0.912 10.017,-1.82 4.337,-23.23 H 0 -19.238 l 3.086,16.533 11.11,0.955 -10.686,1.315 4.531,24.266 7.73,1.518 -7.19,1.375 1.037,5.559 2.403,12.87 4.223,1.623 -3.818,0.54 z"
         style="fill:#315eb3;fill-opacity:1;fill-rule:evenodd;stroke:none"
         transform="matrix(1.3333333,0,0,-1.3333333,558.0976,724.474)"
         clip-path="url(#clipPath170)" />
      <path
         id="path171"
         d="m 0,0 7.446,-39.881 -6.401,-0.883 6.698,-0.706 4.156,-22.26 -9.808,-1.284 10.388,-1.821 0.284,-1.522 6.332,-33.911 -12.615,-1.209 13.291,-2.418 5.755,-30.82 H 0 -25.526 l 4.095,21.935 14.742,1.269 -14.179,1.743 6.012,32.199 10.257,2.011 -9.541,1.826 1.377,7.375 3.188,17.076 5.603,2.155 -5.067,0.714 z"
         style="fill:#315eb3;fill-opacity:1;fill-rule:evenodd;stroke:none"
         transform="matrix(1.3333333,0,0,-1.3333333,186.67707,667.62627)"
         clip-path="url(#clipPath172)" />
      <path
         id="path173"
         d="m 0,0 6.093,-32.636 -5.238,-0.722 5.481,-0.578 3.401,-18.216 -8.027,-1.049 8.501,-1.492 0.233,-1.246 5.182,-27.751 -10.323,-0.99 10.877,-1.977 4.709,-25.225 H 0 -20.891 l 3.352,17.951 12.064,1.04 -11.603,1.427 4.919,26.351 8.395,1.645 -7.808,1.495 1.127,6.034 2.609,13.975 4.585,1.764 -4.147,0.586 z"
         style="fill:#315eb3;fill-opacity:1;fill-rule:evenodd;stroke:none"
         transform="matrix(1.3333333,0,0,-1.3333333,251.82427,715.34373)"
         clip-path="url(#clipPath174)" />
      <path
         id="path175"
         d="m 0,0 6.964,-37.297 -5.986,-0.826 6.263,-0.66 3.887,-20.82 -9.172,-1.198 9.715,-1.703 0.266,-1.427 5.922,-31.714 -11.798,-1.129 12.429,-2.261 5.384,-28.825 H 0 -23.874 l 3.831,20.514 13.787,1.186 -13.261,1.632 5.622,30.112 9.594,1.883 -8.923,1.707 1.287,6.895 2.982,15.971 5.24,2.018 -4.738,0.669 z"
         style="fill:#315eb3;fill-opacity:1;fill-rule:evenodd;stroke:none"
         transform="matrix(1.3333333,0,0,-1.3333333,299.1152,686.13547)"
         clip-path="url(#clipPath176)" />
      <path
         id="path177"
         d="m 0,0 7.447,-39.88 -6.401,-0.884 6.697,-0.706 4.157,-22.26 -9.809,-1.284 10.388,-1.82 0.285,-1.523 6.331,-33.911 -12.614,-1.209 13.291,-2.418 5.755,-30.82 H 0 -25.526 l 4.095,21.936 14.742,1.268 -14.179,1.743 6.011,32.199 10.258,2.011 -9.54,1.828 1.376,7.373 3.189,17.076 5.603,2.155 -5.068,0.718 z"
         style="fill:#315eb3;fill-opacity:1;fill-rule:evenodd;stroke:none"
         transform="matrix(1.3333333,0,0,-1.3333333,41.518267,679.33333)"
         clip-path="url(#clipPath178)" />
    </g>
  </g>
</svg>
