<?xml version="1.0" encoding="UTF-8"?>
<svg id="Layer_1" data-name="Layer 1" xmlns="http://www.w3.org/2000/svg" xmlns:xlink="http://www.w3.org/1999/xlink" viewBox="0 0 1296 1728">
  <defs>
    <style>
      .cls-1 {
        fill: #6a371a;
      }

      .cls-2 {
        fill: #e39c29;
      }

      .cls-3 {
        fill: #351f0e;
      }

      .cls-4 {
        fill: #ffd143;
      }

      .cls-5 {
        fill: #cd732a;
      }

      .cls-6 {
        fill: #004c59;
      }

      .cls-7 {
        fill: #00727f;
      }

      .cls-8 {
        fill: #01a3aa;
      }

      .cls-9 {
        fill: #3d210d;
      }

      .cls-10 {
        fill: #003643;
      }

      .cls-11 {
        fill: #f5bd4a;
      }

      .cls-12 {
        fill: #20bbc1;
      }

      .cls-13 {
        fill: #098b95;
      }

      .cls-14 {
        fill: url(#linear-gradient);
      }

      .cls-15 {
        fill: #fbca81;
      }
    </style>
    <linearGradient id="linear-gradient" x1="648" y1="965.72" x2="648" y2="0" gradientUnits="userSpaceOnUse">
      <stop offset="0" stop-color="#acdad4"/>
      <stop offset="1" stop-color="#7ecbd0"/>
    </linearGradient>
  </defs>
  <g id="water">
    <rect id="light" class="cls-12" y="1024.17" width="1296" height="703.83"/>
    <path id="dark" class="cls-8" d="M652.1,1200.52c-95.81-16.86-211.77-14.98-306.14,4.25s-95.25,45.17,0,60.82,369.39,42.12,368.5,110.5S209.77,1486.5,0,1585.78v142.22h1222.48l11.63-546.49-582.01,19.01Z"/>
  </g>
  <rect id="sky" class="cls-14" width="1296" height="965.72"/>
  <path id="light-2" data-name="light" class="cls-13" d="M0,903.9c62.75-43.97,219.73-61.49,274.51-93.91s57.02-84.75,112.7-107.33,119.21-131.25,184.73-150.26,34.38-160.77,81.02-163.68,77.49,157.64,160.89,233.44,446.23,316.87,482.16,281.74v120.27L0,1009.53v-105.63Z"/>
  <path id="dark-2" data-name="dark" class="cls-7" d="M0,972.45c77.05,5.89,221.7-26.83,334.7-85.86,112.99-59.03,252.07-158.61,297.84-228.07,42.78,59.63,311.25,217.34,402.48,276.37s151.69,62.79,260.98,64.4v52.32H0v-79.16Z"/>
  <g id="house">
    <rect id="front" class="cls-5" x="410.27" y="1025.7" width="142.8" height="100.62"/>
    <rect id="door" class="cls-3" x="447.69" y="1032.52" width="62.61" height="95.03"/>
    <rect id="side" class="cls-1" x="553.07" y="1025.7" width="199.76" height="100.62"/>
    <g id="roof">
      <path id="light-3" data-name="light" class="cls-11" d="M600.14,854.84l-74.8,187.51h-142.75c-19.23,0-15.8-18.93,0-33.54,15.8-14.61,165.58-141.41,177.99-151.16,11.14-8.76,26.67-10.09,39.56-2.81Z"/>
      <path id="dark-3" data-name="dark" class="cls-2" d="M782.41,1042.35h-257.07l74.8-187.51c1.47.82,2.89,1.76,4.28,2.81,13.58,10.3,162.19,136.55,177.99,151.16,15.8,14.61,19.23,33.54,0,33.54Z"/>
    </g>
    <polygon id="base" class="cls-9" points="793.35 1119.28 793.35 1139.28 760 1139.28 760 1205 740 1205 740 1139.28 680 1139.28 680 1205 660 1205 660 1139.28 572 1139.28 572 1205 552 1205 552 1139.28 430 1139.28 430 1205 410 1205 410 1139.28 373.35 1139.28 373.35 1119.28 793.35 1119.28"/>
  </g>
  <g id="palm">
    <g id="palm-2" data-name="palm">
      <path id="trunk" class="cls-10" d="M855.54,851.92c34.2,119.63,49.35,232.4,27.8,331.93l44.37-2.57c4.19-130.89-26.9-241.21-67.33-346.07l-4.83,16.7Z"/>
      <path id="head" class="cls-6" d="M862.71,852.18c20.62-5.22,54.34,21.85,80.12,45.15-.26-34.19-22.91-63.4-65.77-59.51,27.31-14.38,57.53-17.29,90.04-11.22-24.06-24.17-52.74-33.34-91.87-8.61,9.61-26.26,30.95-47.57,55.33-67.6-45.98-1.34-72.11,21.41-75.69,71.51-10.92-54.72-42.65-67.25-81.17-66.03,27.51,19.83,48.14,42.72,63.42,67.99-40.48-23.68-68.78-12.52-93.17,9.79,27.69-4.73,54.68-6.33,78.3,7.57-48.44,11.85-56.62,40.39-54.81,73.08,15.54-23.34,34.89-39.52,58.2-48.28-14.69,32.89-12.28,59.18,10.7,77.51-.26-24.27,5.74-86.13,26.36-91.35Z"/>
    </g>
    <g id="palm-3" data-name="palm">
      <path id="trunk-2" data-name="trunk" class="cls-10" d="M997.08,593.37c58.59,204.99,84.57,398.22,47.63,568.77l76.02-4.4c7.17-224.29-46.09-413.32-115.38-592.99l-8.27,28.62Z"/>
      <path id="head-2" data-name="head" class="cls-6" d="M1009.38,593.82c35.33-8.94,93.11,37.44,137.29,77.37-.45-58.58-39.26-108.64-112.7-101.96,46.79-24.64,98.58-29.62,154.29-19.23-41.23-41.41-90.38-57.14-157.42-14.76,16.47-44.99,53.04-81.5,94.81-115.83-78.79-2.29-123.56,36.68-129.69,122.53-18.71-93.76-73.08-115.24-139.08-113.14,47.14,33.98,82.49,73.2,108.67,116.5-69.37-40.57-117.85-21.46-159.65,16.77,47.44-8.11,93.7-10.84,134.16,12.97-83,20.3-97.02,69.21-93.91,125.22,26.62-39.99,59.78-67.72,99.73-82.73-25.17,56.37-21.05,101.41,18.34,132.82-.45-41.59,9.84-147.58,45.17-156.52Z"/>
    </g>
  </g>
  <path id="land" class="cls-15" d="M1296,1142.68c-202.48-20.09-580.09,39.65-671.02,64.4s-75.35,42.34,23.52,46.96,408.63,14.61,417.87,100.62-181.07,133.37-329.19,181.24c-148.12,47.88-320.15,132.84-320.15,192.11h878.97v-585.32Z"/>
  <circle id="sun" class="cls-4" cx="404.96" cy="272.31" r="120.38"/>
</svg>