<?xml version="1.0" encoding="UTF-8" standalone="no"?>
<!-- Created with Inkscape (http://www.inkscape.org/) -->

<svg
   version="1.1"
   id="svg1"
   width="880"
   height="880"
   viewBox="0 0 880 880"
   sodipodi:docname="tent-on-island-publicdomainvectors.org.svg"
   inkscape:version="1.3.2 (091e20e, 2023-11-25, custom)"
   xmlns:inkscape="http://www.inkscape.org/namespaces/inkscape"
   xmlns:sodipodi="http://sodipodi.sourceforge.net/DTD/sodipodi-0.dtd"
   xmlns="http://www.w3.org/2000/svg"
   xmlns:svg="http://www.w3.org/2000/svg">
  <defs
     id="defs1">
    <clipPath
       clipPathUnits="userSpaceOnUse"
       id="clipPath4">
      <path
         d="M 0,660 H 660 V 0 H 0 Z"
         transform="translate(-660.54392,-358.21441)"
         id="path4" />
    </clipPath>
    <clipPath
       clipPathUnits="userSpaceOnUse"
       id="clipPath6">
      <path
         d="M 0,660 H 660 V 0 H 0 Z"
         transform="translate(-185.56101,-371.51371)"
         id="path6" />
    </clipPath>
    <clipPath
       clipPathUnits="userSpaceOnUse"
       id="clipPath8">
      <path
         d="M 0,660 H 660 V 0 H 0 Z"
         id="path8" />
    </clipPath>
    <clipPath
       clipPathUnits="userSpaceOnUse"
       id="clipPath10">
      <path
         d="M 0,660 H 660 V 0 H 0 Z"
         id="path10" />
    </clipPath>
    <clipPath
       clipPathUnits="userSpaceOnUse"
       id="clipPath12">
      <path
         d="M 0,660 H 660 V 0 H 0 Z"
         id="path12" />
    </clipPath>
    <clipPath
       clipPathUnits="userSpaceOnUse"
       id="clipPath14">
      <path
         d="M 0,660 H 660 V 0 H 0 Z"
         id="path14" />
    </clipPath>
    <clipPath
       clipPathUnits="userSpaceOnUse"
       id="clipPath16">
      <path
         d="M 0,660 H 660 V 0 H 0 Z"
         id="path16" />
    </clipPath>
    <clipPath
       clipPathUnits="userSpaceOnUse"
       id="clipPath18">
      <path
         d="M 0,660 H 660 V 0 H 0 Z"
         id="path18" />
    </clipPath>
    <clipPath
       clipPathUnits="userSpaceOnUse"
       id="clipPath20">
      <path
         d="M 0,660 H 660 V 0 H 0 Z"
         transform="translate(-330.26861,-67.017602)"
         id="path20" />
    </clipPath>
    <clipPath
       clipPathUnits="userSpaceOnUse"
       id="clipPath22">
      <path
         d="M 0,660 H 660 V 0 H 0 Z"
         transform="translate(-399.27641,-218.38671)"
         id="path22" />
    </clipPath>
    <clipPath
       clipPathUnits="userSpaceOnUse"
       id="clipPath24">
      <path
         d="M 0,660 H 660 V 0 H 0 Z"
         id="path24" />
    </clipPath>
    <clipPath
       clipPathUnits="userSpaceOnUse"
       id="clipPath26">
      <path
         d="M 0,660 H 660 V 0 H 0 Z"
         id="path26" />
    </clipPath>
    <clipPath
       clipPathUnits="userSpaceOnUse"
       id="clipPath28">
      <path
         d="M 0,660 H 660 V 0 H 0 Z"
         id="path28" />
    </clipPath>
    <clipPath
       clipPathUnits="userSpaceOnUse"
       id="clipPath30">
      <path
         d="M 0,660 H 660 V 0 H 0 Z"
         id="path30" />
    </clipPath>
    <clipPath
       clipPathUnits="userSpaceOnUse"
       id="clipPath32">
      <path
         d="M 0,660 H 660 V 0 H 0 Z"
         id="path32" />
    </clipPath>
    <clipPath
       clipPathUnits="userSpaceOnUse"
       id="clipPath34">
      <path
         d="M 0,660 H 660 V 0 H 0 Z"
         id="path34" />
    </clipPath>
    <clipPath
       clipPathUnits="userSpaceOnUse"
       id="clipPath36">
      <path
         d="M 0,660 H 660 V 0 H 0 Z"
         id="path36" />
    </clipPath>
    <clipPath
       clipPathUnits="userSpaceOnUse"
       id="clipPath38">
      <path
         d="M 0,660 H 660 V 0 H 0 Z"
         transform="translate(-330.26711,-220.20211)"
         id="path38" />
    </clipPath>
    <clipPath
       clipPathUnits="userSpaceOnUse"
       id="clipPath40">
      <path
         d="M 0,660 H 660 V 0 H 0 Z"
         transform="translate(-399.27641,-218.38671)"
         id="path40" />
    </clipPath>
    <clipPath
       clipPathUnits="userSpaceOnUse"
       id="clipPath42">
      <path
         d="M 0,660 H 660 V 0 H 0 Z"
         id="path42" />
    </clipPath>
    <clipPath
       clipPathUnits="userSpaceOnUse"
       id="clipPath44">
      <path
         d="M 0,660 H 660 V 0 H 0 Z"
         transform="translate(-317.74021,-229.72071)"
         id="path44" />
    </clipPath>
    <clipPath
       clipPathUnits="userSpaceOnUse"
       id="clipPath46">
      <path
         d="M 0,660 H 660 V 0 H 0 Z"
         transform="translate(-451.28131,-222.5488)"
         id="path46" />
    </clipPath>
    <clipPath
       clipPathUnits="userSpaceOnUse"
       id="clipPath48">
      <path
         d="M 0,660 H 660 V 0 H 0 Z"
         transform="translate(-211.36621,-229.72071)"
         id="path48" />
    </clipPath>
    <clipPath
       clipPathUnits="userSpaceOnUse"
       id="clipPath50">
      <path
         d="M 0,660 H 660 V 0 H 0 Z"
         transform="translate(-350.05961,-229.72071)"
         id="path50" />
    </clipPath>
    <clipPath
       clipPathUnits="userSpaceOnUse"
       id="clipPath52">
      <path
         d="M 0,660 H 660 V 0 H 0 Z"
         transform="translate(-429.53031,-258.83301)"
         id="path52" />
    </clipPath>
    <clipPath
       clipPathUnits="userSpaceOnUse"
       id="clipPath54">
      <path
         d="M 0,660 H 660 V 0 H 0 Z"
         transform="translate(-271.75291,-298.03221)"
         id="path54" />
    </clipPath>
    <clipPath
       clipPathUnits="userSpaceOnUse"
       id="clipPath56">
      <path
         d="M 0,660 H 660 V 0 H 0 Z"
         transform="translate(-185.56101,-398.94531)"
         id="path56" />
    </clipPath>
    <clipPath
       clipPathUnits="userSpaceOnUse"
       id="clipPath58">
      <path
         d="M 0,660 H 660 V 0 H 0 Z"
         transform="translate(-185.56101,-431.55031)"
         id="path58" />
    </clipPath>
    <clipPath
       clipPathUnits="userSpaceOnUse"
       id="clipPath60">
      <path
         d="M 0,660 H 660 V 0 H 0 Z"
         transform="translate(-271.75291,-298.03221)"
         id="path60" />
    </clipPath>
    <clipPath
       clipPathUnits="userSpaceOnUse"
       id="clipPath62">
      <path
         d="M 0,660 H 660 V 0 H 0 Z"
         transform="translate(-402.67771,-422.15821)"
         id="path62" />
    </clipPath>
    <clipPath
       clipPathUnits="userSpaceOnUse"
       id="clipPath64">
      <path
         d="M 0,660 H 660 V 0 H 0 Z"
         transform="translate(-466.55661,-210.56841)"
         id="path64" />
    </clipPath>
    <clipPath
       clipPathUnits="userSpaceOnUse"
       id="clipPath66">
      <path
         d="M 0,660 H 660 V 0 H 0 Z"
         transform="translate(-466.55661,-210.56841)"
         id="path66" />
    </clipPath>
    <clipPath
       clipPathUnits="userSpaceOnUse"
       id="clipPath68">
      <path
         d="M 0,660 H 660 V 0 H 0 Z"
         transform="translate(-411.70021,-433.61911)"
         id="path68" />
    </clipPath>
    <clipPath
       clipPathUnits="userSpaceOnUse"
       id="clipPath70">
      <path
         d="M 0,660 H 660 V 0 H 0 Z"
         transform="translate(-411.70021,-433.61911)"
         id="path70" />
    </clipPath>
    <clipPath
       clipPathUnits="userSpaceOnUse"
       id="clipPath72">
      <path
         d="M 0,660 H 660 V 0 H 0 Z"
         transform="translate(-411.70021,-433.61961)"
         id="path72" />
    </clipPath>
    <clipPath
       clipPathUnits="userSpaceOnUse"
       id="clipPath74">
      <path
         d="M 0,660 H 660 V 0 H 0 Z"
         transform="translate(-411.70021,-433.61911)"
         id="path74" />
    </clipPath>
    <clipPath
       clipPathUnits="userSpaceOnUse"
       id="clipPath76">
      <path
         d="M 0,660 H 660 V 0 H 0 Z"
         transform="translate(-275.79301,-450.06931)"
         id="path76" />
    </clipPath>
    <clipPath
       clipPathUnits="userSpaceOnUse"
       id="clipPath78">
      <path
         d="M 0,660 H 660 V 0 H 0 Z"
         transform="translate(-211.1704,-208.7383)"
         id="path78" />
    </clipPath>
    <clipPath
       clipPathUnits="userSpaceOnUse"
       id="clipPath80">
      <path
         d="M 0,660 H 660 V 0 H 0 Z"
         transform="translate(-211.1704,-208.7383)"
         id="path80" />
    </clipPath>
    <clipPath
       clipPathUnits="userSpaceOnUse"
       id="clipPath82">
      <path
         d="M 0,660 H 660 V 0 H 0 Z"
         transform="translate(-267.5215,-464.06251)"
         id="path82" />
    </clipPath>
    <clipPath
       clipPathUnits="userSpaceOnUse"
       id="clipPath84">
      <path
         d="M 0,660 H 660 V 0 H 0 Z"
         transform="translate(-267.5215,-464.06251)"
         id="path84" />
    </clipPath>
    <clipPath
       clipPathUnits="userSpaceOnUse"
       id="clipPath86">
      <path
         d="M 0,660 H 660 V 0 H 0 Z"
         transform="translate(-267.5215,-464.06351)"
         id="path86" />
    </clipPath>
    <clipPath
       clipPathUnits="userSpaceOnUse"
       id="clipPath88">
      <path
         d="M 0,660 H 660 V 0 H 0 Z"
         transform="translate(-267.5215,-464.06251)"
         id="path88" />
    </clipPath>
  </defs>
  <sodipodi:namedview
     id="namedview1"
     pagecolor="#ffffff"
     bordercolor="#000000"
     borderopacity="0.25"
     inkscape:showpageshadow="2"
     inkscape:pageopacity="0.0"
     inkscape:pagecheckerboard="0"
     inkscape:deskcolor="#d1d1d1"
     inkscape:zoom="0.67272727"
     inkscape:cx="439.25676"
     inkscape:cy="440"
     inkscape:window-width="1440"
     inkscape:window-height="830"
     inkscape:window-x="-6"
     inkscape:window-y="-6"
     inkscape:window-maximized="1"
     inkscape:current-layer="g1">
    <inkscape:page
       x="0"
       y="0"
       inkscape:label="1"
       id="page1"
       width="880"
       height="880"
       margin="0 0 1.868"
       bleed="0" />
  </sodipodi:namedview>
  <g
     id="g1"
     inkscape:groupmode="layer"
     inkscape:label="1">
    <g
       id="group-MC0">
      <path
         id="path2"
         d="M 0,0 H 660 V 658.598 H 0 Z"
         style="fill:#d8f1e0;fill-opacity:1;fill-rule:nonzero;stroke:none"
         transform="matrix(1.3333333,0,0,-1.3333333,0,880)" />
      <path
         id="path3"
         d="m 0,0 v -150.469 c -6.212,-2.442 -12.977,-3.781 -20.054,-3.781 -16.414,0 -31.138,7.21 -41.193,18.632 -7.308,-8.852 -18.365,-14.493 -30.742,-14.493 -18.442,0 -33.954,12.528 -38.499,29.537 -2.765,-0.87 -5.665,-1.433 -8.662,-1.649 -2.118,-27.239 -24.891,-48.683 -52.672,-48.683 -23.165,0 -42.845,14.907 -49.975,35.652 -5.042,-1.809 -10.474,-2.796 -16.136,-2.796 -22.817,0 -41.899,15.993 -46.65,37.382 -1.324,-0.132 -2.668,-0.201 -4.026,-0.201 -14.67,0 -27.518,7.783 -34.65,19.442 l 0.004,-0.238 c 0,-25.648 -20.792,-46.439 -46.442,-46.439 -6.075,0 -11.875,1.167 -17.194,3.288 -5.582,-15.137 -20.134,-25.932 -37.209,-25.932 -13.363,0 -25.182,6.611 -32.366,16.741 -10.232,-11.239 -24.983,-18.294 -41.381,-18.294 -17.079,0 -32.367,7.655 -42.63,19.718 -6.454,-8.227 -16.485,-13.51 -27.751,-13.51 -17.59,0 -32.17,12.885 -34.82,29.73 -8.056,-8.062 -19.187,-13.047 -31.484,-13.047 -2.042,0 -4.051,0.14 -6.019,0.406 V 4.061 c 16.623,-0.905 29.826,-14.67 29.826,-31.52 0,-6.297 -1.845,-12.162 -5.022,-17.087 14.696,-6.853 25.029,-21.493 25.688,-38.615 6.004,4.742 13.586,7.574 21.831,7.574 6.12,0 11.876,-1.563 16.891,-4.305 7.028,22.87 28.317,39.495 53.49,39.495 24.287,0 44.955,-15.475 52.692,-37.1 6.102,3.831 13.319,6.049 21.055,6.049 3.052,0 6.024,-0.345 8.877,-0.999 4.276,21.234 23.033,37.226 45.526,37.226 3.44,0 6.791,-0.376 10.017,-1.085 -1.702,4.307 -2.637,9 -2.637,13.912 0,20.926 16.963,37.889 37.889,37.889 20.033,0 36.436,-15.551 37.795,-35.241 15.909,-0.763 29.417,-10.685 35.363,-24.61 4.234,1.228 8.709,1.889 13.337,1.889 19.284,0 35.895,-11.421 43.45,-27.866 6.868,3.265 14.549,5.095 22.661,5.095 5.48,0 10.768,-0.835 15.739,-2.385 6.18,12.635 19.158,21.337 34.171,21.337 16.995,0 31.384,-11.151 36.252,-26.535 4.264,1.558 8.868,2.407 13.671,2.407 8.076,0 15.591,-2.404 21.868,-6.534 8.578,19.105 27.767,32.411 50.067,32.411 0.952,0 1.897,-0.025 2.837,-0.072 -0.501,2.708 -0.766,5.499 -0.766,8.353 0,14.793 7.054,27.936 17.983,36.256"
         style="fill:#ffffff;fill-opacity:1;fill-rule:evenodd;stroke:none"
         transform="matrix(1.3333333,0,0,-1.3333333,880.7252,402.3808)"
         clip-path="url(#clipPath4)" />
      <path
         id="path5"
         d="M 0,0 C 63.285,0 114.902,51.615 114.902,114.9 114.902,178.184 63.285,229.799 0,229.799 -63.283,229.799 -114.898,178.184 -114.898,114.9 -114.898,51.615 -63.283,0 0,0"
         style="fill:#e9f7ec;fill-opacity:1;fill-rule:evenodd;stroke:none"
         transform="matrix(1.3333333,0,0,-1.3333333,247.41467,384.6484)"
         clip-path="url(#clipPath6)" />
      <path
         id="path7"
         d="M -0.007,-1.951 H 660.544 V 249.184 H -0.007 Z"
         style="fill:#56b6dd;fill-opacity:1;fill-rule:evenodd;stroke:none"
         transform="matrix(1.3333333,0,0,-1.3333333,0,880)"
         clip-path="url(#clipPath8)" />
      <path
         id="path9"
         d="m -0.007,234.697 h 660.551 v 1.552 H -0.007 Z"
         style="fill:#8edaf6;fill-opacity:1;fill-rule:evenodd;stroke:none"
         transform="matrix(1.3333333,0,0,-1.3333333,0,880)"
         clip-path="url(#clipPath10)" />
      <path
         id="path11"
         d="m -0.007,210.568 h 660.551 v 1.553 H -0.007 Z"
         style="fill:#8edaf6;fill-opacity:1;fill-rule:evenodd;stroke:none"
         transform="matrix(1.3333333,0,0,-1.3333333,0,880)"
         clip-path="url(#clipPath12)" />
      <path
         id="path13"
         d="m 421.54,225.06 h 239.004 v 1.553 H 421.54 Z"
         style="fill:#8edaf6;fill-opacity:1;fill-rule:evenodd;stroke:none"
         transform="matrix(1.3333333,0,0,-1.3333333,0,880)"
         clip-path="url(#clipPath14)" />
      <path
         id="path15"
         d="m -0.007,157.071 h 660.551 v 3.17 H -0.007 Z"
         style="fill:#bce9f9;fill-opacity:1;fill-rule:evenodd;stroke:none"
         transform="matrix(1.3333333,0,0,-1.3333333,0,880)"
         clip-path="url(#clipPath16)" />
      <path
         id="path17"
         d="M -0.008,218.331 H 164.85 v 1.553 H -0.008 Z"
         style="fill:#8edaf6;fill-opacity:1;fill-rule:evenodd;stroke:none"
         transform="matrix(1.3333333,0,0,-1.3333333,0,880)"
         clip-path="url(#clipPath18)" />
      <path
         id="path19"
         d="m 0,0 c 175.013,0 317.755,34.407 317.755,76.594 0,42.186 -142.742,76.59 -317.755,76.59 -175.014,0 -317.756,-34.404 -317.756,-76.59 C -317.756,34.407 -175.014,0 0,0"
         style="fill:#f3d15d;fill-opacity:1;fill-rule:evenodd;stroke:none"
         transform="matrix(1.3333333,0,0,-1.3333333,440.35813,790.6432)"
         clip-path="url(#clipPath20)" />
      <path
         id="path21"
         d="m 0,0 c 142.309,-7.598 248.747,-38.189 248.747,-74.775 0,-26.678 -56.594,-50.165 -142.406,-63.88 L -185.26,-61.319 C -35.093,-58.471 140.764,-24.685 0,0"
         style="fill:#e2ba3f;fill-opacity:1;fill-rule:evenodd;stroke:none"
         transform="matrix(1.3333333,0,0,-1.3333333,532.36853,588.81773)"
         clip-path="url(#clipPath22)" />
      <path
         id="path23"
         d="M -0.007,-1.951 H 660.544 V 157.068 H -0.007 Z"
         style="fill:#56b6dd;fill-opacity:1;fill-rule:evenodd;stroke:none"
         transform="matrix(1.3333333,0,0,-1.3333333,0,880)"
         clip-path="url(#clipPath24)" />
      <path
         id="path25"
         d="m -0.007,115.863 h 660.551 v 1.552 H -0.007 Z"
         style="fill:#8edaf6;fill-opacity:1;fill-rule:evenodd;stroke:none"
         transform="matrix(1.3333333,0,0,-1.3333333,0,880)"
         clip-path="url(#clipPath26)" />
      <path
         id="path27"
         d="m -0.007,52.726 h 660.551 v 1.553 H -0.007 Z"
         style="fill:#8edaf6;fill-opacity:1;fill-rule:evenodd;stroke:none"
         transform="matrix(1.3333333,0,0,-1.3333333,0,880)"
         clip-path="url(#clipPath28)" />
      <path
         id="path29"
         d="m -0.007,21.674 h 660.551 v 1.554 H -0.007 Z"
         style="fill:#8edaf6;fill-opacity:1;fill-rule:evenodd;stroke:none"
         transform="matrix(1.3333333,0,0,-1.3333333,0,880)"
         clip-path="url(#clipPath30)" />
      <path
         id="path31"
         d="m -0.007,101.89 h 432.415 v 1.553 H -0.007 Z"
         style="fill:#8edaf6;fill-opacity:1;fill-rule:evenodd;stroke:none"
         transform="matrix(1.3333333,0,0,-1.3333333,0,880)"
         clip-path="url(#clipPath32)" />
      <path
         id="path33"
         d="m 171.579,74.46 h 488.965 v 1.554 H 171.579 Z"
         style="fill:#8edaf6;fill-opacity:1;fill-rule:evenodd;stroke:none"
         transform="matrix(1.3333333,0,0,-1.3333333,0,880)"
         clip-path="url(#clipPath34)" />
      <path
         id="path35"
         d="m -0.007,137.599 h 330.274 v 1.552 H -0.007 Z"
         style="fill:#8edaf6;fill-opacity:1;fill-rule:evenodd;stroke:none"
         transform="matrix(1.3333333,0,0,-1.3333333,0,880)"
         clip-path="url(#clipPath36)" />
      <path
         id="path37"
         d="m 0,0 c 108.062,0 203.504,-13.005 260.912,-32.872 -12.16,2.153 -24.476,4.025 -36.397,2.8 -9.671,-0.992 -18.99,-2.25 -28.741,-3.014 -40.527,-2.936 -51.035,25.982 -109.631,5.697 -49.91,-17.277 -35.949,-17.285 -88.351,-5.465 -17.646,3.98 -30.923,4.001 -48.749,1.923 -37.042,-4.799 -36.617,-7.438 -72.41,6.802 -21.58,8.587 -35.389,8.186 -57.884,3.413 -32.431,-7.405 -35.968,-8.339 -68.468,-8.511 C -191.534,-11.428 -101.303,0 0,0"
         style="fill:#87b027;fill-opacity:1;fill-rule:evenodd;stroke:none"
         transform="matrix(1.3333333,0,0,-1.3333333,440.35613,586.3972)"
         clip-path="url(#clipPath38)" />
      <path
         id="path39"
         d="m 0,0 c 79.085,-4.224 147.08,-15.549 191.897,-31.057 -12.158,2.154 -24.472,4.026 -36.391,2.8 -9.671,-0.992 -18.99,-2.25 -28.741,-3.013 C 95.67,-33.522 82.245,-17.026 51.218,-18.385 48.659,-12.101 33.069,-5.801 0,0"
         style="fill:#769a2a;fill-opacity:1;fill-rule:evenodd;stroke:none"
         transform="matrix(1.3333333,0,0,-1.3333333,532.36853,588.81773)"
         clip-path="url(#clipPath40)" />
      <path
         id="path41"
         d="m -0.007,153.9 h 660.551 v 3.171 H -0.007 Z"
         style="fill:#bce9f9;fill-opacity:1;fill-rule:evenodd;stroke:none"
         transform="matrix(1.3333333,0,0,-1.3333333,0,880)"
         clip-path="url(#clipPath42)" />
      <path
         id="path43"
         d="M 0,0 -45.987,68.312 H 75.563 L 138.695,0 122.698,-22.254 H 11.949 Z"
         style="fill:#653216;fill-opacity:1;fill-rule:evenodd;stroke:none"
         transform="matrix(1.3333333,0,0,-1.3333333,423.6536,573.70573)"
         clip-path="url(#clipPath44)" />
      <path
         id="path45"
         d="m 0,0 -10.843,-15.082 h -92.958 C -85.435,-4.9 -57.558,1.596 -26.342,1.596 -17.225,1.596 -8.395,1.04 0,0"
         style="fill:#733b19;fill-opacity:1;fill-rule:evenodd;stroke:none"
         transform="matrix(1.3333333,0,0,-1.3333333,601.7084,583.26827)"
         clip-path="url(#clipPath46)" />
      <path
         id="path47"
         d="M 0,0 60.387,68.312 138.693,0 127.638,-22.254 H 16.89 Z"
         style="fill:#985422;fill-opacity:1;fill-rule:evenodd;stroke:none"
         transform="matrix(1.3333333,0,0,-1.3333333,281.8216,573.70573)"
         clip-path="url(#clipPath48)" />
      <path
         id="path49"
         d="M 0,0 H 106.376 L 43.243,68.312 h -121.55 z"
         style="fill:#c78045;fill-opacity:1;fill-rule:evenodd;stroke:none"
         transform="matrix(1.3333333,0,0,-1.3333333,466.74613,573.70573)"
         clip-path="url(#clipPath50)" />
      <path
         id="path51"
         d="M 0,0 -36.228,39.199 H -139.224 C -136.145,15.308 -92.572,-3.636 -39.265,-3.636 -25.328,-3.636 -12.057,-2.34 0,0"
         style="fill:#da9256;fill-opacity:1;fill-rule:evenodd;stroke:none"
         transform="matrix(1.3333333,0,0,-1.3333333,572.70707,534.88933)"
         clip-path="url(#clipPath52)" />
      <path
         id="path53"
         d="m 0,0 5.541,-45.281 5.541,-45.284 H 0 -11.078 l 5.539,45.284 z"
         style="fill:#4d2917;fill-opacity:1;fill-rule:evenodd;stroke:none"
         transform="matrix(1.3333333,0,0,-1.3333333,362.3372,482.62373)"
         clip-path="url(#clipPath54)" />
      <path
         id="path55"
         d="m 0,0 c 48.177,0 87.469,39.292 87.469,87.468 0,48.176 -39.292,87.468 -87.469,87.468 -48.175,0 -87.467,-39.292 -87.467,-87.468 C -87.467,39.292 -48.175,0 0,0"
         style="fill:#f8fdfa;fill-opacity:1;fill-rule:evenodd;stroke:none"
         transform="matrix(1.3333333,0,0,-1.3333333,247.41467,348.07293)"
         clip-path="url(#clipPath56)" />
      <path
         id="path57"
         d="m 0,0 c 30.219,0 54.865,24.645 54.865,54.863 0,30.218 -24.646,54.864 -54.865,54.864 -30.216,0 -54.863,-24.646 -54.863,-54.864 C -54.863,24.645 -30.216,0 0,0"
         style="fill:#faf462;fill-opacity:1;fill-rule:evenodd;stroke:none"
         transform="matrix(1.3333333,0,0,-1.3333333,247.41467,304.5996)"
         clip-path="url(#clipPath58)" />
      <path
         id="path59"
         d="m 0,0 -23.559,-75.303 12.481,-15.262 z"
         style="fill:#c78045;fill-opacity:1;fill-rule:evenodd;stroke:none"
         transform="matrix(1.3333333,0,0,-1.3333333,362.3372,482.62373)"
         clip-path="url(#clipPath60)" />
      <path
         id="path61"
         d="M 0,0 C -20.818,12.808 5.521,37.655 18.443,18.757 27.733,5.175 33.77,-11.788 37.463,-31.184 26.23,-17.504 16.065,-9.883 0,0"
         style="fill:#325624;fill-opacity:1;fill-rule:evenodd;stroke:none"
         transform="matrix(1.3333333,0,0,-1.3333333,536.9036,317.1224)"
         clip-path="url(#clipPath62)" />
      <path
         id="path63"
         d="M 0,0 C 28.622,94.27 17.27,171.564 -54.856,223.051 16.262,189.278 46.535,118.212 22.428,-2.504 14.953,-1.67 7.477,-0.834 0,0"
         style="fill:#733b19;fill-opacity:1;fill-rule:evenodd;stroke:none"
         transform="matrix(1.3333333,0,0,-1.3333333,622.07547,599.24213)"
         clip-path="url(#clipPath64)" />
      <path
         id="path65"
         d="M 0,0 C 28.358,93.397 17.465,170.129 -52.882,221.611 8.361,184.651 33.393,113.773 11.279,-1.261 Z"
         style="fill:#b76e37;fill-opacity:1;fill-rule:evenodd;stroke:none"
         transform="matrix(1.3333333,0,0,-1.3333333,622.07547,599.24213)"
         clip-path="url(#clipPath66)" />
      <path
         id="path67"
         d="M 0,0 C -27.484,20.42 -74.343,-39.793 -59.301,-57.517 -39.533,-38.345 -19.766,-19.173 0,0"
         style="fill:#549d34;fill-opacity:1;fill-rule:evenodd;stroke:none"
         transform="matrix(1.3333333,0,0,-1.3333333,548.9336,301.8412)"
         clip-path="url(#clipPath68)" />
      <path
         id="path69"
         d="M 0,0 C -35.128,31.231 -59.45,-60.861 -37.774,-87.969 -25.184,-58.646 -12.591,-29.323 0,0"
         style="fill:#40772f;fill-opacity:1;fill-rule:evenodd;stroke:none"
         transform="matrix(1.3333333,0,0,-1.3333333,548.9336,301.8412)"
         clip-path="url(#clipPath70)" />
      <path
         id="path71"
         d="M 0,0 C -3.553,34.057 72.138,43.665 79.715,21.688 53.144,14.458 26.572,7.229 0,0"
         style="fill:#549d34;fill-opacity:1;fill-rule:evenodd;stroke:none"
         transform="matrix(1.3333333,0,0,-1.3333333,548.9336,301.84053)"
         clip-path="url(#clipPath72)" />
      <path
         id="path73"
         d="M 0,0 C -4.225,46.813 84.284,11.614 93.192,-21.931 62.128,-14.62 31.064,-7.309 0,0"
         style="fill:#40772f;fill-opacity:1;fill-rule:evenodd;stroke:none"
         transform="matrix(1.3333333,0,0,-1.3333333,548.9336,301.8412)"
         clip-path="url(#clipPath74)" />
      <path
         id="path75"
         d="M 0,0 C 19.899,13.355 -4.426,44.195 -17.005,23.175 -26.048,8.066 -32.09,-11.212 -35.974,-33.495 -25.098,-18.417 -15.354,-10.306 0,0"
         style="fill:#325624;fill-opacity:1;fill-rule:evenodd;stroke:none"
         transform="matrix(1.3333333,0,0,-1.3333333,367.724,279.9076)"
         clip-path="url(#clipPath76)" />
      <path
         id="path77"
         d="M 0,0 C -25.04,111.738 -12.736,200.784 56.351,255.324 -11.418,221.309 -41.439,140.904 -21.203,-1.255 -14.134,-0.835 -7.067,-0.417 0,0"
         style="fill:#733b19;fill-opacity:1;fill-rule:evenodd;stroke:none"
         transform="matrix(1.3333333,0,0,-1.3333333,281.56053,601.68227)"
         clip-path="url(#clipPath78)" />
      <path
         id="path79"
         d="M 0,0 C -24.808,110.706 -12.948,199.128 54.459,253.797 -4.063,215.343 -29.137,134.772 -10.66,-0.631 Z"
         style="fill:#b76e37;fill-opacity:1;fill-rule:evenodd;stroke:none"
         transform="matrix(1.3333333,0,0,-1.3333333,281.56053,601.68227)"
         clip-path="url(#clipPath80)" />
      <path
         id="path81"
         d="M 0,0 C 26.344,21.715 69.289,-51.769 54.737,-71.268 36.491,-47.511 18.245,-23.755 0,0"
         style="fill:#549d34;fill-opacity:1;fill-rule:evenodd;stroke:none"
         transform="matrix(1.3333333,0,0,-1.3333333,356.69533,261.25)"
         clip-path="url(#clipPath82)" />
      <path
         id="path83"
         d="M 0,0 C 33.773,33.722 54.808,-75.167 33.805,-105.088 22.537,-70.059 11.269,-35.029 0,0"
         style="fill:#40772f;fill-opacity:1;fill-rule:evenodd;stroke:none"
         transform="matrix(1.3333333,0,0,-1.3333333,356.69533,261.25)"
         clip-path="url(#clipPath84)" />
      <path
         id="path85"
         d="M 0,0 C 4.057,39.34 -67.127,56.109 -74.73,31.113 -49.82,20.742 -24.909,10.371 0,0"
         style="fill:#549d34;fill-opacity:1;fill-rule:evenodd;stroke:none"
         transform="matrix(1.3333333,0,0,-1.3333333,356.69533,261.24867)"
         clip-path="url(#clipPath86)" />
      <path
         id="path87"
         d="M 0,0 C 4.953,54.127 -79.245,19.737 -88.342,-18.614 -58.894,-12.409 -29.447,-6.204 0,0"
         style="fill:#40772f;fill-opacity:1;fill-rule:evenodd;stroke:none"
         transform="matrix(1.3333333,0,0,-1.3333333,356.69533,261.25)"
         clip-path="url(#clipPath88)" />
    </g>
  </g>
</svg>
