<?xml version="1.0" encoding="UTF-8" standalone="no"?>
<!-- Created with Inkscape (http://www.inkscape.org/) -->

<svg
   version="1.1"
   id="svg1"
   width="880"
   height="880"
   viewBox="0 0 880 880"
   sodipodi:docname="blue-river-in-the-green-landscape.svg"
   inkscape:version="1.3.2 (091e20e, 2023-11-25, custom)"
   xmlns:inkscape="http://www.inkscape.org/namespaces/inkscape"
   xmlns:sodipodi="http://sodipodi.sourceforge.net/DTD/sodipodi-0.dtd"
   xmlns="http://www.w3.org/2000/svg"
   xmlns:svg="http://www.w3.org/2000/svg">
  <defs
     id="defs1">
    <clipPath
       clipPathUnits="userSpaceOnUse"
       id="clipPath4">
      <path
         d="M 0,660 H 660 V 0 H 0 Z"
         transform="translate(-660.00002,-547.61182)"
         id="path4" />
    </clipPath>
    <clipPath
       clipPathUnits="userSpaceOnUse"
       id="clipPath6">
      <path
         d="M 0,660 H 660 V 0 H 0 Z"
         transform="translate(-660.00002,-499.00441)"
         id="path6" />
    </clipPath>
    <clipPath
       clipPathUnits="userSpaceOnUse"
       id="clipPath8">
      <path
         d="M 0,660 H 660 V 0 H 0 Z"
         transform="translate(-103.0957,-370.86721)"
         id="path8" />
    </clipPath>
    <clipPath
       clipPathUnits="userSpaceOnUse"
       id="clipPath10">
      <path
         d="M 0,660 H 660 V 0 H 0 Z"
         transform="translate(-649.60061,-360.73191)"
         id="path10" />
    </clipPath>
    <clipPath
       clipPathUnits="userSpaceOnUse"
       id="clipPath12">
      <path
         d="M 0,660 H 660 V 0 H 0 Z"
         transform="translate(-649.60061,-313.20511)"
         id="path12" />
    </clipPath>
    <clipPath
       clipPathUnits="userSpaceOnUse"
       id="clipPath14">
      <path
         d="M 0,660 H 660 V 0 H 0 Z"
         id="path14" />
    </clipPath>
    <clipPath
       clipPathUnits="userSpaceOnUse"
       id="clipPath16">
      <path
         d="M 0,660 H 660 V 0 H 0 Z"
         id="path16" />
    </clipPath>
    <clipPath
       clipPathUnits="userSpaceOnUse"
       id="clipPath18">
      <path
         d="M 0,660 H 660 V 0 H 0 Z"
         id="path18" />
    </clipPath>
    <clipPath
       clipPathUnits="userSpaceOnUse"
       id="clipPath20">
      <path
         d="M 0,660 H 660 V 0 H 0 Z"
         id="path20" />
    </clipPath>
    <clipPath
       clipPathUnits="userSpaceOnUse"
       id="clipPath22">
      <path
         d="M 0,660 H 660 V 0 H 0 Z"
         id="path22" />
    </clipPath>
    <clipPath
       clipPathUnits="userSpaceOnUse"
       id="clipPath24">
      <path
         d="M 0,660 H 660 V 0 H 0 Z"
         id="path24" />
    </clipPath>
    <clipPath
       clipPathUnits="userSpaceOnUse"
       id="clipPath26">
      <path
         d="M 0,660 H 660 V 0 H 0 Z"
         transform="translate(-101.4043,-287.0947)"
         id="path26" />
    </clipPath>
    <clipPath
       clipPathUnits="userSpaceOnUse"
       id="clipPath28">
      <path
         d="M 0,660 H 660 V 0 H 0 Z"
         transform="translate(-100.3984,-285.28131)"
         id="path28" />
    </clipPath>
    <clipPath
       clipPathUnits="userSpaceOnUse"
       id="clipPath30">
      <path
         d="M 0,660 H 660 V 0 H 0 Z"
         transform="translate(-422.84961,-287.0947)"
         id="path30" />
    </clipPath>
    <clipPath
       clipPathUnits="userSpaceOnUse"
       id="clipPath32">
      <path
         d="M 0,660 H 660 V 0 H 0 Z"
         transform="translate(-423.85741,-285.28131)"
         id="path32" />
    </clipPath>
    <clipPath
       clipPathUnits="userSpaceOnUse"
       id="clipPath34">
      <path
         d="M 0,660 H 660 V 0 H 0 Z"
         transform="translate(-590.69821,-297.3115)"
         id="path34" />
    </clipPath>
    <clipPath
       clipPathUnits="userSpaceOnUse"
       id="clipPath36">
      <path
         d="M 0,660 H 660 V 0 H 0 Z"
         transform="translate(-591.88091,-295.18261)"
         id="path36" />
    </clipPath>
    <clipPath
       clipPathUnits="userSpaceOnUse"
       id="clipPath38">
      <path
         d="M 0,660 H 660 V 0 H 0 Z"
         transform="translate(-292.77391,-302.31351)"
         id="path38" />
    </clipPath>
    <clipPath
       clipPathUnits="userSpaceOnUse"
       id="clipPath40">
      <path
         d="M 0,660 H 660 V 0 H 0 Z"
         transform="translate(-291.5059,-300.03131)"
         id="path40" />
    </clipPath>
    <clipPath
       clipPathUnits="userSpaceOnUse"
       id="clipPath42">
      <path
         d="M 0,660 H 660 V 0 H 0 Z"
         id="path42" />
    </clipPath>
    <clipPath
       clipPathUnits="userSpaceOnUse"
       id="clipPath44">
      <path
         d="M 0,660 H 660 V 0 H 0 Z"
         id="path44" />
    </clipPath>
    <clipPath
       clipPathUnits="userSpaceOnUse"
       id="clipPath46">
      <path
         d="M 0,660 H 660 V 0 H 0 Z"
         transform="translate(-63.107402,-276.94431)"
         id="path46" />
    </clipPath>
    <clipPath
       clipPathUnits="userSpaceOnUse"
       id="clipPath48">
      <path
         d="M 0,660 H 660 V 0 H 0 Z"
         transform="translate(-61.121602,-275.2783)"
         id="path48" />
    </clipPath>
    <clipPath
       clipPathUnits="userSpaceOnUse"
       id="clipPath50">
      <path
         d="M 0,660 H 660 V 0 H 0 Z"
         transform="translate(-538.65331,-291.73141)"
         id="path50" />
    </clipPath>
    <clipPath
       clipPathUnits="userSpaceOnUse"
       id="clipPath52">
      <path
         d="M 0,660 H 660 V 0 H 0 Z"
         transform="translate(-540.91411,-289.83591)"
         id="path52" />
    </clipPath>
    <clipPath
       clipPathUnits="userSpaceOnUse"
       id="clipPath54">
      <path
         d="M 0,660 H 660 V 0 H 0 Z"
         transform="translate(-467.77641,-264.3379)"
         id="path54" />
    </clipPath>
    <clipPath
       clipPathUnits="userSpaceOnUse"
       id="clipPath56">
      <path
         d="M 0,660 H 660 V 0 H 0 Z"
         transform="translate(-469.51661,-262.87891)"
         id="path56" />
    </clipPath>
    <clipPath
       clipPathUnits="userSpaceOnUse"
       id="clipPath58">
      <path
         d="M 0,660 H 660 V 0 H 0 Z"
         transform="translate(-214.4854,-287.0947)"
         id="path58" />
    </clipPath>
    <clipPath
       clipPathUnits="userSpaceOnUse"
       id="clipPath60">
      <path
         d="M 0,660 H 660 V 0 H 0 Z"
         transform="translate(-212.32321,-285.2803)"
         id="path60" />
    </clipPath>
    <clipPath
       clipPathUnits="userSpaceOnUse"
       id="clipPath62">
      <path
         d="M 0,660 H 660 V 0 H 0 Z"
         id="path62" />
    </clipPath>
    <clipPath
       clipPathUnits="userSpaceOnUse"
       id="clipPath64">
      <path
         d="M 0,660 H 660 V 0 H 0 Z"
         id="path64" />
    </clipPath>
    <clipPath
       clipPathUnits="userSpaceOnUse"
       id="clipPath66">
      <path
         d="M 0,660 H 660 V 0 H 0 Z"
         transform="translate(-1.1665,-151.6504)"
         id="path66" />
    </clipPath>
    <clipPath
       clipPathUnits="userSpaceOnUse"
       id="clipPath68">
      <path
         d="M 0,660 H 660 V 0 H 0 Z"
         transform="translate(-70.630402,-138.96681)"
         id="path68" />
    </clipPath>
    <clipPath
       clipPathUnits="userSpaceOnUse"
       id="clipPath70">
      <path
         d="M 0,660 H 660 V 0 H 0 Z"
         transform="translate(-132.4453,-249.3691)"
         id="path70" />
    </clipPath>
    <clipPath
       clipPathUnits="userSpaceOnUse"
       id="clipPath72">
      <path
         d="M 0,660 H 660 V 0 H 0 Z"
         transform="translate(-355.30861,-215.57031)"
         id="path72" />
    </clipPath>
    <clipPath
       clipPathUnits="userSpaceOnUse"
       id="clipPath74">
      <path
         d="M 0,660 H 660 V 0 H 0 Z"
         transform="translate(-612.95122,-235.09281)"
         id="path74" />
    </clipPath>
    <clipPath
       clipPathUnits="userSpaceOnUse"
       id="clipPath76">
      <path
         d="M 0,660 H 660 V 0 H 0 Z"
         transform="translate(-361.55371,-539.28611)"
         id="path76" />
    </clipPath>
  </defs>
  <sodipodi:namedview
     id="namedview1"
     pagecolor="#ffffff"
     bordercolor="#000000"
     borderopacity="0.25"
     inkscape:showpageshadow="2"
     inkscape:pageopacity="0.0"
     inkscape:pagecheckerboard="0"
     inkscape:deskcolor="#d1d1d1"
     inkscape:zoom="0.67272727"
     inkscape:cx="439.25676"
     inkscape:cy="440"
     inkscape:window-width="1440"
     inkscape:window-height="830"
     inkscape:window-x="-6"
     inkscape:window-y="-6"
     inkscape:window-maximized="1"
     inkscape:current-layer="g1">
    <inkscape:page
       x="0"
       y="0"
       inkscape:label="1"
       id="page1"
       width="880"
       height="880"
       margin="1.5976 0 0 1.55532"
       bleed="0" />
  </sodipodi:namedview>
  <g
     id="g1"
     inkscape:groupmode="layer"
     inkscape:label="1">
    <g
       id="group-MC0">
      <path
         id="path2"
         d="M 1.166,1.198 H 659.999 V 660 H 1.166 Z"
         style="fill:#eef6b4;fill-opacity:1;fill-rule:nonzero;stroke:none"
         transform="matrix(1.3333333,0,0,-1.3333333,0,880)" />
      <path
         id="path3"
         d="m 0,0 v -140.145 c -2.45,-0.383 -4.962,-0.584 -7.52,-0.584 -1.459,0 -2.901,0.068 -4.327,0.196 -3.138,-13.765 -15.454,-24.038 -30.169,-24.038 -4.83,0 -9.402,1.107 -13.476,3.082 -7.245,-7.104 -17.17,-11.486 -28.118,-11.486 -17.249,0 -31.957,10.872 -37.651,26.138 -6.321,-4.892 -14.251,-7.805 -22.862,-7.805 -5.031,0 -9.828,0.996 -14.209,2.797 -6.208,-10.07 -17.334,-16.784 -30.032,-16.784 -7.715,0 -14.849,2.479 -20.654,6.68 -3.619,-2.38 -7.949,-3.765 -12.605,-3.765 -10.134,0 -18.737,6.563 -21.791,15.671 -17.746,0.875 -32.282,13.955 -35.392,31.023 -6.579,-4.111 -14.353,-6.491 -22.682,-6.491 -13.801,0 -26.077,6.525 -33.918,16.656 -4.343,-10.094 -14.379,-17.163 -26.067,-17.163 -10.907,0 -20.374,6.158 -25.119,15.186 -6.662,-13.504 -20.567,-22.795 -36.643,-22.795 -17.418,0 -32.288,10.907 -38.156,26.263 -1.956,-0.258 -3.951,-0.392 -5.977,-0.392 -16.092,0 -30.228,8.371 -38.291,20.996 -5.839,-10.981 -17.395,-18.46 -30.699,-18.46 -16.145,0 -29.717,11.011 -33.62,25.933 -4.361,-1.992 -9.209,-3.104 -14.318,-3.104 -19.051,0 -34.495,15.443 -34.495,34.494 0,2.633 0.297,5.198 0.856,7.662 -5.818,-2.952 -12.4,-4.618 -19.372,-4.618 -7.846,0 -15.2,2.11 -21.526,5.791 v 74.147 c 6.326,3.681 13.68,5.791 21.526,5.791 23.674,0 42.865,-19.191 42.865,-42.864 0,-4.794 -0.787,-9.404 -2.239,-13.707 3.845,1.48 8.019,2.292 12.385,2.292 15.953,0 29.374,-10.829 33.317,-25.538 4.445,2.065 9.398,3.218 14.621,3.218 10.387,0 19.708,-4.558 26.075,-11.782 6.153,17.781 23.041,30.552 42.915,30.552 21.496,0 39.502,-14.941 44.203,-35.004 18.314,-0.03 33.802,-12.117 38.947,-28.749 5.172,6.93 13.435,11.417 22.745,11.417 6.704,0 12.86,-2.325 17.715,-6.212 3.402,20.272 21.031,35.721 42.27,35.721 6.331,0 12.34,-1.375 17.748,-3.838 5.426,10.132 16.113,17.026 28.414,17.026 13.271,0 24.665,-8.026 29.599,-19.488 2.935,0.797 6.021,1.226 9.207,1.226 10.782,0 20.422,-4.874 26.842,-12.539 7.05,7.705 17.186,12.539 28.452,12.539 7.421,0 14.352,-2.099 20.234,-5.732 7.332,7.007 17.269,11.313 28.212,11.313 1.89,0 3.752,-0.129 5.575,-0.379 5.893,21.843 25.839,37.917 49.544,37.917 13.229,0 25.289,-5.008 34.389,-13.229 C -18.219,-6.97 -9.797,-1.318 0,0"
         style="fill:#f5fad6;fill-opacity:1;fill-rule:evenodd;stroke:none"
         transform="matrix(1.3333333,0,0,-1.3333333,880,149.85093)"
         clip-path="url(#clipPath4)" />
      <path
         id="path5"
         d="m 0,0 v -161.15 c -6.934,-8.344 -17.387,-13.657 -29.081,-13.657 -14.393,0 -26.906,8.046 -33.286,19.885 -6.446,-8.97 -16.968,-14.812 -28.857,-14.812 -15.888,0 -29.339,10.436 -33.873,24.827 -5.763,-2.587 -12.155,-4.028 -18.884,-4.028 -9.998,0 -19.251,3.179 -26.809,8.579 -2.705,-17.501 -17.834,-30.899 -36.092,-30.899 -15.524,0 -28.786,9.686 -34.073,23.344 -7.151,-4.811 -15.76,-7.618 -25.025,-7.618 -23.718,0 -43.137,18.392 -44.779,41.691 -0.876,-0.061 -1.76,-0.096 -2.651,-0.096 -6.964,0 -13.479,1.924 -19.041,5.266 -3.546,-17.194 -18.769,-30.122 -37.014,-30.122 -18.35,0 -33.643,13.08 -37.072,30.425 -5.617,-6.222 -13.744,-10.134 -22.787,-10.134 -7.932,0 -15.161,3.01 -20.608,7.949 -8.236,-7.461 -19.161,-12.007 -31.15,-12.007 -18.001,0 -33.606,10.248 -41.304,25.228 -9.468,-12.84 -24.697,-21.17 -41.873,-21.17 -11.249,0 -21.665,3.574 -30.173,9.646 -7.257,-13.587 -21.576,-22.835 -38.056,-22.835 -9.922,0 -19.059,3.352 -26.345,8.985 V 22.398 c 7.595,4.894 16.638,7.735 26.345,7.735 26.808,0 48.553,-21.662 48.695,-48.436 6.031,2.446 12.625,3.796 19.534,3.796 21.465,0 39.89,-13.008 47.828,-31.57 8.512,9.997 21.189,16.341 35.349,16.341 19.353,0 35.935,-11.847 42.901,-28.682 2.804,0.844 5.778,1.3 8.857,1.3 13.789,0 25.452,-9.095 29.325,-21.611 6.874,9.409 17.991,15.523 30.534,15.523 7.302,0 14.122,-2.073 19.901,-5.66 3.669,16.587 18.461,28.994 36.154,28.994 17.12,0 31.526,-11.62 35.763,-27.404 3.72,0.998 7.631,1.534 11.667,1.534 21.658,0 39.733,-15.338 43.958,-35.742 4.613,2.104 9.739,3.277 15.14,3.277 6.035,0 11.729,-1.466 16.745,-4.059 0.273,25.261 20.831,45.655 46.156,45.655 24.345,0 44.286,-18.845 46.037,-42.743 2.175,0.418 4.423,0.639 6.72,0.639 13.032,0 24.421,-7.021 30.598,-17.484 6.764,10.228 18.364,16.977 31.545,16.977 0.946,0 1.884,-0.036 2.812,-0.105 0.283,8.054 3.476,15.368 8.56,20.922 -9.03,8.51 -14.67,20.58 -14.67,33.968 0,20.79 13.596,38.4 32.379,44.437"
         style="fill:#ffffff;fill-opacity:1;fill-rule:evenodd;stroke:none"
         transform="matrix(1.3333333,0,0,-1.3333333,880,214.6608)"
         clip-path="url(#clipPath6)" />
      <path
         id="path7"
         d="m 0,0 67.619,39.04 c 22.254,12.849 47.731,12.849 69.985,0 l 2.64,-1.523 c 19.138,-11.05 40.205,-12.597 60.752,-4.462 19.713,7.804 41.101,6.212 60.132,-4.775 l 107.257,-61.925 c 22.254,-12.848 47.73,-12.848 69.984,0 l 33.325,19.24 c 22.255,12.849 47.731,12.849 69.986,0 l 15.224,-8.79 V -147.557 H 168.925 Z"
         style="fill:#cce46d;fill-opacity:1;fill-rule:evenodd;stroke:none"
         transform="matrix(1.3333333,0,0,-1.3333333,137.46093,385.5104)"
         clip-path="url(#clipPath8)" />
      <path
         id="path9"
         d="m 0,0 10.399,6.004 v -124.637 l -658.833,0.355 V 25.003 l 47.582,27.472 c 40.392,23.321 86.631,23.321 127.024,0 l 104.501,-60.334 c 40.394,-23.321 86.632,-23.321 127.024,0 l 39.079,22.562 c 40.137,23.173 86.005,23.324 126.295,0.418 L -50.045,-0.165 C -34.08,-9.243 -15.904,-9.182 0,0"
         style="fill:#87b027;fill-opacity:1;fill-rule:evenodd;stroke:none"
         transform="matrix(1.3333333,0,0,-1.3333333,866.13413,399.02413)"
         clip-path="url(#clipPath10)" />
      <path
         id="path11"
         d="m 0,0 10.399,3.598 v -74.704 l -658.833,0.212 v 85.88 l 47.582,16.467 c 40.392,13.977 86.631,13.977 127.024,0 L -369.327,-4.71 c 40.394,-13.977 86.632,-13.977 127.024,0 l 39.079,13.523 c 40.137,13.89 86.005,13.98 126.295,0.251 L -50.045,-0.1 C -34.08,-5.538 -15.904,-5.504 0,0"
         style="fill:#7ba229;fill-opacity:1;fill-rule:evenodd;stroke:none"
         transform="matrix(1.3333333,0,0,-1.3333333,866.13413,462.3932)"
         clip-path="url(#clipPath12)" />
      <path
         id="path13"
         d="M 1.166,1.198 H 659.999 V 287.094 H 1.166 Z"
         style="fill:#bbde1a;fill-opacity:1;fill-rule:evenodd;stroke:none"
         transform="matrix(1.3333333,0,0,-1.3333333,0,880)"
         clip-path="url(#clipPath14)" />
      <path
         id="path15"
         d="m 1.166,279.992 h 658.833 v 7.103 H 1.166 Z"
         style="fill:#cbe424;fill-opacity:1;fill-rule:evenodd;stroke:none"
         transform="matrix(1.3333333,0,0,-1.3333333,0,880)"
         clip-path="url(#clipPath16)" />
      <path
         id="path17"
         d="m 1.166,235.093 h 658.833 v 7.102 H 1.166 Z"
         style="fill:#cbe424;fill-opacity:1;fill-rule:evenodd;stroke:none"
         transform="matrix(1.3333333,0,0,-1.3333333,0,880)"
         clip-path="url(#clipPath18)" />
      <path
         id="path19"
         d="m 1.166,178.03 h 658.833 v 43.625 H 1.166 Z"
         style="fill:#8eb825;fill-opacity:1;fill-rule:evenodd;stroke:none"
         transform="matrix(1.3333333,0,0,-1.3333333,0,880)"
         clip-path="url(#clipPath20)" />
      <path
         id="path21"
         d="m 1.166,94.837 h 658.833 v 75.075 H 1.166 Z"
         style="fill:#54c6c8;fill-opacity:1;fill-rule:evenodd;stroke:none"
         transform="matrix(1.3333333,0,0,-1.3333333,0,880)"
         clip-path="url(#clipPath22)" />
      <path
         id="path23"
         d="M 1.166,82.661 H 659.999 V 94.837 H 1.166 Z"
         style="fill:#81be29;fill-opacity:1;fill-rule:evenodd;stroke:none"
         transform="matrix(1.3333333,0,0,-1.3333333,0,880)"
         clip-path="url(#clipPath24)" />
      <path
         id="path25"
         d="m 0,0 c 6.513,0 11.792,-7.936 11.792,-17.724 0,-2.254 -0.279,-4.407 -0.79,-6.389 1.386,-2.235 2.253,-5.42 2.253,-8.955 0,-6.764 -3.171,-12.248 -7.083,-12.248 -1.572,0 -3.023,0.886 -4.198,2.384 v -13.703 h -4.771 v 12.217 c -0.908,-0.571 -1.887,-0.884 -2.909,-0.884 -4.673,0 -8.463,6.528 -8.463,14.579 0,4.051 0.959,7.715 2.507,10.358 -0.086,0.862 -0.13,1.745 -0.13,2.641 C -11.792,-7.936 -6.513,0 0,0"
         style="fill:#ecf390;fill-opacity:1;fill-rule:evenodd;stroke:none"
         transform="matrix(1.3333333,0,0,-1.3333333,135.20573,497.20707)"
         clip-path="url(#clipPath26)" />
      <path
         id="path27"
         d="m 0,0 c 6.513,0 11.793,-7.933 11.793,-17.722 0,-2.254 -0.281,-4.407 -0.791,-6.389 1.385,-2.235 2.252,-5.42 2.252,-8.955 0,-6.764 -3.17,-12.248 -7.082,-12.248 -1.572,0 -3.024,0.886 -4.199,2.384 v -13.702 h -4.771 v 12.216 c -0.907,-0.571 -1.886,-0.882 -2.907,-0.882 -4.675,0 -8.464,6.527 -8.464,14.579 0,4.049 0.96,7.713 2.507,10.356 -0.086,0.862 -0.13,1.744 -0.13,2.641 C -11.792,-7.933 -6.514,0 0,0"
         style="fill:#8eb825;fill-opacity:1;fill-rule:evenodd;stroke:none"
         transform="matrix(1.3333333,0,0,-1.3333333,133.86453,499.62493)"
         clip-path="url(#clipPath28)" />
      <path
         id="path29"
         d="m 0,0 c -6.513,0 -11.792,-7.936 -11.792,-17.724 0,-2.254 0.281,-4.407 0.791,-6.389 -1.387,-2.235 -2.252,-5.42 -2.252,-8.955 0,-6.764 3.17,-12.248 7.08,-12.248 1.572,0 3.024,0.886 4.199,2.384 v -13.703 h 4.773 v 12.217 c 0.906,-0.571 1.886,-0.884 2.906,-0.884 4.675,0 8.465,6.528 8.465,14.579 0,4.051 -0.96,7.715 -2.509,10.358 0.086,0.862 0.131,1.745 0.131,2.641 C 11.792,-7.936 6.513,0 0,0"
         style="fill:#ecf390;fill-opacity:1;fill-rule:evenodd;stroke:none"
         transform="matrix(1.3333333,0,0,-1.3333333,563.79947,497.20707)"
         clip-path="url(#clipPath30)" />
      <path
         id="path31"
         d="m 0,0 c -6.515,0 -11.794,-7.933 -11.794,-17.722 0,-2.254 0.28,-4.407 0.791,-6.389 -1.386,-2.235 -2.253,-5.42 -2.253,-8.955 0,-6.764 3.171,-12.248 7.083,-12.248 1.572,0 3.024,0.886 4.197,2.384 v -13.702 h 4.773 v 12.216 c 0.906,-0.571 1.886,-0.882 2.908,-0.882 4.673,0 8.463,6.527 8.463,14.579 0,4.049 -0.96,7.713 -2.507,10.356 0.086,0.862 0.13,1.744 0.13,2.641 C 11.791,-7.933 6.512,0 0,0"
         style="fill:#8eb825;fill-opacity:1;fill-rule:evenodd;stroke:none"
         transform="matrix(1.3333333,0,0,-1.3333333,565.1432,499.62493)"
         clip-path="url(#clipPath32)" />
      <path
         id="path33"
         d="m 0,0 c -7.65,0 -13.854,-9.321 -13.854,-20.821 0,-2.648 0.331,-5.179 0.928,-7.507 -1.627,-2.627 -2.645,-6.367 -2.645,-10.523 0,-7.945 3.725,-14.387 8.32,-14.387 1.847,0 3.553,1.041 4.933,2.8 v -16.096 h 5.606 v 14.351 c 1.066,-0.671 2.215,-1.037 3.415,-1.037 5.492,0 9.943,7.669 9.943,17.129 0,4.758 -1.126,9.063 -2.945,12.167 0.101,1.012 0.153,2.047 0.153,3.103 C 13.854,-9.321 7.652,0 0,0"
         style="fill:#ecf390;fill-opacity:1;fill-rule:evenodd;stroke:none"
         transform="matrix(1.3333333,0,0,-1.3333333,787.5976,483.58467)"
         clip-path="url(#clipPath34)" />
      <path
         id="path35"
         d="m 0,0 c -7.652,0 -13.854,-9.321 -13.854,-20.819 0,-2.649 0.33,-5.179 0.929,-7.509 -1.628,-2.625 -2.646,-6.367 -2.646,-10.52 0,-7.948 3.724,-14.389 8.32,-14.389 1.847,0 3.552,1.042 4.933,2.801 v -16.097 h 5.606 v 14.352 c 1.065,-0.671 2.216,-1.039 3.415,-1.039 5.492,0 9.942,7.669 9.942,17.129 0,4.758 -1.127,9.063 -2.944,12.167 0.101,1.013 0.153,2.048 0.153,3.105 C 13.854,-9.321 7.65,0 0,0"
         style="fill:#8eb825;fill-opacity:1;fill-rule:evenodd;stroke:none"
         transform="matrix(1.3333333,0,0,-1.3333333,789.17453,486.4232)"
         clip-path="url(#clipPath36)" />
      <path
         id="path37"
         d="m 0,0 c 8.207,0 14.862,-10.001 14.862,-22.339 0,-2.839 -0.354,-5.555 -0.996,-8.054 1.745,-2.817 2.839,-6.831 2.839,-11.288 0,-8.524 -3.997,-15.434 -8.927,-15.434 -1.98,0 -3.812,1.116 -5.291,3.004 v -17.27 h -6.014 v 15.399 c -1.143,-0.722 -2.378,-1.114 -3.666,-1.114 -5.89,0 -10.666,8.227 -10.666,18.376 0,5.104 1.208,9.723 3.159,13.052 -0.109,1.087 -0.165,2.198 -0.165,3.329 C -14.865,-10.001 -8.21,0 0,0"
         style="fill:#ecf390;fill-opacity:1;fill-rule:evenodd;stroke:none"
         transform="matrix(1.3333333,0,0,-1.3333333,390.3652,476.91533)"
         clip-path="url(#clipPath38)" />
      <path
         id="path39"
         d="m 0,0 c 8.207,0 14.862,-10.002 14.862,-22.339 0,-2.84 -0.354,-5.555 -0.996,-8.055 1.745,-2.817 2.838,-6.832 2.838,-11.287 0,-8.525 -3.996,-15.436 -8.927,-15.436 -1.981,0 -3.811,1.116 -5.29,3.004 v -17.269 h -6.014 v 15.398 c -1.143,-0.72 -2.378,-1.113 -3.666,-1.113 -5.89,0 -10.666,8.227 -10.666,18.375 0,5.105 1.207,9.723 3.159,13.054 -0.109,1.087 -0.165,2.196 -0.165,3.329 C -14.865,-10.002 -8.211,0 0,0"
         style="fill:#8eb825;fill-opacity:1;fill-rule:evenodd;stroke:none"
         transform="matrix(1.3333333,0,0,-1.3333333,388.67453,479.95827)"
         clip-path="url(#clipPath40)" />
      <path
         id="path41"
         d="M 1.166,1.198 H 659.999 V 82.661 H 1.166 Z"
         style="fill:#395121;fill-opacity:1;fill-rule:evenodd;stroke:none"
         transform="matrix(1.3333333,0,0,-1.3333333,0,880)"
         clip-path="url(#clipPath42)" />
      <path
         id="path43"
         d="m 1.166,215.569 h 658.833 v 19.523 H 1.166 Z"
         style="fill:#a4ce1d;fill-opacity:1;fill-rule:evenodd;stroke:none"
         transform="matrix(1.3333333,0,0,-1.3333333,0,880)"
         clip-path="url(#clipPath44)" />
      <path
         id="path45"
         d="m 0,0 c 12.117,0 21.94,-14.763 21.94,-32.973 0,-4.191 -0.522,-8.201 -1.471,-11.887 2.578,-4.161 4.191,-10.085 4.191,-16.663 0,-12.583 -5.9,-22.786 -13.177,-22.786 -2.924,0 -5.625,1.649 -7.811,4.434 v -25.49 h -8.878 v 22.727 c -1.687,-1.063 -3.509,-1.642 -5.409,-1.642 -8.696,0 -15.745,12.143 -15.745,27.124 0,7.536 1.784,14.353 4.663,19.268 -0.159,1.604 -0.243,3.245 -0.243,4.915 C -21.94,-14.763 -12.117,0 0,0"
         style="fill:#ecf390;fill-opacity:1;fill-rule:evenodd;stroke:none"
         transform="matrix(1.3333333,0,0,-1.3333333,84.1432,510.74093)"
         clip-path="url(#clipPath46)" />
      <path
         id="path47"
         d="m 0,0 c 12.117,0 21.94,-14.761 21.94,-32.974 0,-4.19 -0.522,-8.2 -1.471,-11.886 2.578,-4.158 4.191,-10.085 4.191,-16.662 0,-12.584 -5.9,-22.787 -13.177,-22.787 -2.924,0 -5.625,1.649 -7.811,4.436 v -25.493 h -8.878 v 22.73 c -1.687,-1.063 -3.509,-1.643 -5.409,-1.643 -8.696,0 -15.745,12.144 -15.745,27.125 0,7.534 1.784,14.352 4.663,19.266 -0.16,1.604 -0.243,3.245 -0.243,4.914 C -21.94,-14.761 -12.117,0 0,0"
         style="fill:#4e7129;fill-opacity:1;fill-rule:evenodd;stroke:none"
         transform="matrix(1.3333333,0,0,-1.3333333,81.495467,512.96227)"
         clip-path="url(#clipPath48)" />
      <path
         id="path49"
         d="m 0,0 c -13.792,0 -24.971,-16.804 -24.971,-37.528 0,-4.772 0.593,-9.334 1.674,-13.531 -2.934,-4.735 -4.77,-11.478 -4.77,-18.965 0,-14.323 6.714,-25.932 14.997,-25.932 3.329,0 6.403,1.876 8.89,5.046 v -29.013 H 5.925 v 25.869 c 1.92,-1.209 3.992,-1.87 6.157,-1.87 9.897,0 17.92,13.822 17.92,30.871 0,8.578 -2.031,16.337 -5.307,21.93 0.182,1.824 0.276,3.692 0.276,5.595 C 24.971,-16.804 13.791,0 0,0"
         style="fill:#ecf390;fill-opacity:1;fill-rule:evenodd;stroke:none"
         transform="matrix(1.3333333,0,0,-1.3333333,718.2044,491.0248)"
         clip-path="url(#clipPath50)" />
      <path
         id="path51"
         d="m 0,0 c -13.792,0 -24.971,-16.804 -24.971,-37.529 0,-4.771 0.593,-9.333 1.672,-13.531 -2.933,-4.734 -4.768,-11.478 -4.768,-18.964 0,-14.323 6.713,-25.933 14.997,-25.933 3.329,0 6.402,1.876 8.89,5.047 v -29.014 H 5.925 v 25.869 c 1.919,-1.21 3.992,-1.869 6.155,-1.869 9.899,0 17.922,13.821 17.922,30.871 0,8.577 -2.031,16.336 -5.309,21.93 0.182,1.824 0.278,3.691 0.278,5.594 C 24.971,-16.804 13.79,0 0,0"
         style="fill:#4e7129;fill-opacity:1;fill-rule:evenodd;stroke:none"
         transform="matrix(1.3333333,0,0,-1.3333333,721.2188,493.55213)"
         clip-path="url(#clipPath52)" />
      <path
         id="path53"
         d="m 0,0 c -10.619,0 -19.23,-12.939 -19.23,-28.9 0,-3.674 0.458,-7.187 1.289,-10.42 -2.259,-3.645 -3.673,-8.839 -3.673,-14.604 0,-11.031 5.171,-19.971 11.549,-19.971 2.563,0 4.931,1.444 6.846,3.885 v -22.342 h 7.781 v 19.921 c 1.48,-0.93 3.077,-1.439 4.743,-1.439 7.623,0 13.799,10.644 13.799,23.773 0,6.606 -1.563,12.581 -4.087,16.89 0.141,1.405 0.213,2.844 0.213,4.307 C 19.23,-12.939 10.621,0 0,0"
         style="fill:#ecf390;fill-opacity:1;fill-rule:evenodd;stroke:none"
         transform="matrix(1.3333333,0,0,-1.3333333,623.70187,527.54947)"
         clip-path="url(#clipPath54)" />
      <path
         id="path55"
         d="m 0,0 c -10.619,0 -19.229,-12.939 -19.229,-28.901 0,-3.674 0.458,-7.188 1.29,-10.42 -2.261,-3.646 -3.674,-8.839 -3.674,-14.604 0,-11.03 5.17,-19.973 11.549,-19.973 2.564,0 4.93,1.446 6.846,3.888 v -22.344 h 7.783 v 19.923 c 1.477,-0.931 3.074,-1.44 4.741,-1.44 7.622,0 13.799,10.644 13.799,23.773 0,6.606 -1.564,12.582 -4.086,16.89 0.139,1.405 0.212,2.842 0.212,4.307 C 19.231,-12.939 10.621,0 0,0"
         style="fill:#4e7129;fill-opacity:1;fill-rule:evenodd;stroke:none"
         transform="matrix(1.3333333,0,0,-1.3333333,626.02213,529.4948)"
         clip-path="url(#clipPath56)" />
      <path
         id="path57"
         d="m 0,0 c 13.197,0 23.895,-16.078 23.895,-35.912 0,-4.565 -0.568,-8.931 -1.602,-12.946 2.807,-4.53 4.564,-10.985 4.564,-18.148 0,-13.706 -6.425,-24.815 -14.35,-24.815 -3.185,0 -6.127,1.795 -8.508,4.83 v -27.764 H -5.67 V -90 c -1.836,-1.158 -3.821,-1.79 -5.89,-1.79 -9.472,0 -17.149,13.227 -17.149,29.541 0,8.207 1.943,15.632 5.079,20.985 -0.174,1.745 -0.264,3.534 -0.264,5.352 C -23.894,-16.078 -13.196,0 0,0"
         style="fill:#ecf390;fill-opacity:1;fill-rule:evenodd;stroke:none"
         transform="matrix(1.3333333,0,0,-1.3333333,285.98053,497.20707)"
         clip-path="url(#clipPath58)" />
      <path
         id="path59"
         d="m 0,0 c 13.196,0 23.894,-16.079 23.894,-35.911 0,-4.566 -0.568,-8.93 -1.601,-12.947 2.807,-4.53 4.564,-10.984 4.564,-18.147 0,-13.706 -6.425,-24.815 -14.351,-24.815 -3.185,0 -6.127,1.795 -8.507,4.83 v -27.765 H -5.67 v 24.754 c -1.837,-1.157 -3.821,-1.788 -5.891,-1.788 -9.471,0 -17.148,13.225 -17.148,29.54 0,8.207 1.942,15.633 5.079,20.986 -0.174,1.745 -0.265,3.532 -0.265,5.352 C -23.895,-16.079 -13.197,0 0,0"
         style="fill:#4e7129;fill-opacity:1;fill-rule:evenodd;stroke:none"
         transform="matrix(1.3333333,0,0,-1.3333333,283.0976,499.62627)"
         clip-path="url(#clipPath60)" />
      <path
         id="path61"
         d="M 268.469,151.65 H 416.593 V 94.837 H 268.469 Z m 230.303,0 h 29.421 V 94.837 h -29.421 z m -428.142,0 H 178.173 V 94.837 H 70.63 Z"
         style="fill:#6ecfd6;fill-opacity:1;fill-rule:evenodd;stroke:none"
         transform="matrix(1.3333333,0,0,-1.3333333,0,880)"
         clip-path="url(#clipPath62)" />
      <path
         id="path63"
         d="m 1.166,151.649 h 658.833 v 26.379 H 1.166 Z"
         style="fill:#4e7129;fill-opacity:1;fill-rule:evenodd;stroke:none"
         transform="matrix(1.3333333,0,0,-1.3333333,0,880)"
         clip-path="url(#clipPath64)" />
      <path
         id="path65"
         d="M 0,0 H 658.833 V -11.595 H 545.672 v -2.878 c 1.919,0.475 3.993,0.735 6.156,0.735 9.898,0 17.922,-5.43 17.922,-12.127 0,-3.369 -2.032,-6.415 -5.309,-8.613 0.182,-0.717 0.277,-1.451 0.277,-2.197 0,-8.14 -11.18,-14.741 -24.97,-14.741 -13.792,0 -24.971,6.601 -24.971,14.741 0,1.873 0.593,3.666 1.672,5.314 -2.933,1.859 -4.769,4.509 -4.769,7.449 0,5.626 6.714,10.187 14.997,10.187 3.329,0 6.403,-0.737 8.891,-1.983 v 4.113 h -62.653 v -0.783 c 1.477,0.367 3.074,0.567 4.741,0.567 7.622,0 13.8,-4.181 13.8,-9.34 0,-2.594 -1.565,-4.941 -4.087,-6.633 0.139,-0.552 0.212,-1.116 0.212,-1.692 0,-6.269 -8.61,-11.352 -19.231,-11.352 -10.619,0 -19.229,5.083 -19.229,11.352 0,1.444 0.458,2.823 1.29,4.093 -2.261,1.432 -3.674,3.473 -3.674,5.737 0,4.333 5.17,7.844 11.549,7.844 2.564,0 4.93,-0.567 6.846,-1.527 v 1.734 H 215.155 v -3.862 c 2.381,1.192 5.323,1.897 8.508,1.897 7.926,0 14.351,-4.365 14.351,-9.748 0,-2.813 -1.757,-5.348 -4.564,-7.128 1.033,-1.577 1.601,-3.292 1.601,-5.084 0,-7.791 -10.698,-14.106 -23.894,-14.106 -13.197,0 -23.895,6.315 -23.895,14.106 0,0.712 0.091,1.415 0.264,2.102 -3.136,2.102 -5.079,5.018 -5.079,8.241 0,6.408 7.678,11.604 17.149,11.604 2.07,0 4.054,-0.248 5.891,-0.702 v 2.68 H 63.627 v -2.729 c 2.186,1.095 4.887,1.742 7.811,1.742 7.277,0 13.177,-4.008 13.177,-8.95 0,-2.584 -1.613,-4.911 -4.191,-6.546 0.949,-1.448 1.471,-3.022 1.471,-4.668 0,-7.153 -9.823,-12.953 -21.94,-12.953 -12.117,0 -21.94,5.8 -21.94,12.953 0,0.655 0.084,1.3 0.243,1.929 -2.879,1.931 -4.663,4.608 -4.663,7.569 0,5.884 7.049,10.654 15.745,10.654 1.9,0 3.723,-0.228 5.41,-0.645 v 1.644 H 0 Z"
         style="fill:#41adb3;fill-opacity:1;fill-rule:evenodd;stroke:none"
         transform="matrix(1.3333333,0,0,-1.3333333,1.5553333,677.79947)"
         clip-path="url(#clipPath66)" />
      <path
         id="path67"
         d="m 0,0 c 0.644,0.066 1.303,0.102 1.974,0.102 7.277,0 13.177,-4.008 13.177,-8.951 0,-2.584 -1.613,-4.911 -4.191,-6.545 0.949,-1.449 1.471,-3.022 1.471,-4.668 0,-5.143 -5.075,-9.584 -12.431,-11.677 z m 457.563,-36.678 c -7.333,2.568 -12.25,7.287 -12.25,12.687 0,1.873 0.593,3.666 1.672,5.313 -2.933,1.86 -4.769,4.509 -4.769,7.449 0,5.627 6.714,10.188 14.997,10.188 l 0.35,-0.004 z m -29.421,49.362 h 29.421 V 1.089 h -29.421 z m -230.304,0 H 345.962 V 1.089 H 197.838 Z M 0,12.684 H 107.543 V 1.089 L 0,1.089 Z"
         style="fill:#54c6c8;fill-opacity:1;fill-rule:evenodd;stroke:none"
         transform="matrix(1.3333333,0,0,-1.3333333,94.173867,694.71093)"
         clip-path="url(#clipPath68)" />
      <path
         id="path69"
         d="m 0,0 c 20.205,0 36.583,-24.615 36.583,-54.981 0,-6.99 -0.869,-13.673 -2.452,-19.824 4.299,-6.933 6.989,-16.815 6.989,-27.783 0,-20.983 -9.838,-37.993 -21.973,-37.993 -4.876,0 -9.38,2.748 -13.024,7.395 v -42.508 H -8.681 v 37.9 c -2.812,-1.773 -5.851,-2.739 -9.019,-2.739 -14.501,0 -26.255,20.248 -26.255,45.229 0,12.565 2.975,23.932 7.776,32.127 -0.267,2.674 -0.405,5.41 -0.405,8.196 C -36.584,-24.615 -20.206,0 0,0"
         style="fill:#395121;fill-opacity:1;fill-rule:evenodd;stroke:none"
         transform="matrix(1.3333333,0,0,-1.3333333,176.59373,547.50787)"
         clip-path="url(#clipPath70)" />
      <path
         id="path71"
         d="m 0,0 c 16.316,0 29.545,-19.881 29.545,-44.404 0,-5.645 -0.702,-11.044 -1.981,-16.01 3.472,-5.601 5.643,-13.582 5.643,-22.44 0,-16.945 -7.944,-30.683 -17.744,-30.683 -3.939,0 -7.575,2.219 -10.52,5.973 v -34.331 H -7.012 v 30.61 c -2.271,-1.432 -4.725,-2.215 -7.285,-2.215 -11.711,0 -21.203,16.355 -21.203,36.53 0,10.148 2.401,19.328 6.28,25.948 -0.216,2.158 -0.327,4.369 -0.327,6.618 C -29.547,-19.881 -16.318,0 0,0"
         style="fill:#395121;fill-opacity:1;fill-rule:evenodd;stroke:none"
         transform="matrix(1.3333333,0,0,-1.3333333,473.7448,592.57293)"
         clip-path="url(#clipPath72)" />
      <path
         id="path73"
         d="m 0,0 c 18.564,0 33.612,-22.616 33.612,-50.514 0,-6.422 -0.799,-12.562 -2.254,-18.212 3.951,-6.372 6.42,-15.449 6.42,-25.525 0,-19.279 -9.037,-34.907 -20.186,-34.907 -4.481,0 -8.617,2.525 -11.966,6.794 v -39.054 h -13.6 v 34.821 c -2.585,-1.628 -5.375,-2.518 -8.288,-2.518 -13.322,0 -24.12,18.605 -24.12,41.554 0,11.543 2.733,21.988 7.144,29.518 -0.245,2.457 -0.372,4.97 -0.372,7.529 C -33.61,-22.616 -18.562,0 0,0"
         style="fill:#395121;fill-opacity:1;fill-rule:evenodd;stroke:none"
         transform="matrix(1.3333333,0,0,-1.3333333,817.26827,566.54293)"
         clip-path="url(#clipPath74)" />
      <path
         id="path75"
         d="M 0,0 C 25.984,0 47.178,21.192 47.178,47.176 47.178,73.161 25.984,94.354 0,94.354 -25.984,94.354 -47.178,73.161 -47.178,47.176 -47.178,21.192 -25.984,0 0,0"
         style="fill:#fbca07;fill-opacity:1;fill-rule:evenodd;stroke:none"
         transform="matrix(1.3333333,0,0,-1.3333333,482.0716,160.95187)"
         clip-path="url(#clipPath76)" />
    </g>
  </g>
</svg>
