<?xml version="1.0" encoding="UTF-8" standalone="no"?>
<!-- Created with Inkscape (http://www.inkscape.org/) -->

<svg
   version="1.1"
   id="svg3659"
   width="880"
   height="880"
   viewBox="0 0 880 880"
   sodipodi:docname="summertime-publicdomainvectors.org.svg"
   inkscape:version="1.2 (dc2aedaf03, 2022-05-15)"
   xmlns:inkscape="http://www.inkscape.org/namespaces/inkscape"
   xmlns:sodipodi="http://sodipodi.sourceforge.net/DTD/sodipodi-0.dtd"
   xmlns="http://www.w3.org/2000/svg"
   xmlns:svg="http://www.w3.org/2000/svg">
  <defs
     id="defs3663">
    <clipPath
       clipPathUnits="userSpaceOnUse"
       id="clipPath3677">
      <path
         d="M 0,660 H 660 V 0 H 0 Z"
         id="path3675" />
    </clipPath>
  </defs>
  <sodipodi:namedview
     id="namedview3661"
     pagecolor="#ffffff"
     bordercolor="#000000"
     borderopacity="0.25"
     inkscape:showpageshadow="2"
     inkscape:pageopacity="0.0"
     inkscape:pagecheckerboard="0"
     inkscape:deskcolor="#d1d1d1"
     showgrid="false"
     inkscape:zoom="0.95113636"
     inkscape:cx="440.52569"
     inkscape:cy="440.52569"
     inkscape:window-width="1920"
     inkscape:window-height="1017"
     inkscape:window-x="-8"
     inkscape:window-y="-8"
     inkscape:window-maximized="1"
     inkscape:current-layer="g3667">
    <inkscape:page
       x="0"
       y="0"
       id="page3665"
       width="880"
       height="880" />
  </sodipodi:namedview>
  <g
     id="g3667"
     inkscape:groupmode="layer"
     inkscape:label="Page 1"
     transform="matrix(1.3333333,0,0,-1.3333333,0,880)">
    <path
       d="M 0,0 H 659.14 V 658.44 H 0 Z"
       style="fill:#b6e7f7;fill-opacity:1;fill-rule:nonzero;stroke:none"
       id="path3669" />
    <g
       id="g3671">
      <g
         id="g3673"
         clip-path="url(#clipPath3677)">
        <g
           id="g3679"
           transform="translate(235.4907,443.6812)">
          <path
             d="m 0,0 c 53.605,0 97.327,43.72 97.327,97.326 0,53.605 -43.722,97.325 -97.327,97.325 -53.605,0 -97.326,-43.72 -97.326,-97.325 C -97.326,43.72 -53.605,0 0,0"
             style="fill:#f39c0f;fill-opacity:1;fill-rule:evenodd;stroke:none"
             id="path3681" />
        </g>
        <g
           id="g3683"
           transform="translate(54.5205,528.7144)">
          <path
             d="m 0,0 85.848,-137.338 85.848,-137.339 H 0 -55.785 v 185.433 z"
             style="fill:#6b909c;fill-opacity:1;fill-rule:evenodd;stroke:none"
             id="path3685" />
        </g>
        <g
           id="g3687"
           transform="translate(54.5205,528.7144)">
          <path
             d="M 0,0 45.421,-274.677 H 171.696 Z"
             style="fill:#50737f;fill-opacity:1;fill-rule:evenodd;stroke:none"
             id="path3689" />
        </g>
        <g
           id="g3691"
           transform="translate(2.957,446.2251)">
          <path
             d="M 0,0 34.263,20.49 67.689,-15.031 73.915,14 103.654,-0.845 51.563,86.635 Z"
             style="fill:#ffffff;fill-opacity:1;fill-rule:evenodd;stroke:none"
             id="path3693" />
        </g>
        <g
           id="g3695"
           transform="translate(54.5205,532.8599)">
          <path
             d="m 0,0 16.126,-101.666 6.225,29.032 29.74,-14.846 z"
             style="fill:#f5fcfc;fill-opacity:1;fill-rule:evenodd;stroke:none"
             id="path3697" />
        </g>
        <g
           id="g3699"
           transform="translate(447.1816,573.646)">
          <path
             d="m 0,0 85.848,-137.338 85.844,-137.339 H 0 -171.696 l 85.847,137.339 z"
             style="fill:#6b909c;fill-opacity:1;fill-rule:evenodd;stroke:none"
             id="path3701" />
        </g>
        <g
           id="g3703"
           transform="translate(447.1816,573.646)">
          <path
             d="M 0,0 45.419,-274.677 H 171.692 Z"
             style="fill:#50737f;fill-opacity:1;fill-rule:evenodd;stroke:none"
             id="path3705" />
        </g>
        <g
           id="g3707"
           transform="translate(395.6172,491.1543)">
          <path
             d="M 0,0 34.264,20.492 67.689,-15.029 73.915,14.003 103.653,-0.844 51.564,86.637 Z"
             style="fill:#ffffff;fill-opacity:1;fill-rule:evenodd;stroke:none"
             id="path3709" />
        </g>
        <g
           id="g3711"
           transform="translate(447.1816,577.7915)">
          <path
             d="m 0,0 16.124,-101.666 6.227,29.032 29.738,-14.847 z"
             style="fill:#f5fcfc;fill-opacity:1;fill-rule:evenodd;stroke:none"
             id="path3713" />
        </g>
        <g
           id="g3715"
           transform="translate(583.1162,512.8008)">
          <path
             d="M 0,0 76.024,-121.622 V -274.675 H 0 -171.695 l 85.847,137.339 z"
             style="fill:#6b909c;fill-opacity:1;fill-rule:evenodd;stroke:none"
             id="path3717" />
        </g>
        <g
           id="g3719"
           transform="translate(583.1162,512.8008)">
          <path
             d="m 0,0 45.42,-274.675 h 30.604 v 153.053 z"
             style="fill:#50737f;fill-opacity:1;fill-rule:evenodd;stroke:none"
             id="path3721" />
        </g>
        <g
           id="g3723"
           transform="translate(531.5527,430.3091)">
          <path
             d="m 0,0 34.263,20.492 33.426,-35.521 6.225,29.032 29.741,-14.846 -52.091,87.48 z"
             style="fill:#ffffff;fill-opacity:1;fill-rule:evenodd;stroke:none"
             id="path3725" />
        </g>
        <g
           id="g3727"
           transform="translate(583.1162,516.9463)">
          <path
             d="m 0,0 16.125,-101.666 6.226,29.032 29.741,-14.846 z"
             style="fill:#f5fcfc;fill-opacity:1;fill-rule:evenodd;stroke:none"
             id="path3729" />
        </g>
        <g
           id="g3731"
           transform="translate(198.2861,399.6133)">
          <path
             d="m 0,0 c 73.261,0 132.652,-36.84 132.652,-82.285 0,-45.446 -59.391,-82.285 -132.652,-82.285 -73.261,0 -132.651,36.839 -132.651,82.285 C -132.651,-36.84 -73.261,0 0,0"
             style="fill:#c6e446;fill-opacity:1;fill-rule:evenodd;stroke:none"
             id="path3733" />
        </g>
        <g
           id="g3735"
           transform="translate(198.2861,371.0176)">
          <path
             d="m 0,0 c 63.728,0 115.39,-24.038 115.39,-53.689 0,-29.653 -51.662,-53.693 -115.39,-53.693 -63.729,0 -115.391,24.04 -115.391,53.693 C -115.391,-24.038 -63.729,0 0,0"
             style="fill:#adda1a;fill-opacity:1;fill-rule:evenodd;stroke:none"
             id="path3737" />
        </g>
        <g
           id="g3739"
           transform="translate(198.2861,352.5693)">
          <path
             d="m 0,0 c 56.163,0 101.693,-15.78 101.693,-35.241 0,-19.462 -45.53,-35.242 -101.693,-35.242 -56.163,0 -101.693,15.78 -101.693,35.242 C -101.693,-15.78 -56.163,0 0,0"
             style="fill:#9ac421;fill-opacity:1;fill-rule:evenodd;stroke:none"
             id="path3741" />
        </g>
        <g
           id="g3743"
           transform="translate(458.582,399.6133)">
          <path
             d="m 0,0 c 73.26,0 132.649,-36.84 132.649,-82.285 0,-45.446 -59.389,-82.285 -132.649,-82.285 -73.262,0 -132.652,36.839 -132.652,82.285 C -132.652,-36.84 -73.262,0 0,0"
             style="fill:#c6e446;fill-opacity:1;fill-rule:evenodd;stroke:none"
             id="path3745" />
        </g>
        <g
           id="g3747"
           transform="translate(458.582,371.0176)">
          <path
             d="m 0,0 c 63.727,0 115.389,-24.038 115.389,-53.689 0,-29.653 -51.662,-53.693 -115.389,-53.693 -63.73,0 -115.392,24.04 -115.392,53.693 C -115.392,-24.038 -63.73,0 0,0"
             style="fill:#adda1a;fill-opacity:1;fill-rule:evenodd;stroke:none"
             id="path3749" />
        </g>
        <g
           id="g3751"
           transform="translate(458.582,352.5693)">
          <path
             d="m 0,0 c 56.163,0 101.693,-15.78 101.693,-35.241 0,-19.462 -45.53,-35.242 -101.693,-35.242 -56.163,0 -101.693,15.78 -101.693,35.242 C -101.693,-15.78 -56.163,0 0,0"
             style="fill:#9ac421;fill-opacity:1;fill-rule:evenodd;stroke:none"
             id="path3753" />
        </g>
        <g
           id="g3755"
           transform="translate(67.6523,361.0508)">
          <path
             d="m 0,0 c 73.262,0 132.652,-36.842 132.652,-82.288 0,-45.442 -59.39,-82.285 -132.652,-82.285 -25.239,0 -48.831,4.372 -68.917,11.964 V -11.964 C -48.831,-4.374 -25.239,0 0,0"
             style="fill:#adda1a;fill-opacity:1;fill-rule:evenodd;stroke:none"
             id="path3757" />
        </g>
        <g
           id="g3759"
           transform="translate(67.6523,332.4526)">
          <path
             d="m 0,0 c 63.729,0 115.39,-24.036 115.39,-53.69 0,-29.651 -51.661,-53.689 -115.39,-53.689 -25.835,0 -49.685,3.952 -68.917,10.624 v 86.131 C -49.685,-3.95 -25.835,0 0,0"
             style="fill:#9ac421;fill-opacity:1;fill-rule:evenodd;stroke:none"
             id="path3761" />
        </g>
        <g
           id="g3763"
           transform="translate(67.6523,314.0049)">
          <path
             d="m 0,0 c 56.163,0 101.693,-15.777 101.693,-35.242 0,-19.464 -45.53,-35.239 -101.693,-35.239 -26.593,0 -50.796,3.539 -68.917,9.329 V -9.329 C -50.796,-3.541 -26.593,0 0,0"
             style="fill:#87b027;fill-opacity:1;fill-rule:evenodd;stroke:none"
             id="path3765" />
        </g>
        <g
           id="g3767"
           transform="translate(590.3984,361.0508)">
          <path
             d="M 0,0 C 25.164,0 48.693,-4.349 68.742,-11.898 V -152.677 C 48.693,-160.225 25.164,-164.573 0,-164.573 c -73.262,0 -132.652,36.843 -132.652,82.285 C -132.652,-36.842 -73.262,0 0,0"
             style="fill:#adda1a;fill-opacity:1;fill-rule:evenodd;stroke:none"
             id="path3769" />
        </g>
        <g
           id="g3771"
           transform="translate(590.3984,332.4526)">
          <path
             d="M 0,0 C 25.758,0 49.541,-3.926 68.742,-10.563 V -96.814 C 49.541,-103.451 25.758,-107.379 0,-107.379 c -63.729,0 -115.389,24.038 -115.389,53.689 C -115.389,-24.036 -63.729,0 0,0"
             style="fill:#9ac421;fill-opacity:1;fill-rule:evenodd;stroke:none"
             id="path3773" />
        </g>
        <g
           id="g3775"
           transform="translate(590.3984,314.0049)">
          <path
             d="M 0,0 C 26.507,0 50.642,-3.516 68.742,-9.272 V -61.209 C 50.642,-66.966 26.507,-70.481 0,-70.481 c -56.163,0 -101.693,15.775 -101.693,35.239 C -101.693,-15.777 -56.163,0 0,0"
             style="fill:#87b027;fill-opacity:1;fill-rule:evenodd;stroke:none"
             id="path3777" />
        </g>
        <g
           id="g3779"
           transform="translate(328.9385,361.0508)">
          <path
             d="m 0,0 c 73.26,0 132.652,-36.842 132.652,-82.288 0,-45.442 -59.392,-82.285 -132.652,-82.285 -73.262,0 -132.652,36.843 -132.652,82.285 C -132.652,-36.842 -73.262,0 0,0"
             style="fill:#adda1a;fill-opacity:1;fill-rule:evenodd;stroke:none"
             id="path3781" />
        </g>
        <g
           id="g3783"
           transform="translate(328.9385,332.4526)">
          <path
             d="m 0,0 c 63.727,0 115.389,-24.036 115.389,-53.69 0,-29.651 -51.662,-53.689 -115.389,-53.689 -63.729,0 -115.392,24.038 -115.392,53.689 C -115.392,-24.036 -63.729,0 0,0"
             style="fill:#9ac421;fill-opacity:1;fill-rule:evenodd;stroke:none"
             id="path3785" />
        </g>
        <g
           id="g3787"
           transform="translate(328.9385,314.0049)">
          <path
             d="m 0,0 c 56.163,0 101.693,-15.777 101.693,-35.242 0,-19.464 -45.53,-35.239 -101.693,-35.239 -56.165,0 -101.693,15.775 -101.693,35.239 C -101.693,-15.777 -56.165,0 0,0"
             style="fill:#87b027;fill-opacity:1;fill-rule:evenodd;stroke:none"
             id="path3789" />
        </g>
        <path
           d="M -1.265,-1.964 H 659.14 V 290.032 H -1.265 Z"
           style="fill:#54c6c8;fill-opacity:1;fill-rule:evenodd;stroke:none"
           id="path3791" />
        <path
           d="M -1.265,-1.964 H 659.14 V 248.218 H -1.265 Z"
           style="fill:#6bced3;fill-opacity:1;fill-rule:evenodd;stroke:none"
           id="path3793" />
        <path
           d="M -1.265,-1.964 H 659.14 V 181.892 H -1.265 Z"
           style="fill:#84d6dd;fill-opacity:1;fill-rule:evenodd;stroke:none"
           id="path3795" />
        <path
           d="M -1.265,-1.964 H 659.14 V 73.927 H -1.265 Z"
           style="fill:#f7cb4e;fill-opacity:1;fill-rule:evenodd;stroke:none"
           id="path3797" />
        <path
           d="M -1.265,57.891 H 659.14 V 89.964 H -1.265 Z"
           style="fill:#def4f8;fill-opacity:1;fill-rule:evenodd;stroke:none"
           id="path3799" />
        <g
           id="g3801"
           transform="translate(283.0762,583.0508)">
          <path
             d="m 0,0 c 2.534,0 4.972,-0.406 7.255,-1.154 4.739,7.632 13.193,12.716 22.837,12.716 10.985,0 20.431,-6.599 24.592,-16.048 4.674,-0.41 8.793,-2.748 11.56,-6.214 3.158,5.385 9.007,9 15.7,9 10.046,0 18.193,-8.145 18.193,-18.19 0,-0.866 -0.064,-1.717 -0.179,-2.551 H -23.274 C -22.827,-9.972 -12.579,0 0,0"
             style="fill:#ffffff;fill-opacity:1;fill-rule:evenodd;stroke:none"
             id="path3803" />
        </g>
        <g
           id="g3805"
           transform="translate(188.5806,568.4009)">
          <path
             d="m 0,0 c 0.032,0.492 0.051,0.988 0.051,1.488 0,12.557 -10.181,22.738 -22.74,22.738 -7.692,0 -14.491,-3.82 -18.605,-9.666 -3.738,5.572 -10.095,9.241 -17.309,9.241 -2.891,0 -5.645,-0.59 -8.148,-1.655 -5.711,4.496 -12.918,7.179 -20.752,7.179 -5.801,0 -11.259,-1.471 -16.02,-4.061 -5.328,5.888 -13.029,9.588 -21.593,9.588 -16.079,0 -29.114,-13.036 -29.114,-29.114 0,-1.965 0.195,-3.883 0.566,-5.738 z"
             style="fill:#ffffff;fill-opacity:1;fill-rule:evenodd;stroke:none"
             id="path3807" />
        </g>
        <g
           id="g3809"
           transform="translate(203.9438,116.2197)">
          <path
             d="m 0,0 c 3.236,0 6.35,-0.519 9.265,-1.474 6.051,9.744 16.848,16.236 29.164,16.236 14.03,0 26.092,-8.425 31.406,-20.492 5.966,-0.521 11.228,-3.509 14.761,-7.937 4.034,6.878 11.502,11.497 20.05,11.497 9.026,0 16.852,-5.151 20.698,-12.671 4.548,10.094 14.696,17.12 26.486,17.12 9.824,0 18.506,-4.879 23.759,-12.344 4.773,7.116 12.891,11.799 22.104,11.799 3.691,0 7.21,-0.753 10.406,-2.114 7.296,5.742 16.498,9.171 26.502,9.171 7.409,0 14.377,-1.879 20.457,-5.186 6.804,7.517 16.639,12.244 27.577,12.244 15.398,0 28.61,-9.365 34.254,-22.708 5.153,4.283 11.774,6.857 18.994,6.857 3.237,0 6.351,-0.517 9.266,-1.472 6.05,9.744 16.848,16.236 29.163,16.236 14.031,0 26.092,-8.425 31.407,-20.492 5.968,-0.521 11.227,-3.509 14.762,-7.935 4.034,6.876 11.501,11.492 20.048,11.492 5.562,0 10.669,-1.955 14.668,-5.215 v -21.27 H 319.09 306.164 127.649 122.857 -19.121 -29.722 -205.208 V 4.938 c 6.729,6.74 16.032,10.911 26.307,10.911 10.938,0 20.773,-4.727 27.576,-12.244 6.08,3.307 13.049,5.186 20.458,5.186 10.004,0 19.207,-3.429 26.502,-9.171 3.197,1.361 6.712,2.114 10.406,2.114 9.212,0 17.33,-4.683 22.103,-11.799 5.254,7.465 13.937,12.344 23.76,12.344 10.408,0 19.536,-5.477 24.662,-13.705 C -17.989,-4.471 -9.518,0 0,0"
             style="fill:#ffffff;fill-opacity:1;fill-rule:evenodd;stroke:none"
             id="path3811" />
        </g>
        <g
           id="g3813"
           transform="translate(479.4756,605.4873)">
          <path
             d="m 0,0 c -0.01,0.199 -0.015,0.398 -0.015,0.601 0,6.594 5.314,11.948 11.894,12.014 2.392,12.656 13.504,22.23 26.856,22.23 9.216,0 17.369,-4.562 22.321,-11.552 2.206,0.863 4.607,1.339 7.118,1.339 10.783,0 19.525,-8.742 19.525,-19.525 0,-1.768 -0.237,-3.479 -0.676,-5.107 z"
             style="fill:#ffffff;fill-opacity:1;fill-rule:evenodd;stroke:none"
             id="path3815" />
        </g>
        <g
           id="g3817"
           transform="translate(549.1602,544.5645)">
          <path
             d="m 0,0 c -1.698,0.921 -3.646,1.444 -5.716,1.444 -6.435,0 -11.687,-5.057 -12,-11.413 H 69.306 C 67.06,-1.663 59.473,4.45 50.456,4.45 46.812,4.45 43.402,3.45 40.482,1.712 35.526,6.739 28.636,9.856 21.019,9.856 12.57,9.856 5.016,6.022 0,0"
             style="fill:#ffffff;fill-opacity:1;fill-rule:evenodd;stroke:none"
             id="path3819" />
        </g>
      </g>
    </g>
  </g>
</svg>
